{"glyphs":{"0":{"ha":555,"x_min":60,"x_max":494,"o":"m 494 497 q 440 116 494 245 q 277 -14 385 -14 q 111 106 162 -14 q 60 497 60 226 q 277 1006 60 1006 q 442 880 389 1006 q 494 497 494 753 m 129 497 q 164 162 129 273 q 277 50 200 50 q 425 497 425 50 q 277 942 425 942 q 164 832 200 942 q 129 497 129 722 z "},"1":{"ha":555,"x_min":102,"x_max":347,"o":"m 347 0 l 282 0 l 282 729 q 288 921 282 818 q 221 850 273 902 l 136 772 l 102 815 l 293 991 l 347 991 l 347 0 z "},"2":{"ha":555,"x_min":50,"x_max":494,"o":"m 494 0 l 50 0 l 50 53 l 250 355 q 374 581 342 496 q 406 770 406 665 q 364 897 406 850 q 252 945 323 945 q 170 931 205 945 q 100 889 135 917 l 64 940 q 155 991 111 976 q 256 1006 199 1006 q 415 942 358 1006 q 472 770 472 878 q 455 629 472 695 q 409 500 439 564 q 309 336 378 437 l 126 66 l 126 61 l 494 61 l 494 0 z "},"3":{"ha":555,"x_min":52,"x_max":488,"o":"m 472 771 q 432 613 472 678 q 311 519 392 549 l 311 514 q 441 431 395 496 q 488 268 488 366 q 422 63 488 139 q 244 -14 357 -14 q 57 22 130 -14 l 57 96 q 244 46 142 46 q 373 106 327 46 q 419 271 419 166 q 366 426 419 370 q 207 482 312 482 l 157 482 l 157 545 l 211 545 q 352 605 298 545 q 406 765 406 666 q 367 898 406 850 q 260 946 329 946 q 176 930 213 946 q 93 872 139 915 l 52 916 q 151 985 102 964 q 258 1006 200 1006 q 414 941 356 1006 q 472 771 472 877 z "},"4":{"ha":555,"x_min":25,"x_max":538,"o":"m 538 225 l 432 225 l 432 0 l 367 0 l 367 225 l 25 225 l 25 282 l 350 1003 l 432 1003 l 432 286 l 538 286 l 538 225 m 367 286 l 367 765 q 372 926 367 848 l 368 926 l 318 799 l 93 286 l 367 286 z "},"5":{"ha":555,"x_min":66,"x_max":493,"o":"m 248 534 q 107 514 178 534 l 74 557 l 103 991 l 439 991 l 439 928 l 158 928 l 134 579 q 252 593 195 593 q 428 519 363 593 q 493 315 493 445 q 422 76 493 165 q 232 -14 351 -14 q 66 24 126 -14 l 66 98 q 229 46 141 46 q 372 120 319 46 q 425 313 425 194 q 378 479 425 424 q 248 534 330 534 z "},"6":{"ha":555,"x_min":68,"x_max":494,"o":"m 68 422 q 140 863 68 720 q 355 1006 213 1006 q 441 990 408 1006 l 441 925 q 350 942 402 942 q 197 830 252 942 q 135 503 142 718 l 140 503 q 203 583 163 554 q 296 612 243 612 q 441 530 388 612 q 494 304 494 448 q 438 71 494 156 q 286 -14 382 -14 q 124 98 180 -14 q 68 422 68 210 m 288 50 q 391 113 355 50 q 427 301 427 175 q 391 486 427 422 q 286 550 356 550 q 177 495 218 550 q 136 355 136 440 q 156 198 136 271 q 209 87 175 125 q 288 50 242 50 z "},"7":{"ha":555,"x_min":39,"x_max":507,"o":"m 132 0 l 440 928 l 39 928 l 39 991 l 507 991 l 507 936 l 201 0 l 132 0 z "},"8":{"ha":555,"x_min":49,"x_max":509,"o":"m 279 1006 q 430 945 373 1006 q 488 778 488 884 q 325 517 488 614 q 433 430 397 468 q 489 347 469 392 q 509 245 509 302 q 446 59 509 132 q 286 -14 383 -14 q 115 56 182 -14 q 49 237 49 125 q 86 390 49 323 q 215 517 123 456 q 72 775 72 627 q 130 942 72 878 q 279 1006 188 1006 m 118 236 q 163 99 118 151 q 281 47 208 47 q 396 101 353 47 q 439 249 439 155 q 298 467 439 370 l 265 489 q 151 379 183 436 q 118 236 118 323 m 278 945 q 177 899 214 945 q 140 772 140 854 q 171 650 140 703 q 278 547 201 598 q 386 647 352 591 q 419 772 419 703 q 382 899 419 854 q 278 945 345 945 z "},"9":{"ha":555,"x_min":56,"x_max":482,"o":"m 482 582 q 408 136 482 286 q 191 -14 334 -14 q 137 -9 165 -14 q 98 1 109 -4 l 98 66 q 196 50 136 50 q 351 164 294 50 q 415 489 408 278 l 410 489 q 347 408 387 437 q 254 379 307 379 q 109 463 161 379 q 56 688 56 546 q 113 921 56 836 q 272 1006 170 1006 q 429 896 376 1006 q 482 582 482 787 m 268 942 q 162 879 201 942 q 123 690 123 817 q 159 506 123 570 q 264 441 194 441 q 373 499 332 441 q 414 652 414 556 q 396 804 414 736 q 345 907 378 872 q 268 942 313 942 z "}," ":{"ha":261,"x_min":0,"x_max":0,"o":""},"!":{"ha":306,"x_min":100,"x_max":205,"o":"m 171 249 l 134 249 l 110 991 l 195 991 l 171 249 m 100 61 q 153 134 100 134 q 190 117 174 134 q 205 61 205 101 q 190 6 205 22 q 153 -11 174 -11 q 100 61 100 -11 z "},"\"":{"ha":465,"x_min":90,"x_max":375,"o":"m 174 991 l 154 633 l 113 633 l 90 991 l 174 991 m 375 991 l 355 633 l 314 633 l 292 991 l 375 991 z "},"#":{"ha":589,"x_min":25,"x_max":562,"o":"m 443 648 l 412 378 l 530 378 l 530 317 l 406 317 l 370 0 l 314 0 l 351 317 l 193 317 l 157 0 l 104 0 l 139 317 l 25 317 l 25 378 l 146 378 l 176 648 l 56 648 l 56 707 l 183 707 l 215 991 l 271 991 l 237 707 l 397 707 l 431 991 l 482 991 l 450 707 l 562 707 l 562 648 l 443 648 m 200 378 l 358 378 l 390 648 l 231 648 l 200 378 z "},"$":{"ha":555,"x_min":64,"x_max":493,"o":"m 249 83 q 64 119 130 83 l 64 189 q 150 157 99 169 q 249 146 200 146 l 249 481 q 110 575 149 523 q 71 711 71 627 q 120 856 71 796 q 249 929 170 916 l 249 1055 l 304 1055 l 304 932 q 479 890 399 929 l 454 832 q 304 871 375 869 l 304 526 q 450 432 407 484 q 493 301 493 380 q 442 160 493 218 q 304 87 391 102 l 304 -81 l 249 -81 l 249 83 m 427 297 q 398 393 427 355 q 304 458 370 431 l 304 151 q 393 204 360 164 q 427 297 427 245 m 136 715 q 163 614 136 651 q 249 549 190 577 l 249 867 q 167 813 198 855 q 136 715 136 772 z "},"%":{"ha":819,"x_min":64,"x_max":755,"o":"m 125 697 q 142 504 125 568 q 201 440 159 440 q 260 504 242 440 q 278 697 278 567 q 199 953 278 953 q 142 889 159 953 q 125 697 125 826 m 339 696 q 302 465 339 547 q 200 383 266 383 q 98 465 133 383 q 64 696 64 546 q 98 926 64 846 q 200 1006 132 1006 q 303 927 268 1006 q 339 696 339 848 m 600 991 l 278 0 l 218 0 l 541 991 l 600 991 m 542 300 q 559 107 542 171 q 618 43 576 43 q 676 106 659 43 q 694 300 694 170 q 615 555 694 555 q 558 492 575 555 q 542 300 542 429 m 755 298 q 719 67 755 147 q 616 -14 682 -14 q 515 68 550 -14 q 481 298 481 151 q 516 531 481 454 q 616 608 551 608 q 720 529 684 608 q 755 298 755 450 z "},"&":{"ha":566,"x_min":45,"x_max":567,"o":"m 493 0 l 427 121 q 330 16 377 46 q 222 -14 283 -14 q 92 54 140 -14 q 45 241 45 121 q 60 352 45 303 q 104 441 75 400 q 193 534 133 482 q 128 685 143 627 q 113 817 113 744 q 148 956 113 906 q 244 1006 183 1006 q 341 955 306 1006 q 376 810 376 903 q 351 650 376 716 q 265 525 325 585 l 425 239 q 464 437 464 319 l 528 437 q 508 299 528 374 q 461 176 488 224 l 567 0 l 493 0 m 110 240 q 142 99 110 149 q 228 50 174 50 q 317 81 277 50 q 393 178 357 113 l 221 486 q 133 373 157 427 q 110 240 110 319 m 313 810 q 241 945 313 945 q 193 910 210 945 q 176 810 176 876 q 193 686 176 751 q 236 576 210 621 q 296 680 280 621 q 313 810 313 738 z "},"'":{"ha":264,"x_min":90,"x_max":174,"o":"m 174 991 l 154 633 l 113 633 l 90 991 l 174 991 z "},"(":{"ha":383,"x_min":71,"x_max":326,"o":"m 71 380 q 123 716 71 556 q 272 991 176 876 l 326 991 q 189 700 235 857 q 142 382 142 543 q 191 57 142 217 q 325 -220 240 -103 l 272 -220 q 123 50 175 -106 q 71 380 71 205 z "},")":{"ha":383,"x_min":57,"x_max":313,"o":"m 313 380 q 261 49 313 205 q 111 -220 209 -107 l 58 -220 q 194 62 146 -97 q 241 382 241 220 q 195 700 241 544 q 57 991 148 857 l 111 991 q 260 715 208 876 q 313 380 313 555 z "},"*":{"ha":505,"x_min":64,"x_max":441,"o":"m 294 1055 l 275 886 l 432 925 l 441 852 l 288 847 l 393 693 l 328 663 l 254 823 l 175 661 l 113 693 l 214 847 l 64 851 l 75 924 l 231 886 l 212 1055 l 294 1055 z "},"+":{"ha":555,"x_min":40,"x_max":515,"o":"m 250 463 l 40 463 l 40 518 l 250 518 l 250 812 l 306 812 l 306 518 l 515 518 l 515 463 l 306 463 l 306 170 l 250 170 l 250 463 z "},",":{"ha":286,"x_min":53,"x_max":208,"o":"m 208 123 q 96 -179 163 -29 l 53 -179 q 121 139 104 -6 l 199 139 l 208 123 z "},"-":{"ha":350,"x_min":36,"x_max":314,"o":"m 36 340 l 36 410 l 314 410 l 314 340 l 36 340 z "},".":{"ha":286,"x_min":90,"x_max":196,"o":"m 90 61 q 143 134 90 134 q 180 117 165 134 q 196 61 196 101 q 180 6 196 22 q 143 -11 165 -11 q 90 61 90 -11 z "},"/":{"ha":484,"x_min":35,"x_max":457,"o":"m 457 991 l 103 0 l 35 0 l 392 991 l 457 991 z "},":":{"ha":286,"x_min":90,"x_max":196,"o":"m 90 61 q 143 134 90 134 q 180 117 165 134 q 196 61 196 101 q 180 6 196 22 q 143 -11 165 -11 q 90 61 90 -11 m 90 665 q 143 737 90 737 q 196 665 196 737 q 180 610 196 627 q 143 593 165 593 q 90 665 90 593 z "},";":{"ha":286,"x_min":53,"x_max":208,"o":"m 90 665 q 143 737 90 737 q 196 665 196 737 q 180 610 196 627 q 143 593 165 593 q 90 665 90 593 m 208 123 q 96 -179 163 -29 l 53 -179 q 121 139 104 -6 l 199 139 l 208 123 z "},"<":{"ha":555,"x_min":40,"x_max":517,"o":"m 517 195 l 40 468 l 40 514 l 517 785 l 517 717 l 110 490 l 517 264 l 517 195 z "},"=":{"ha":555,"x_min":40,"x_max":515,"o":"m 40 607 l 40 663 l 515 663 l 515 607 l 40 607 m 40 315 l 40 371 l 515 371 l 515 315 l 40 315 z "},">":{"ha":555,"x_min":39,"x_max":515,"o":"m 39 264 l 446 490 l 39 717 l 39 785 l 515 514 l 515 468 l 39 195 l 39 264 z "},"?":{"ha":392,"x_min":24,"x_max":359,"o":"m 129 249 l 129 283 q 143 411 129 361 q 196 519 157 460 q 274 664 256 610 q 292 782 292 718 q 261 903 292 861 q 176 945 230 945 q 111 934 138 945 q 56 904 83 923 l 24 956 q 176 1006 91 1006 q 312 949 264 1006 q 359 786 359 893 q 338 649 359 704 q 252 494 317 594 q 195 388 212 435 q 179 273 179 341 l 179 249 l 129 249 m 106 61 q 158 134 106 134 q 195 117 180 134 q 211 61 211 101 q 195 6 211 22 q 158 -11 180 -11 q 106 61 106 -11 z "},"@":{"ha":836,"x_min":75,"x_max":766,"o":"m 766 498 q 614 157 766 157 q 533 193 557 157 q 507 297 509 230 l 501 297 q 465 190 490 224 q 395 157 439 157 q 302 220 335 157 q 269 399 269 283 q 447 720 269 720 q 558 700 507 720 l 545 376 l 545 335 q 563 247 545 273 q 614 221 581 221 q 680 290 660 221 q 700 503 700 359 q 668 730 700 631 q 577 884 635 829 q 443 939 518 939 q 283 871 353 939 q 175 683 213 804 q 138 404 138 561 q 207 60 138 183 q 400 -64 277 -64 q 487 -50 447 -64 q 553 -17 528 -37 l 553 -81 q 482 -112 519 -102 q 396 -122 446 -122 q 158 10 240 -122 q 75 393 75 142 q 120 716 75 579 q 249 926 165 853 q 444 999 333 999 q 612 936 538 999 q 726 759 686 873 q 766 498 766 644 m 336 396 q 407 221 336 221 q 455 277 437 221 q 478 452 472 334 l 489 659 q 440 664 471 664 q 363 596 390 664 q 336 396 336 528 z "},"A":{"ha":551,"x_min":0,"x_max":551,"o":"m 484 0 l 396 359 l 155 359 l 69 0 l 0 0 l 239 991 l 307 991 l 551 0 l 484 0 m 380 427 l 293 796 q 272 914 279 859 q 253 796 266 855 l 168 427 l 380 427 z "},"B":{"ha":615,"x_min":109,"x_max":561,"o":"m 109 991 l 298 991 q 478 932 415 991 q 541 755 541 872 q 393 525 541 554 l 393 519 q 519 444 478 502 q 561 282 561 386 q 502 75 561 149 q 336 0 443 0 l 109 0 l 109 991 m 175 550 l 300 550 q 432 601 393 550 q 472 757 472 652 q 428 886 472 841 q 298 930 385 930 l 175 930 l 175 550 m 175 489 l 175 61 l 328 61 q 492 283 492 61 q 444 436 492 382 q 309 489 395 489 l 175 489 z "},"C":{"ha":583,"x_min":75,"x_max":549,"o":"m 389 943 q 211 825 277 943 q 144 497 144 707 q 175 260 144 361 q 262 104 205 159 q 395 50 319 50 q 528 78 472 50 l 528 17 q 389 -14 475 -14 q 223 47 294 -14 q 114 224 153 109 q 75 498 75 340 q 160 871 75 736 q 390 1007 244 1007 q 549 965 481 1007 l 518 907 q 389 943 461 943 z "},"D":{"ha":675,"x_min":109,"x_max":600,"o":"m 600 505 q 285 0 600 0 l 109 0 l 109 991 l 289 991 q 521 868 442 991 q 600 505 600 744 m 530 501 q 469 821 530 711 q 286 930 407 930 l 175 930 l 175 61 l 281 61 q 470 174 410 61 q 530 501 530 286 z "},"E":{"ha":534,"x_min":109,"x_max":468,"o":"m 468 0 l 109 0 l 109 991 l 468 991 l 468 928 l 175 928 l 175 551 l 452 551 l 452 488 l 175 488 l 175 64 l 468 64 l 468 0 z "},"F":{"ha":494,"x_min":109,"x_max":469,"o":"m 175 0 l 109 0 l 109 991 l 469 991 l 469 928 l 175 928 l 175 507 l 453 507 l 453 443 l 175 443 l 175 0 z "},"G":{"ha":729,"x_min":75,"x_max":652,"o":"m 435 500 l 652 500 l 652 31 q 416 -14 538 -14 q 165 122 254 -14 q 75 498 75 258 q 168 873 75 740 q 428 1006 260 1006 q 640 942 541 1006 l 608 884 q 428 943 515 943 q 217 829 289 943 q 146 497 146 715 q 218 167 146 284 q 422 50 290 50 q 585 75 517 50 l 585 436 l 435 436 l 435 500 z "},"H":{"ha":696,"x_min":109,"x_max":587,"o":"m 587 0 l 521 0 l 521 488 l 175 488 l 175 0 l 109 0 l 109 991 l 175 991 l 175 551 l 521 551 l 521 991 l 587 991 l 587 0 z "},"J":{"ha":272,"x_min":-61,"x_max":168,"o":"m 18 -250 q -61 -233 -27 -250 l -61 -171 q 17 -184 -28 -184 q 81 -145 60 -184 q 102 -17 102 -106 l 102 991 l 168 991 l 168 -16 q 130 -191 168 -132 q 18 -250 92 -250 z "},"K":{"ha":559,"x_min":109,"x_max":559,"o":"m 559 0 l 485 0 l 252 494 l 175 393 l 175 0 l 109 0 l 109 991 l 175 991 l 175 467 q 468 991 210 532 l 541 991 l 292 555 l 559 0 z "},"L":{"ha":482,"x_min":109,"x_max":454,"o":"m 109 0 l 109 991 l 175 991 l 175 64 l 454 64 l 454 0 l 109 0 z "},"M":{"ha":946,"x_min":109,"x_max":838,"o":"m 435 0 l 171 903 l 165 903 q 172 722 172 760 l 172 0 l 109 0 l 109 991 l 207 991 l 429 233 q 468 62 459 133 l 473 62 q 515 232 480 113 l 736 991 l 838 991 l 838 0 l 771 0 l 771 717 q 778 901 771 759 l 772 901 l 510 0 l 435 0 z "},"N":{"ha":739,"x_min":109,"x_max":631,"o":"m 631 0 l 546 0 l 171 889 l 165 889 q 174 711 174 797 l 174 0 l 109 0 l 109 991 l 195 991 l 567 113 l 571 113 q 566 298 566 224 l 566 991 l 631 991 l 631 0 z "},"O":{"ha":722,"x_min":75,"x_max":647,"o":"m 647 497 q 573 119 647 251 q 361 -14 500 -14 q 148 120 220 -14 q 75 498 75 253 q 147 880 75 755 q 363 1006 219 1006 q 574 874 501 1006 q 647 497 647 742 m 144 497 q 200 163 144 276 q 361 50 255 50 q 523 162 467 50 q 578 497 578 274 q 524 830 578 718 q 363 942 469 942 q 199 828 254 942 q 144 497 144 715 z "},"P":{"ha":570,"x_min":109,"x_max":524,"o":"m 524 707 q 453 481 524 553 q 245 410 383 410 l 175 410 l 175 0 l 109 0 l 109 991 l 244 991 q 456 923 389 991 q 524 707 524 854 m 175 471 l 241 471 q 407 526 358 471 q 456 707 456 581 q 405 879 456 827 q 249 930 355 930 l 175 930 l 175 471 z "},"Q":{"ha":722,"x_min":75,"x_max":647,"o":"m 606 -236 l 521 -236 l 395 -11 l 361 -14 q 148 120 220 -14 q 75 498 75 253 q 147 880 75 755 q 363 1006 219 1006 q 574 874 501 1006 q 647 497 647 742 q 599 174 647 300 q 461 7 551 49 l 606 -236 m 144 497 q 200 163 144 276 q 361 50 255 50 q 523 162 467 50 q 578 497 578 274 q 524 830 578 718 q 363 942 469 942 q 199 828 254 942 q 144 497 144 715 z "},"R":{"ha":590,"x_min":109,"x_max":561,"o":"m 175 433 l 175 0 l 109 0 l 109 991 l 244 991 q 456 923 389 991 q 524 718 524 854 q 487 549 524 615 q 364 449 450 482 l 561 0 l 486 0 l 301 433 l 175 433 m 175 494 l 268 494 q 407 550 358 494 q 456 715 456 606 q 406 877 456 827 q 249 926 356 926 l 175 926 l 175 494 z "},"S":{"ha":549,"x_min":58,"x_max":489,"o":"m 489 260 q 421 62 489 138 q 249 -14 353 -14 q 58 21 130 -14 l 58 93 q 146 62 94 73 q 249 50 198 50 q 374 108 325 50 q 422 254 422 165 q 388 385 422 336 q 256 481 353 433 q 141 556 179 519 q 85 640 103 592 q 66 755 66 688 q 96 886 66 829 q 180 974 126 943 q 297 1006 233 1006 q 402 993 355 1006 q 476 965 449 980 l 450 901 q 297 940 375 940 q 178 890 224 940 q 132 758 132 840 q 165 629 132 675 q 296 533 199 583 q 443 419 396 484 q 489 260 489 353 z "},"T":{"ha":482,"x_min":9,"x_max":471,"o":"m 273 0 l 207 0 l 207 928 l 9 928 l 9 991 l 471 991 l 471 928 l 273 928 l 273 0 z "},"U":{"ha":686,"x_min":100,"x_max":586,"o":"m 586 991 l 586 322 q 346 -14 586 -14 q 163 73 226 -14 q 100 322 100 160 l 100 991 l 167 991 l 167 314 q 213 118 167 185 q 346 50 260 50 q 475 118 431 50 q 519 317 519 185 l 519 991 l 586 991 z "},"V":{"ha":542,"x_min":0,"x_max":542,"o":"m 473 991 l 542 991 l 307 0 l 233 0 l 0 991 l 69 991 l 231 294 q 256 177 250 214 q 268 82 262 139 q 279 159 273 121 q 291 223 286 197 q 473 991 297 250 z "},"W":{"ha":946,"x_min":7,"x_max":939,"o":"m 871 991 l 939 991 l 728 0 l 647 0 l 496 742 q 472 904 492 760 l 463 840 l 447 743 l 298 0 l 220 0 l 7 991 l 77 991 l 216 309 q 258 75 249 142 q 297 306 273 184 l 436 991 l 511 991 l 650 309 q 681 125 671 197 l 688 75 q 726 309 707 218 l 871 991 z "},"X":{"ha":485,"x_min":14,"x_max":471,"o":"m 471 0 l 401 0 l 253 456 l 81 0 l 14 0 l 221 526 l 43 991 l 113 991 l 260 579 l 403 991 l 471 991 l 296 511 l 471 0 z "},"Y":{"ha":465,"x_min":0,"x_max":465,"o":"m 233 479 l 395 991 l 465 991 l 265 387 l 265 0 l 199 0 l 199 387 l 0 991 l 71 991 l 233 479 z "},"Z":{"ha":436,"x_min":39,"x_max":408,"o":"m 408 0 l 39 0 l 39 60 l 326 926 l 43 926 l 43 991 l 400 991 l 400 930 l 109 64 l 408 64 l 408 0 z "},"[":{"ha":437,"x_min":118,"x_max":387,"o":"m 387 -220 l 118 -220 l 118 991 l 387 991 l 387 930 l 182 930 l 182 -158 l 387 -158 l 387 -220 z "},"\\":{"ha":484,"x_min":35,"x_max":457,"o":"m 100 991 l 457 0 l 389 0 l 35 991 l 100 991 z "},"]":{"ha":437,"x_min":50,"x_max":319,"o":"m 50 -158 l 256 -158 l 256 930 l 50 930 l 50 991 l 319 991 l 319 -220 l 50 -220 l 50 -158 z "},"^":{"ha":555,"x_min":25,"x_max":530,"o":"m 25 514 l 254 990 l 300 990 l 530 514 l 461 514 l 278 914 l 93 514 l 25 514 z "},"_":{"ha":571,"x_min":-3,"x_max":574,"o":"m 574 -180 l -3 -180 l -3 -125 l 574 -125 l 574 -180 z "},"`":{"ha":764,"x_min":294,"x_max":509,"o":"m 476 842 q 375 942 432 878 q 294 1053 319 1006 l 294 1064 l 379 1064 q 435 961 397 1021 q 509 856 473 901 l 509 842 l 476 842 z "},"a":{"ha":532,"x_min":53,"x_max":436,"o":"m 383 0 l 375 103 l 372 103 q 212 -14 319 -14 q 97 44 140 -14 q 53 197 53 101 q 116 364 53 302 q 293 431 179 425 l 372 435 l 372 496 q 347 646 372 599 q 261 693 321 693 q 132 652 198 693 l 104 703 q 265 750 181 750 q 396 693 356 750 q 436 501 436 635 l 436 0 l 383 0 m 227 41 q 334 110 296 41 q 372 302 372 178 l 372 379 l 296 375 q 164 326 207 370 q 121 196 121 281 q 149 79 121 116 q 227 41 178 41 z "},"b":{"ha":606,"x_min":98,"x_max":542,"o":"m 326 749 q 542 370 542 749 q 488 84 542 182 q 334 -14 435 -14 q 237 16 281 -14 q 165 102 194 45 l 160 102 l 151 0 l 98 0 l 98 1055 l 163 1055 l 163 728 l 160 639 l 165 639 q 326 749 224 749 m 323 689 q 201 614 239 689 q 163 370 163 540 l 163 353 q 326 45 163 45 q 438 124 401 45 q 475 370 475 203 q 439 609 475 529 q 323 689 403 689 z "},"c":{"ha":431,"x_min":65,"x_max":403,"o":"m 288 -14 q 121 82 177 -14 q 65 364 65 178 q 122 651 65 553 q 289 750 178 750 q 403 725 357 750 l 378 668 q 294 689 332 689 q 132 366 132 689 q 294 45 132 45 q 399 66 342 45 l 399 12 q 344 -7 376 0 q 288 -14 311 -14 z "},"d":{"ha":606,"x_min":64,"x_max":507,"o":"m 278 -14 q 64 367 64 -14 q 117 652 64 554 q 275 750 171 750 q 369 722 325 750 q 440 643 414 693 l 446 643 l 443 725 l 443 1055 l 507 1055 l 507 0 l 454 0 l 449 103 l 443 103 q 374 17 416 47 q 278 -14 332 -14 m 282 43 q 401 114 359 43 q 443 325 443 186 l 443 367 q 402 611 443 534 q 279 689 362 689 q 165 606 200 689 q 131 366 131 523 q 167 125 131 207 q 282 43 203 43 z "},"e":{"ha":545,"x_min":65,"x_max":479,"o":"m 307 -14 q 128 86 191 -14 q 65 363 65 185 q 121 651 65 551 q 282 750 177 750 q 427 663 374 750 q 479 428 479 576 l 479 368 l 131 368 q 176 127 132 208 q 310 47 220 47 q 456 93 379 47 l 456 31 q 307 -14 385 -14 m 278 692 q 132 427 145 692 l 415 427 q 378 620 415 548 q 278 692 341 692 z "},"f":{"ha":307,"x_min":14,"x_max":342,"o":"m 286 679 l 171 679 l 171 0 l 107 0 l 107 679 l 14 679 l 14 715 l 107 743 l 107 799 q 140 1001 107 939 q 256 1063 174 1063 q 342 1046 303 1063 l 319 986 q 254 1003 283 1003 q 204 983 221 1003 q 179 920 187 964 q 171 798 171 876 l 171 736 l 286 736 l 286 679 z "},"g":{"ha":503,"x_min":24,"x_max":496,"o":"m 484 736 l 484 690 l 383 679 q 416 603 404 652 q 429 503 429 554 q 381 329 429 395 q 253 262 332 262 l 237 262 l 222 264 q 171 218 190 241 q 153 164 153 195 q 177 116 153 133 q 243 98 201 98 l 289 98 q 441 47 387 98 q 496 -100 496 -3 q 423 -271 496 -208 q 231 -334 350 -334 q 77 -283 131 -334 q 24 -138 24 -233 q 59 -19 24 -68 q 170 58 94 30 q 115 100 136 73 q 94 163 94 126 q 116 222 94 196 q 179 278 138 248 q 94 361 123 304 q 65 497 65 419 q 115 682 65 614 q 250 750 164 750 q 328 736 296 750 l 484 736 m 87 -132 q 124 -241 87 -202 q 233 -281 160 -281 q 377 -233 324 -281 q 431 -103 431 -186 q 394 0 431 -37 q 289 36 358 36 l 241 36 q 131 -11 175 36 q 87 -132 87 -57 m 127 496 q 161 359 127 406 q 249 313 194 313 q 367 503 367 313 q 337 646 367 594 q 249 697 307 697 q 159 644 190 697 q 127 496 127 591 z "},"h":{"ha":590,"x_min":98,"x_max":494,"o":"m 431 0 l 431 507 q 405 649 431 607 q 319 690 378 690 q 202 621 241 690 q 163 403 163 552 l 163 0 l 98 0 l 98 1055 l 163 1055 l 163 713 q 160 635 163 666 l 165 635 q 231 720 187 690 q 322 750 275 750 q 455 689 416 750 q 494 507 494 628 l 494 0 l 431 0 z "},"i":{"ha":261,"x_min":89,"x_max":174,"o":"m 163 0 l 98 0 l 98 736 l 163 736 l 163 0 m 89 940 q 101 987 89 970 q 134 1004 114 1004 q 163 987 152 1004 q 174 940 174 970 q 163 893 174 911 q 134 876 152 876 q 101 893 114 876 q 89 940 89 911 z "},"j":{"ha":261,"x_min":-3,"x_max":174,"o":"m 43 -334 q -3 -322 14 -334 l -3 -261 q 40 -272 19 -272 q 85 -241 72 -272 q 98 -146 98 -210 l 98 736 l 163 736 l 163 -136 q 134 -286 163 -237 q 43 -334 104 -334 m 89 940 q 101 987 89 970 q 134 1004 114 1004 q 163 987 152 1004 q 174 940 174 970 q 163 893 174 911 q 134 876 152 876 q 101 893 114 876 q 89 940 89 911 z "},"k":{"ha":482,"x_min":98,"x_max":472,"o":"m 164 364 l 205 439 l 387 736 l 457 736 l 288 465 l 472 0 l 404 0 l 244 406 l 163 298 l 163 0 l 98 0 l 98 1055 l 163 1055 l 163 488 l 158 364 l 164 364 z "},"l":{"ha":261,"x_min":98,"x_max":163,"o":"m 163 0 l 98 0 l 98 1055 l 163 1055 l 163 0 z "},"m":{"ha":884,"x_min":98,"x_max":787,"o":"m 724 0 l 724 501 q 615 686 724 686 q 508 622 541 686 q 475 431 475 557 l 475 0 l 411 0 l 411 501 q 385 641 411 595 q 302 686 358 686 q 196 620 229 686 q 163 404 163 553 l 163 0 l 98 0 l 98 736 l 153 736 l 158 633 l 164 633 q 314 750 208 750 q 410 718 375 750 q 461 623 446 685 q 526 720 488 690 q 627 750 565 750 q 749 686 710 750 q 787 481 787 622 l 787 0 l 724 0 z "},"n":{"ha":590,"x_min":98,"x_max":494,"o":"m 431 0 l 431 507 q 322 690 431 690 q 201 622 239 690 q 163 404 163 553 l 163 0 l 98 0 l 98 736 l 153 736 l 158 633 l 164 633 q 231 720 187 689 q 323 750 274 750 q 452 693 409 750 q 494 509 494 635 l 494 0 l 431 0 z "},"o":{"ha":576,"x_min":64,"x_max":513,"o":"m 513 370 q 454 85 513 184 q 286 -14 395 -14 q 121 85 178 -14 q 64 370 64 184 q 289 750 64 750 q 454 650 395 750 q 513 370 513 551 m 131 370 q 169 129 131 210 q 288 47 207 47 q 446 370 446 47 q 288 689 446 689 q 168 609 205 689 q 131 370 131 529 z "},"p":{"ha":606,"x_min":98,"x_max":542,"o":"m 335 -14 q 234 17 279 -14 q 164 102 188 48 l 158 102 l 163 21 l 163 -334 l 98 -334 l 98 736 l 151 736 l 158 635 l 164 635 q 234 720 191 690 q 326 750 276 750 q 542 370 542 750 q 489 86 542 186 q 335 -14 436 -14 m 322 689 q 202 618 241 689 q 163 395 163 547 l 163 374 q 203 124 163 204 q 325 45 243 45 q 438 124 401 45 q 475 370 475 203 q 440 609 475 529 q 322 689 406 689 z "},"q":{"ha":606,"x_min":64,"x_max":507,"o":"m 275 -14 q 118 80 173 -14 q 64 367 64 174 q 121 656 64 562 q 278 750 178 750 q 440 637 384 750 l 446 637 l 456 736 l 507 736 l 507 -334 l 443 -334 l 443 -16 q 449 107 443 30 l 443 107 q 275 -14 385 -14 m 285 45 q 401 118 360 45 q 443 334 443 192 l 443 367 q 402 611 443 534 q 279 689 362 689 q 165 606 200 689 q 131 366 131 523 q 168 121 131 197 q 285 45 205 45 z "},"r":{"ha":379,"x_min":98,"x_max":367,"o":"m 302 750 q 367 741 337 750 l 351 676 q 301 686 327 686 q 232 648 264 686 q 181 541 199 610 q 163 390 163 473 l 163 0 l 98 0 l 98 736 l 151 736 l 158 607 l 163 607 q 302 750 214 750 z "},"s":{"ha":437,"x_min":50,"x_max":389,"o":"m 387 184 q 338 39 387 92 q 197 -14 290 -14 q 109 -1 147 -14 q 50 28 71 12 l 50 103 q 117 63 75 78 q 201 47 158 47 q 291 85 258 47 q 323 184 323 122 q 300 267 323 233 q 211 343 277 300 q 108 419 136 391 q 65 483 81 448 q 50 567 50 518 q 104 698 50 646 q 240 750 157 750 q 389 708 329 750 l 355 652 q 237 689 300 689 q 146 655 180 689 q 113 567 113 622 q 136 485 113 518 q 233 406 159 452 q 334 329 307 357 q 374 265 361 300 q 387 184 387 230 z "},"t":{"ha":304,"x_min":29,"x_max":286,"o":"m 233 46 q 286 54 263 46 l 286 0 q 210 -14 256 -14 q 96 157 96 -14 l 96 679 l 29 679 l 29 717 l 94 736 l 115 911 l 160 911 l 160 736 l 277 736 l 277 679 l 160 679 l 160 175 q 176 73 160 100 q 233 46 193 46 z "},"u":{"ha":590,"x_min":96,"x_max":492,"o":"m 160 736 l 160 256 q 186 96 160 146 q 267 46 212 46 q 389 114 350 46 q 428 332 428 181 l 428 736 l 492 736 l 492 0 l 437 0 l 429 103 l 424 103 q 358 17 400 47 q 267 -14 316 -14 q 137 50 178 -14 q 96 256 96 113 l 96 736 l 160 736 z "},"v":{"ha":443,"x_min":7,"x_max":436,"o":"m 180 0 l 7 736 l 72 736 l 182 262 q 218 83 201 180 l 224 83 q 237 162 229 119 q 371 736 246 205 l 436 736 l 257 0 l 180 0 z "},"w":{"ha":762,"x_min":14,"x_max":749,"o":"m 507 0 l 406 498 q 403 510 404 504 q 382 640 402 516 l 380 640 l 371 583 l 355 498 l 250 0 l 174 0 l 14 736 l 78 736 l 170 307 l 212 83 l 216 83 q 256 309 229 180 l 347 736 l 415 736 l 507 307 q 546 83 518 259 l 550 83 q 570 196 552 106 q 685 736 588 286 l 749 736 l 583 0 l 507 0 z "},"x":{"ha":458,"x_min":24,"x_max":435,"o":"m 199 382 l 37 736 l 107 736 l 231 437 l 359 736 l 427 736 l 262 374 l 435 0 l 367 0 l 229 318 l 90 0 l 24 0 l 199 382 z "},"y":{"ha":443,"x_min":-1,"x_max":436,"o":"m 191 1 l 7 736 l 72 736 l 183 277 q 221 90 203 194 l 227 90 q 262 278 239 180 l 371 736 l 436 736 l 221 -139 q 159 -285 197 -236 q 57 -334 121 -334 q -1 -322 31 -334 l -1 -264 q 52 -273 26 -273 q 116 -238 92 -273 q 158 -126 140 -203 l 191 1 z "},"z":{"ha":367,"x_min":40,"x_max":335,"o":"m 335 0 l 40 0 l 40 52 l 257 679 l 54 679 l 54 736 l 325 736 l 325 684 l 109 57 l 335 57 l 335 0 z "},"{":{"ha":500,"x_min":74,"x_max":429,"o":"m 74 410 q 156 423 126 410 q 200 466 186 437 q 214 555 214 494 l 214 775 q 271 932 214 876 q 429 991 328 989 l 429 937 q 317 897 353 936 q 281 778 281 859 l 281 564 q 250 442 281 481 q 149 389 219 402 l 149 383 q 251 330 220 370 q 281 208 281 290 l 281 -5 q 317 -125 281 -86 q 429 -165 353 -164 l 429 -220 q 270 -159 326 -217 q 214 -3 214 -102 l 214 216 q 200 306 214 277 q 157 349 187 335 q 74 363 127 363 l 74 410 z "},"|":{"ha":555,"x_min":245,"x_max":310,"o":"m 310 -334 l 245 -334 l 245 1055 l 310 1055 l 310 -334 z "},"}":{"ha":500,"x_min":71,"x_max":427,"o":"m 427 363 q 343 349 374 363 q 300 307 313 335 q 286 216 286 278 l 286 -3 q 230 -160 286 -102 q 71 -220 173 -217 l 71 -165 q 183 -125 146 -164 q 220 -5 220 -86 l 220 208 q 250 330 220 290 q 351 383 280 370 l 351 389 q 251 442 281 402 q 220 564 220 481 l 220 778 q 183 897 220 859 q 71 937 146 936 l 71 991 q 229 932 172 989 q 286 775 286 875 l 286 555 q 300 466 286 494 q 343 424 313 437 q 427 410 374 410 l 427 363 z "},"~":{"ha":555,"x_min":40,"x_max":515,"o":"m 164 501 q 103 479 136 501 q 40 419 69 457 l 40 486 q 165 558 91 558 q 216 552 192 558 q 290 518 241 545 q 347 491 323 499 q 393 482 370 482 q 458 504 427 482 q 515 561 490 526 l 515 494 q 393 424 466 424 q 337 431 360 424 q 267 464 313 438 q 206 494 227 486 q 164 501 186 501 z "}," ":{"ha":361,"x_min":0,"x_max":0,"o":""},"¡":{"ha":306,"x_min":100,"x_max":205,"o":"m 195 -265 l 110 -265 l 134 478 l 171 478 l 195 -265 m 100 665 q 153 737 100 737 q 190 721 174 737 q 205 665 205 704 q 190 609 205 625 q 153 593 174 593 q 100 665 100 593 z "},"¢":{"ha":555,"x_min":114,"x_max":452,"o":"m 297 -14 l 297 131 q 160 242 205 146 q 114 505 114 338 q 159 771 114 674 q 297 888 205 869 l 297 1006 l 353 1006 l 353 892 q 452 867 412 888 l 427 808 q 343 828 379 828 q 220 745 258 828 q 182 507 182 663 q 343 189 182 189 q 447 211 391 189 l 447 154 q 353 127 412 134 l 353 -14 l 297 -14 z "},"£":{"ha":555,"x_min":54,"x_max":503,"o":"m 343 1006 q 503 946 434 1006 l 465 895 q 402 934 429 924 q 342 945 375 945 q 254 900 281 945 q 228 760 228 856 l 228 521 l 397 521 l 397 463 l 228 463 l 228 268 q 146 64 228 123 l 500 64 l 500 0 l 62 0 l 62 56 q 135 131 109 75 q 161 267 161 186 l 161 463 l 54 463 l 54 521 l 161 521 l 161 761 q 205 945 161 885 q 343 1006 249 1006 z "},"¤":{"ha":770,"x_min":85,"x_max":684,"o":"m 118 490 q 176 657 118 583 l 85 750 l 123 789 l 215 696 q 385 757 289 757 q 551 697 479 757 l 643 789 l 684 750 l 591 659 q 652 490 652 585 q 591 322 652 395 l 684 229 l 644 191 l 551 282 q 385 224 479 224 q 215 283 288 224 l 125 192 l 86 232 l 176 322 q 118 490 118 397 m 171 490 q 233 339 171 401 q 385 277 294 277 q 537 339 475 277 q 600 490 600 401 q 572 597 600 548 q 493 676 543 647 q 385 705 442 705 q 277 676 327 705 q 199 598 227 648 q 171 490 171 549 z "},"¥":{"ha":555,"x_min":72,"x_max":482,"o":"m 225 444 l 72 991 l 138 991 l 278 472 l 415 991 l 482 991 l 328 444 l 461 444 l 461 389 l 311 389 l 311 253 l 461 253 l 461 197 l 311 197 l 311 0 l 241 0 l 241 197 l 96 197 l 96 253 l 241 253 l 241 387 l 240 389 l 96 389 l 96 444 l 225 444 z "},"¦":{"ha":555,"x_min":245,"x_max":310,"o":"m 310 514 l 245 514 l 245 1055 l 310 1055 l 310 514 m 310 -334 l 245 -334 l 245 208 l 310 208 l 310 -334 z "},"§":{"ha":473,"x_min":56,"x_max":407,"o":"m 69 884 q 122 1008 69 960 q 256 1055 175 1055 q 324 1048 296 1055 q 395 1018 352 1042 l 368 968 q 309 995 334 988 q 253 1002 283 1002 q 165 971 198 1002 q 132 892 132 941 q 155 819 132 848 q 253 746 178 789 q 353 678 327 703 q 393 623 380 653 q 407 551 407 593 q 385 460 407 503 q 326 396 362 418 q 389 327 370 362 q 407 250 407 292 q 353 117 407 167 q 208 66 299 66 q 56 104 115 66 l 56 172 q 123 135 83 149 q 207 122 163 122 q 306 157 268 122 q 343 245 343 193 q 321 318 343 289 q 231 389 298 348 l 167 426 q 83 496 111 458 q 56 582 56 534 q 82 676 56 637 q 155 736 109 716 q 69 884 69 796 m 343 547 q 332 605 343 581 q 295 649 320 629 q 203 705 269 669 q 139 661 160 692 q 118 590 118 630 q 154 510 118 546 q 281 431 190 474 q 343 547 343 467 z "},"¨":{"ha":764,"x_min":236,"x_max":528,"o":"m 236 942 q 249 984 236 971 q 279 997 262 997 q 308 984 295 997 q 321 942 321 971 q 308 899 321 912 q 279 885 295 885 q 249 899 262 885 q 236 942 236 912 m 443 942 q 456 984 443 971 q 485 997 469 997 q 515 984 502 997 q 528 942 528 971 q 515 899 528 912 q 485 885 502 885 q 456 899 469 885 q 443 942 443 912 z "},"©":{"ha":1156,"x_min":68,"x_max":1088,"o":"m 608 741 q 457 676 512 741 q 403 497 403 612 q 453 311 403 371 q 603 250 504 250 q 737 279 660 250 l 737 220 q 596 189 668 189 q 400 267 469 189 q 332 492 332 345 q 407 717 332 633 q 608 802 482 802 q 762 766 689 802 l 737 710 q 608 741 671 741 m 68 496 q 136 750 68 631 q 322 937 203 869 q 578 1006 441 1006 q 832 938 713 1006 q 1019 751 951 870 q 1088 496 1088 633 q 1022 245 1088 362 q 838 57 956 127 q 578 -14 719 -14 q 319 57 437 -14 q 134 244 200 127 q 68 496 68 361 m 131 496 q 191 272 131 375 q 354 109 251 170 q 578 49 457 49 q 801 109 699 49 q 964 272 904 169 q 1025 496 1025 375 q 967 716 1025 614 q 805 881 909 819 q 578 943 701 943 q 355 883 458 943 q 191 719 252 823 q 131 496 131 614 z "},"ª":{"ha":392,"x_min":39,"x_max":314,"o":"m 275 554 l 265 611 l 260 611 q 143 546 213 546 q 68 579 98 546 q 39 671 39 613 q 76 766 39 732 q 196 807 113 800 l 258 812 l 258 861 q 242 933 258 911 q 187 956 226 956 q 97 929 145 956 l 78 972 q 193 1003 133 1003 q 286 969 258 1003 q 314 863 314 935 l 314 554 l 275 554 m 97 669 q 161 593 97 593 q 233 628 208 593 q 258 725 258 663 l 258 770 l 216 765 q 124 738 152 759 q 97 669 97 716 z "},"«":{"ha":581,"x_min":56,"x_max":525,"o":"m 56 367 l 250 615 l 292 591 l 143 358 l 292 125 l 250 100 l 56 349 l 56 367 m 289 367 l 485 615 l 525 591 l 378 358 l 525 125 l 485 100 l 289 349 l 289 367 z "},"¬":{"ha":555,"x_min":40,"x_max":501,"o":"m 501 170 l 446 170 l 446 463 l 40 463 l 40 518 l 501 518 l 501 170 z "},"­":{"ha":350,"x_min":36,"x_max":314,"o":"m 36 340 l 36 410 l 314 410 l 314 340 l 36 340 z "},"®":{"ha":1156,"x_min":68,"x_max":1088,"o":"m 481 496 l 557 496 q 654 527 618 496 q 689 619 689 559 q 555 736 689 736 l 481 736 l 481 496 m 760 623 q 660 460 760 504 l 794 197 l 717 197 l 599 441 l 481 441 l 481 197 l 412 197 l 412 794 l 555 794 q 706 752 652 794 q 760 623 760 710 m 68 496 q 136 750 68 631 q 322 937 203 869 q 578 1006 441 1006 q 832 938 713 1006 q 1019 751 951 870 q 1088 496 1088 633 q 1022 245 1088 362 q 838 57 956 127 q 578 -14 719 -14 q 319 57 437 -14 q 134 244 200 127 q 68 496 68 361 m 131 496 q 191 272 131 375 q 354 109 251 170 q 578 49 457 49 q 801 109 699 49 q 964 272 904 169 q 1025 496 1025 375 q 967 716 1025 614 q 805 881 909 819 q 578 943 701 943 q 355 883 458 943 q 191 719 252 823 q 131 496 131 614 z "},"¯":{"ha":571,"x_min":-5,"x_max":576,"o":"m 576 1055 l -5 1055 l -5 1111 l 576 1111 l 576 1055 z "},"°":{"ha":595,"x_min":94,"x_max":500,"o":"m 94 803 q 153 949 94 892 q 297 1006 212 1006 q 441 949 382 1006 q 500 803 500 892 q 441 657 500 713 q 297 600 382 600 q 152 656 209 600 q 94 803 94 713 m 155 803 q 197 699 155 741 q 297 656 238 656 q 397 698 355 656 q 439 803 439 740 q 398 908 439 865 q 297 950 357 950 q 196 907 236 950 q 155 803 155 863 z "},"±":{"ha":555,"x_min":40,"x_max":515,"o":"m 250 463 l 40 463 l 40 518 l 250 518 l 250 812 l 306 812 l 306 518 l 515 518 l 515 463 l 306 463 l 306 170 l 250 170 l 250 463 m 40 0 l 40 56 l 515 56 l 515 0 l 40 0 z "},"²":{"ha":416,"x_min":33,"x_max":353,"o":"m 353 397 l 33 397 l 33 450 l 154 602 q 233 706 208 668 q 269 775 258 745 q 279 848 279 805 q 254 920 279 893 q 183 947 229 947 q 72 892 123 947 l 35 933 q 184 1006 98 1006 q 301 963 259 1006 q 343 848 343 921 q 317 737 343 789 q 200 572 292 684 l 102 453 l 353 453 l 353 397 z "},"³":{"ha":416,"x_min":32,"x_max":357,"o":"m 338 851 q 313 766 338 802 q 244 714 288 730 l 244 708 q 357 555 357 677 q 306 433 357 481 q 170 386 254 386 q 36 415 102 386 l 36 479 q 171 444 100 444 q 264 475 235 444 q 293 555 293 505 q 258 649 293 616 q 154 681 223 681 l 113 681 l 113 736 l 157 736 q 245 768 214 736 q 277 854 277 801 q 250 924 277 899 q 175 949 223 949 q 68 900 118 949 l 32 946 q 180 1007 99 1007 q 297 965 256 1007 q 338 851 338 924 z "},"´":{"ha":764,"x_min":294,"x_max":509,"o":"m 294 842 l 294 856 q 424 1064 380 968 l 509 1064 l 509 1053 q 428 943 482 1005 q 326 842 374 882 l 294 842 z "},"µ":{"ha":593,"x_min":98,"x_max":494,"o":"m 163 736 l 163 239 q 269 46 163 46 q 392 114 353 46 q 431 332 431 181 l 431 736 l 494 736 l 494 0 l 440 0 l 432 103 l 427 103 q 362 17 404 48 q 275 -14 321 -14 q 163 58 195 -14 l 157 58 q 163 -66 163 -23 l 163 -334 l 98 -334 l 98 736 l 163 736 z "},"¶":{"ha":656,"x_min":102,"x_max":521,"o":"m 521 -176 l 457 -176 l 457 990 l 358 990 l 358 -176 l 294 -176 l 294 379 q 248 367 274 367 q 137 450 172 367 q 102 707 102 534 q 144 967 102 880 q 281 1055 187 1055 l 521 1055 l 521 -176 z "},"·":{"ha":286,"x_min":90,"x_max":196,"o":"m 90 489 q 143 561 90 561 q 196 489 196 561 q 180 433 196 450 q 143 416 165 416 q 90 489 90 416 z "},"¸":{"ha":315,"x_min":40,"x_max":257,"o":"m 257 -197 q 215 -299 257 -265 q 98 -334 172 -334 q 40 -326 56 -334 l 40 -273 q 93 -281 61 -281 q 171 -258 146 -281 q 196 -199 196 -235 q 166 -137 196 -158 q 83 -109 136 -117 l 132 0 l 183 0 l 149 -78 q 257 -197 257 -104 z "},"¹":{"ha":416,"x_min":56,"x_max":269,"o":"m 269 397 l 211 397 l 211 814 q 215 929 211 872 q 178 896 193 908 q 89 831 163 884 l 56 875 l 216 991 l 269 991 l 269 397 z "},"º":{"ha":419,"x_min":47,"x_max":372,"o":"m 372 775 q 331 605 372 663 q 211 546 290 546 q 89 605 130 546 q 47 775 47 663 q 91 943 47 884 q 211 1003 134 1003 q 330 947 288 1003 q 372 775 372 891 m 109 775 q 133 638 109 681 q 210 596 157 596 q 288 638 265 596 q 311 775 311 681 q 287 911 311 869 q 210 953 263 953 q 136 910 163 953 q 109 775 109 868 z "},"»":{"ha":581,"x_min":56,"x_max":525,"o":"m 525 349 l 330 100 l 289 125 l 437 358 l 289 591 l 330 615 l 525 367 l 525 349 m 292 349 l 96 100 l 56 125 l 203 358 l 56 591 l 96 615 l 292 367 l 292 349 z "},"¼":{"ha":970,"x_min":35,"x_max":884,"o":"m 884 142 l 817 142 l 817 1 l 758 1 l 758 142 l 532 142 l 532 186 l 762 599 l 817 599 l 817 198 l 884 198 l 884 142 m 758 198 l 758 389 q 761 505 758 472 q 733 446 758 496 q 600 198 708 395 l 758 198 m 249 397 l 191 397 l 191 814 q 195 929 191 872 q 157 896 172 908 q 68 831 142 884 l 35 875 l 196 991 l 249 991 l 249 397 m 770 991 l 250 0 l 187 0 l 708 991 l 770 991 z "},"½":{"ha":970,"x_min":35,"x_max":905,"o":"m 905 1 l 586 1 l 586 54 l 707 205 q 786 310 760 271 q 822 378 811 348 q 832 452 832 408 q 807 524 832 496 q 736 551 781 551 q 625 495 676 551 l 587 536 q 737 609 651 609 q 854 567 812 609 q 896 452 896 524 q 870 340 896 393 q 753 176 844 288 l 654 56 l 905 56 l 905 1 m 249 397 l 191 397 l 191 814 q 195 929 191 872 q 157 896 172 908 q 68 831 142 884 l 35 875 l 196 991 l 249 991 l 249 397 m 754 991 l 233 0 l 171 0 l 692 991 l 754 991 z "},"¾":{"ha":970,"x_min":32,"x_max":911,"o":"m 911 142 l 843 142 l 843 1 l 785 1 l 785 142 l 558 142 l 558 186 l 789 599 l 843 599 l 843 198 l 911 198 l 911 142 m 785 198 l 785 389 q 787 505 785 472 q 759 446 784 496 q 627 198 734 395 l 785 198 m 338 851 q 313 766 338 802 q 244 714 288 730 l 244 708 q 357 555 357 677 q 306 433 357 481 q 170 386 254 386 q 36 415 102 386 l 36 479 q 171 444 100 444 q 264 475 235 444 q 293 555 293 505 q 258 649 293 616 q 154 681 223 681 l 113 681 l 113 736 l 157 736 q 245 768 214 736 q 277 854 277 801 q 250 924 277 899 q 175 949 223 949 q 68 900 118 949 l 32 946 q 180 1007 99 1007 q 297 965 256 1007 q 338 851 338 924 m 798 991 l 277 0 l 215 0 l 736 991 l 798 991 z "},"¿":{"ha":392,"x_min":32,"x_max":368,"o":"m 262 478 l 262 443 q 248 315 262 365 q 196 207 234 264 q 134 102 150 137 q 109 29 117 66 q 100 -56 100 -9 q 131 -176 100 -134 q 215 -218 162 -218 q 281 -208 254 -218 q 336 -178 308 -197 l 368 -229 q 215 -279 299 -279 q 79 -222 125 -279 q 32 -60 32 -164 q 40 30 32 -8 q 65 106 47 68 q 140 232 83 144 q 196 339 180 294 q 211 452 211 384 l 211 478 l 262 478 m 286 665 q 233 593 286 593 q 196 609 212 593 q 180 665 180 625 q 196 721 180 704 q 233 737 212 737 q 286 665 286 737 z "},"À":{"ha":551,"x_min":0,"x_max":551,"o":"m 484 0 l 396 359 l 155 359 l 69 0 l 0 0 l 239 991 l 307 991 l 551 0 l 484 0 m 380 427 l 293 796 q 272 914 279 859 q 253 796 266 855 l 168 427 l 380 427 m 281 1071 q 180 1171 237 1107 q 99 1282 123 1236 l 99 1293 l 184 1293 q 240 1190 202 1251 q 313 1085 277 1130 l 313 1071 l 281 1071 z "},"Á":{"ha":551,"x_min":0,"x_max":551,"o":"m 484 0 l 396 359 l 155 359 l 69 0 l 0 0 l 239 991 l 307 991 l 551 0 l 484 0 m 380 427 l 293 796 q 272 914 279 859 q 253 796 266 855 l 168 427 l 380 427 m 230 1071 l 230 1085 q 359 1293 316 1198 l 444 1293 l 444 1282 q 364 1173 418 1234 q 262 1071 310 1111 l 230 1071 z "},"Â":{"ha":551,"x_min":0,"x_max":551,"o":"m 484 0 l 396 359 l 155 359 l 69 0 l 0 0 l 239 991 l 307 991 l 551 0 l 484 0 m 380 427 l 293 796 q 272 914 279 859 q 253 796 266 855 l 168 427 l 380 427 m 401 1071 q 339 1139 379 1092 l 273 1215 q 205 1138 239 1177 q 142 1071 171 1098 l 113 1071 l 113 1084 q 239 1293 195 1198 l 304 1293 q 357 1195 320 1256 q 433 1084 394 1135 l 433 1071 l 401 1071 z "},"Ã":{"ha":551,"x_min":0,"x_max":551,"o":"m 484 0 l 396 359 l 155 359 l 69 0 l 0 0 l 239 991 l 307 991 l 551 0 l 484 0 m 380 427 l 293 796 q 272 914 279 859 q 253 796 266 855 l 168 427 l 380 427 m 357 1072 q 311 1086 334 1072 q 267 1115 288 1099 q 227 1145 245 1131 q 193 1158 208 1158 q 156 1134 171 1158 q 136 1071 142 1109 l 85 1071 q 121 1175 94 1137 q 198 1214 149 1214 q 244 1200 222 1214 q 287 1171 267 1187 q 327 1141 308 1155 q 362 1128 345 1128 q 398 1152 386 1128 q 416 1215 410 1177 l 466 1215 q 431 1109 460 1147 q 357 1072 403 1072 z "},"Ä":{"ha":551,"x_min":0,"x_max":551,"o":"m 484 0 l 396 359 l 155 359 l 69 0 l 0 0 l 239 991 l 307 991 l 551 0 l 484 0 m 380 427 l 293 796 q 272 914 279 859 q 253 796 266 855 l 168 427 l 380 427 m 130 1171 q 143 1213 130 1200 q 173 1226 156 1226 q 201 1213 189 1226 q 214 1171 214 1200 q 201 1128 214 1141 q 173 1114 189 1114 q 143 1128 156 1114 q 130 1171 130 1141 m 336 1171 q 350 1213 336 1200 q 378 1226 363 1226 q 408 1213 395 1226 q 421 1171 421 1200 q 408 1128 421 1141 q 378 1114 395 1114 q 350 1128 363 1114 q 336 1171 336 1141 z "},"Å":{"ha":551,"x_min":0,"x_max":551,"o":"m 484 0 l 396 359 l 155 359 l 69 0 l 0 0 l 239 991 l 307 991 l 551 0 l 484 0 m 380 427 l 293 796 q 272 914 279 859 q 253 796 266 855 l 168 427 l 380 427 m 410 1078 q 373 983 410 1017 q 275 948 336 948 q 176 982 212 948 q 140 1075 140 1017 q 176 1167 140 1133 q 275 1201 212 1201 q 372 1167 334 1201 q 410 1078 410 1134 m 357 1075 q 336 1132 357 1109 q 275 1154 315 1154 q 215 1132 238 1154 q 193 1075 193 1109 q 213 1017 193 1039 q 275 996 234 996 q 334 1017 311 996 q 357 1075 357 1039 z "},"Æ":{"ha":782,"x_min":0,"x_max":715,"o":"m 715 0 l 355 0 l 355 359 l 174 359 l 71 0 l 0 0 l 294 991 l 715 991 l 715 926 l 422 926 l 422 551 l 699 551 l 699 488 l 422 488 l 422 64 l 715 64 l 715 0 m 192 427 l 355 427 l 355 925 l 336 925 l 192 427 z "},"Ç":{"ha":583,"x_min":75,"x_max":549,"o":"m 389 943 q 211 825 277 943 q 144 497 144 707 q 175 260 144 361 q 262 104 205 159 q 395 50 319 50 q 528 78 472 50 l 528 17 q 389 -14 475 -14 q 223 47 294 -14 q 114 224 153 109 q 75 498 75 340 q 160 871 75 736 q 390 1007 244 1007 q 549 965 481 1007 l 518 907 q 389 943 461 943 m 469 -197 q 427 -299 469 -265 q 311 -334 385 -334 q 252 -326 269 -334 l 252 -273 q 305 -281 273 -281 q 383 -258 358 -281 q 408 -199 408 -235 q 378 -137 408 -158 q 296 -109 349 -117 l 345 0 l 395 0 l 361 -78 q 469 -197 469 -104 z "},"È":{"ha":534,"x_min":109,"x_max":468,"o":"m 468 0 l 109 0 l 109 991 l 468 991 l 468 928 l 175 928 l 175 551 l 452 551 l 452 488 l 175 488 l 175 64 l 468 64 l 468 0 m 317 1071 q 216 1171 273 1107 q 135 1282 159 1236 l 135 1293 l 220 1293 q 276 1190 238 1251 q 349 1085 313 1130 l 349 1071 l 317 1071 z "},"É":{"ha":534,"x_min":109,"x_max":468,"o":"m 468 0 l 109 0 l 109 991 l 468 991 l 468 928 l 175 928 l 175 551 l 452 551 l 452 488 l 175 488 l 175 64 l 468 64 l 468 0 m 220 1071 l 220 1085 q 349 1293 306 1198 l 434 1293 l 434 1282 q 354 1173 408 1234 q 252 1071 300 1111 l 220 1071 z "},"Ê":{"ha":534,"x_min":109,"x_max":468,"o":"m 468 0 l 109 0 l 109 991 l 468 991 l 468 928 l 175 928 l 175 551 l 452 551 l 452 488 l 175 488 l 175 64 l 468 64 l 468 0 m 410 1071 q 349 1139 389 1092 l 283 1215 q 215 1138 249 1177 q 152 1071 180 1098 l 123 1071 l 123 1084 q 249 1293 205 1198 l 313 1293 q 367 1195 330 1256 q 442 1084 404 1135 l 442 1071 l 410 1071 z "},"Ë":{"ha":534,"x_min":109,"x_max":468,"o":"m 468 0 l 109 0 l 109 991 l 468 991 l 468 928 l 175 928 l 175 551 l 452 551 l 452 488 l 175 488 l 175 64 l 468 64 l 468 0 m 137 1171 q 150 1213 137 1200 q 180 1226 163 1226 q 209 1213 196 1226 q 222 1171 222 1200 q 209 1128 222 1141 q 180 1114 196 1114 q 150 1128 163 1114 q 137 1171 137 1141 m 344 1171 q 357 1213 344 1200 q 386 1226 370 1226 q 416 1213 403 1226 q 429 1171 429 1200 q 416 1128 429 1141 q 386 1114 403 1114 q 357 1128 370 1114 q 344 1171 344 1141 z "},"Ð":{"ha":675,"x_min":41,"x_max":600,"o":"m 600 505 q 285 0 600 0 l 109 0 l 109 475 l 41 475 l 41 536 l 109 536 l 109 991 l 289 991 q 521 868 442 991 q 600 505 600 744 m 530 501 q 469 821 530 711 q 286 930 407 930 l 175 930 l 175 536 l 328 536 l 328 475 l 175 475 l 175 61 l 281 61 q 470 174 410 61 q 530 501 530 286 z "},"Ñ":{"ha":739,"x_min":109,"x_max":631,"o":"m 631 0 l 546 0 l 171 889 l 165 889 q 174 711 174 797 l 174 0 l 109 0 l 109 991 l 195 991 l 567 113 l 571 113 q 566 298 566 224 l 566 991 l 631 991 l 631 0 m 465 1072 q 418 1086 441 1072 q 374 1115 395 1099 q 334 1145 353 1131 q 300 1158 315 1158 q 263 1134 278 1158 q 243 1071 249 1109 l 193 1071 q 229 1175 201 1137 q 305 1214 256 1214 q 351 1200 329 1214 q 394 1171 374 1187 q 434 1141 415 1155 q 469 1128 452 1128 q 505 1152 493 1128 q 523 1215 517 1177 l 573 1215 q 538 1109 567 1147 q 465 1072 510 1072 z "},"Ò":{"ha":722,"x_min":75,"x_max":647,"o":"m 647 497 q 573 119 647 251 q 361 -14 500 -14 q 148 120 220 -14 q 75 498 75 253 q 147 880 75 755 q 363 1006 219 1006 q 574 874 501 1006 q 647 497 647 742 m 144 497 q 200 163 144 276 q 361 50 255 50 q 523 162 467 50 q 578 497 578 274 q 524 830 578 718 q 363 942 469 942 q 199 828 254 942 q 144 497 144 715 m 374 1071 q 273 1171 330 1107 q 192 1282 216 1236 l 192 1293 l 277 1293 q 333 1190 295 1251 q 406 1085 370 1130 l 406 1071 l 374 1071 z "},"Ó":{"ha":722,"x_min":75,"x_max":647,"o":"m 647 497 q 573 119 647 251 q 361 -14 500 -14 q 148 120 220 -14 q 75 498 75 253 q 147 880 75 755 q 363 1006 219 1006 q 574 874 501 1006 q 647 497 647 742 m 144 497 q 200 163 144 276 q 361 50 255 50 q 523 162 467 50 q 578 497 578 274 q 524 830 578 718 q 363 942 469 942 q 199 828 254 942 q 144 497 144 715 m 311 1071 l 311 1085 q 441 1293 397 1198 l 526 1293 l 526 1282 q 445 1173 499 1234 q 343 1071 391 1111 l 311 1071 z "},"Ô":{"ha":722,"x_min":75,"x_max":647,"o":"m 647 497 q 573 119 647 251 q 361 -14 500 -14 q 148 120 220 -14 q 75 498 75 253 q 147 880 75 755 q 363 1006 219 1006 q 574 874 501 1006 q 647 497 647 742 m 144 497 q 200 163 144 276 q 361 50 255 50 q 523 162 467 50 q 578 497 578 274 q 524 830 578 718 q 363 942 469 942 q 199 828 254 942 q 144 497 144 715 m 488 1071 q 427 1139 467 1092 l 361 1215 q 293 1138 327 1177 q 230 1071 258 1098 l 201 1071 l 201 1084 q 327 1293 283 1198 l 391 1293 q 445 1195 408 1256 q 520 1084 481 1135 l 520 1071 l 488 1071 z "},"Õ":{"ha":722,"x_min":75,"x_max":647,"o":"m 647 497 q 573 119 647 251 q 361 -14 500 -14 q 148 120 220 -14 q 75 498 75 253 q 147 880 75 755 q 363 1006 219 1006 q 574 874 501 1006 q 647 497 647 742 m 144 497 q 200 163 144 276 q 361 50 255 50 q 523 162 467 50 q 578 497 578 274 q 524 830 578 718 q 363 942 469 942 q 199 828 254 942 q 144 497 144 715 m 449 1072 q 402 1086 425 1072 q 358 1115 379 1099 q 318 1145 337 1131 q 284 1158 300 1158 q 248 1134 262 1158 q 227 1071 233 1109 l 177 1071 q 213 1175 185 1137 q 290 1214 241 1214 q 336 1200 313 1214 q 379 1171 358 1187 q 418 1141 399 1155 q 454 1128 437 1128 q 489 1152 477 1128 q 507 1215 501 1177 l 557 1215 q 523 1109 551 1147 q 449 1072 494 1072 z "},"Ö":{"ha":722,"x_min":75,"x_max":647,"o":"m 647 497 q 573 119 647 251 q 361 -14 500 -14 q 148 120 220 -14 q 75 498 75 253 q 147 880 75 755 q 363 1006 219 1006 q 574 874 501 1006 q 647 497 647 742 m 144 497 q 200 163 144 276 q 361 50 255 50 q 523 162 467 50 q 578 497 578 274 q 524 830 578 718 q 363 942 469 942 q 199 828 254 942 q 144 497 144 715 m 221 1171 q 234 1213 221 1200 q 264 1226 248 1226 q 293 1213 280 1226 q 306 1171 306 1200 q 293 1128 306 1141 q 264 1114 280 1114 q 234 1128 248 1114 q 221 1171 221 1141 m 428 1171 q 441 1213 428 1200 q 470 1226 454 1226 q 500 1213 487 1226 q 513 1171 513 1200 q 500 1128 513 1141 q 470 1114 487 1114 q 441 1128 454 1114 q 428 1171 428 1141 z "},"×":{"ha":555,"x_min":40,"x_max":515,"o":"m 237 490 l 41 686 l 81 725 l 277 529 l 475 728 l 515 689 l 317 490 l 511 294 l 472 256 l 277 452 l 79 253 l 40 293 l 237 490 z "},"Ø":{"ha":722,"x_min":65,"x_max":667,"o":"m 647 497 q 573 119 647 251 q 361 -14 500 -14 q 184 64 254 -14 l 121 -64 l 65 -39 l 146 122 q 75 498 75 254 q 147 880 75 755 q 363 1006 219 1006 q 546 917 474 1006 l 611 1046 l 667 1018 l 583 856 q 647 497 647 727 m 144 497 q 184 199 144 306 l 513 848 q 363 942 459 942 q 199 828 254 942 q 144 497 144 715 m 361 50 q 523 162 467 50 q 578 497 578 274 q 545 777 578 667 l 218 129 q 361 50 271 50 z "},"Ù":{"ha":686,"x_min":100,"x_max":586,"o":"m 586 991 l 586 322 q 346 -14 586 -14 q 163 73 226 -14 q 100 322 100 160 l 100 991 l 167 991 l 167 314 q 213 118 167 185 q 346 50 260 50 q 475 118 431 50 q 519 317 519 185 l 519 991 l 586 991 m 370 1071 q 269 1171 326 1107 q 188 1282 212 1236 l 188 1293 l 273 1293 q 329 1190 291 1251 q 402 1085 366 1130 l 402 1071 l 370 1071 z "},"Ú":{"ha":686,"x_min":100,"x_max":586,"o":"m 586 991 l 586 322 q 346 -14 586 -14 q 163 73 226 -14 q 100 322 100 160 l 100 991 l 167 991 l 167 314 q 213 118 167 185 q 346 50 260 50 q 475 118 431 50 q 519 317 519 185 l 519 991 l 586 991 m 287 1071 l 287 1085 q 416 1293 373 1198 l 501 1293 l 501 1282 q 421 1173 475 1234 q 319 1071 367 1111 l 287 1071 z "},"Û":{"ha":686,"x_min":100,"x_max":586,"o":"m 586 991 l 586 322 q 346 -14 586 -14 q 163 73 226 -14 q 100 322 100 160 l 100 991 l 167 991 l 167 314 q 213 118 167 185 q 346 50 260 50 q 475 118 431 50 q 519 317 519 185 l 519 991 l 586 991 m 471 1071 q 410 1139 450 1092 l 344 1215 q 276 1138 310 1177 q 213 1071 241 1098 l 184 1071 l 184 1084 q 310 1293 266 1198 l 374 1293 q 428 1195 391 1256 q 503 1084 465 1135 l 503 1071 l 471 1071 z "},"Ü":{"ha":686,"x_min":100,"x_max":586,"o":"m 586 991 l 586 322 q 346 -14 586 -14 q 163 73 226 -14 q 100 322 100 160 l 100 991 l 167 991 l 167 314 q 213 118 167 185 q 346 50 260 50 q 475 118 431 50 q 519 317 519 185 l 519 991 l 586 991 m 198 1171 q 211 1213 198 1200 q 241 1226 224 1226 q 270 1213 257 1226 q 283 1171 283 1200 q 270 1128 283 1141 q 241 1114 257 1114 q 211 1128 224 1114 q 198 1171 198 1141 m 405 1171 q 418 1213 405 1200 q 447 1226 431 1226 q 477 1213 464 1226 q 490 1171 490 1200 q 477 1128 490 1141 q 447 1114 464 1114 q 418 1128 431 1114 q 405 1171 405 1141 z "},"Ý":{"ha":465,"x_min":0,"x_max":465,"o":"m 233 479 l 395 991 l 465 991 l 265 387 l 265 0 l 199 0 l 199 387 l 0 991 l 71 991 l 233 479 m 184 1071 l 184 1085 q 313 1293 270 1198 l 398 1293 l 398 1282 q 318 1173 372 1234 q 216 1071 264 1111 l 184 1071 z "},"Þ":{"ha":570,"x_min":109,"x_max":524,"o":"m 524 532 q 248 227 524 227 l 175 227 l 175 0 l 109 0 l 109 991 l 175 991 l 175 808 l 244 808 q 456 741 389 808 q 524 532 524 674 m 175 290 l 241 290 q 406 343 357 290 q 456 524 456 395 q 407 692 456 641 q 249 743 359 743 l 175 743 l 175 290 z "},"ß":{"ha":558,"x_min":98,"x_max":510,"o":"m 447 875 q 385 713 447 793 q 338 642 353 672 q 323 585 323 612 q 338 516 323 547 q 399 429 353 486 l 439 382 q 492 297 475 340 q 510 201 510 253 q 462 43 510 100 q 334 -14 414 -14 q 269 -4 301 -14 q 215 22 236 5 l 215 90 q 267 60 239 73 q 334 47 295 47 q 415 87 387 47 q 444 197 444 127 q 429 277 444 239 q 357 382 413 315 q 283 493 304 446 q 261 585 261 540 q 275 650 261 619 q 321 722 288 680 q 367 798 353 761 q 382 878 382 835 q 282 1002 382 1002 q 194 956 224 1002 q 163 823 163 910 l 163 0 l 98 0 l 98 817 q 148 998 98 933 q 286 1063 197 1063 q 406 1015 366 1063 q 447 875 447 966 z "},"à":{"ha":532,"x_min":53,"x_max":436,"o":"m 383 0 l 375 103 l 372 103 q 212 -14 319 -14 q 97 44 140 -14 q 53 197 53 101 q 116 364 53 302 q 293 431 179 425 l 372 435 l 372 496 q 347 646 372 599 q 261 693 321 693 q 132 652 198 693 l 104 703 q 265 750 181 750 q 396 693 356 750 q 436 501 436 635 l 436 0 l 383 0 m 227 41 q 334 110 296 41 q 372 302 372 178 l 372 379 l 296 375 q 164 326 207 370 q 121 196 121 281 q 149 79 121 116 q 227 41 178 41 m 292 842 q 192 942 248 878 q 111 1053 135 1006 l 111 1064 l 195 1064 q 251 961 214 1021 q 325 856 289 901 l 325 842 l 292 842 z "},"á":{"ha":532,"x_min":53,"x_max":436,"o":"m 383 0 l 375 103 l 372 103 q 212 -14 319 -14 q 97 44 140 -14 q 53 197 53 101 q 116 364 53 302 q 293 431 179 425 l 372 435 l 372 496 q 347 646 372 599 q 261 693 321 693 q 132 652 198 693 l 104 703 q 265 750 181 750 q 396 693 356 750 q 436 501 436 635 l 436 0 l 383 0 m 227 41 q 334 110 296 41 q 372 302 372 178 l 372 379 l 296 375 q 164 326 207 370 q 121 196 121 281 q 149 79 121 116 q 227 41 178 41 m 197 842 l 197 856 q 326 1064 283 968 l 411 1064 l 411 1053 q 331 943 385 1005 q 229 842 277 882 l 197 842 z "},"â":{"ha":532,"x_min":53,"x_max":436,"o":"m 383 0 l 375 103 l 372 103 q 212 -14 319 -14 q 97 44 140 -14 q 53 197 53 101 q 116 364 53 302 q 293 431 179 425 l 372 435 l 372 496 q 347 646 372 599 q 261 693 321 693 q 132 652 198 693 l 104 703 q 265 750 181 750 q 396 693 356 750 q 436 501 436 635 l 436 0 l 383 0 m 227 41 q 334 110 296 41 q 372 302 372 178 l 372 379 l 296 375 q 164 326 207 370 q 121 196 121 281 q 149 79 121 116 q 227 41 178 41 m 389 843 q 328 911 368 864 l 262 987 q 194 910 228 949 q 131 843 159 870 l 102 843 l 102 856 q 228 1065 184 970 l 292 1065 q 346 967 309 1028 q 421 856 382 907 l 421 843 l 389 843 z "},"ã":{"ha":532,"x_min":53,"x_max":459,"o":"m 383 0 l 375 103 l 372 103 q 212 -14 319 -14 q 97 44 140 -14 q 53 197 53 101 q 116 364 53 302 q 293 431 179 425 l 372 435 l 372 496 q 347 646 372 599 q 261 693 321 693 q 132 652 198 693 l 104 703 q 265 750 181 750 q 396 693 356 750 q 436 501 436 635 l 436 0 l 383 0 m 227 41 q 334 110 296 41 q 372 302 372 178 l 372 379 l 296 375 q 164 326 207 370 q 121 196 121 281 q 149 79 121 116 q 227 41 178 41 m 351 843 q 304 857 327 843 q 260 886 281 870 q 220 916 239 902 q 186 929 201 929 q 150 905 164 929 q 129 842 135 880 l 79 842 q 115 946 87 907 q 191 985 142 985 q 237 971 215 985 q 280 942 260 958 q 320 912 301 926 q 355 899 338 899 q 391 923 379 899 q 409 986 403 947 l 459 986 q 425 880 453 918 q 351 843 396 843 z "},"ä":{"ha":532,"x_min":53,"x_max":436,"o":"m 383 0 l 375 103 l 372 103 q 212 -14 319 -14 q 97 44 140 -14 q 53 197 53 101 q 116 364 53 302 q 293 431 179 425 l 372 435 l 372 496 q 347 646 372 599 q 261 693 321 693 q 132 652 198 693 l 104 703 q 265 750 181 750 q 396 693 356 750 q 436 501 436 635 l 436 0 l 383 0 m 227 41 q 334 110 296 41 q 372 302 372 178 l 372 379 l 296 375 q 164 326 207 370 q 121 196 121 281 q 149 79 121 116 q 227 41 178 41 m 112 942 q 125 984 112 971 q 155 997 138 997 q 184 984 171 997 q 197 942 197 971 q 184 899 197 912 q 155 885 171 885 q 125 899 138 885 q 112 942 112 912 m 319 942 q 332 984 319 971 q 361 997 345 997 q 391 984 378 997 q 404 942 404 971 q 391 899 404 912 q 361 885 378 885 q 332 899 345 885 q 319 942 319 912 z "},"å":{"ha":532,"x_min":53,"x_max":436,"o":"m 383 0 l 375 103 l 372 103 q 212 -14 319 -14 q 97 44 140 -14 q 53 197 53 101 q 116 364 53 302 q 293 431 179 425 l 372 435 l 372 496 q 347 646 372 599 q 261 693 321 693 q 132 652 198 693 l 104 703 q 265 750 181 750 q 396 693 356 750 q 436 501 436 635 l 436 0 l 383 0 m 227 41 q 334 110 296 41 q 372 302 372 178 l 372 379 l 296 375 q 164 326 207 370 q 121 196 121 281 q 149 79 121 116 q 227 41 178 41 m 395 978 q 359 883 395 918 q 260 848 322 848 q 161 883 197 848 q 125 975 125 917 q 162 1067 125 1033 q 260 1101 198 1101 q 357 1068 319 1101 q 395 978 395 1034 m 342 975 q 321 1032 342 1010 q 260 1054 300 1054 q 201 1032 224 1054 q 178 975 178 1010 q 199 918 178 939 q 260 896 220 896 q 320 918 297 896 q 342 975 342 939 z "},"æ":{"ha":854,"x_min":53,"x_max":789,"o":"m 227 41 q 334 110 296 41 q 372 302 372 178 l 372 379 l 296 375 q 163 328 206 370 q 121 196 121 286 q 149 79 121 116 q 227 41 178 41 m 587 690 q 441 427 456 690 l 725 427 l 725 435 q 688 621 725 551 q 587 690 650 690 m 261 693 q 132 652 198 693 l 104 703 q 174 736 136 722 q 264 750 212 750 q 419 633 385 750 q 589 750 476 750 q 735 664 682 750 q 789 428 789 577 l 789 368 l 440 368 q 615 45 446 45 q 689 57 649 45 q 765 90 730 68 l 765 31 q 614 -14 697 -14 q 488 29 543 -14 q 407 150 433 72 q 328 24 376 62 q 212 -14 279 -14 q 97 44 140 -14 q 53 197 53 101 q 116 364 53 302 q 293 431 179 425 l 372 435 l 372 496 q 346 644 372 595 q 261 693 319 693 z "},"ç":{"ha":431,"x_min":65,"x_max":403,"o":"m 288 -14 q 121 82 177 -14 q 65 364 65 178 q 122 651 65 553 q 289 750 178 750 q 403 725 357 750 l 378 668 q 294 689 332 689 q 132 366 132 689 q 294 45 132 45 q 399 66 342 45 l 399 12 q 344 -7 376 0 q 288 -14 311 -14 m 366 -197 q 323 -299 366 -265 q 207 -334 281 -334 q 149 -326 165 -334 l 149 -273 q 201 -281 170 -281 q 279 -258 254 -281 q 304 -199 304 -235 q 275 -137 304 -158 q 192 -109 245 -117 l 241 0 l 292 0 l 257 -78 q 366 -197 366 -104 z "},"è":{"ha":545,"x_min":65,"x_max":479,"o":"m 307 -14 q 128 86 191 -14 q 65 363 65 185 q 121 651 65 551 q 282 750 177 750 q 427 663 374 750 q 479 428 479 576 l 479 368 l 131 368 q 176 127 132 208 q 310 47 220 47 q 456 93 379 47 l 456 31 q 307 -14 385 -14 m 278 692 q 132 427 145 692 l 415 427 q 378 620 415 548 q 278 692 341 692 m 315 842 q 215 942 271 878 q 134 1053 158 1006 l 134 1064 l 218 1064 q 274 961 237 1021 q 348 856 312 901 l 348 842 l 315 842 z "},"é":{"ha":545,"x_min":65,"x_max":479,"o":"m 307 -14 q 128 86 191 -14 q 65 363 65 185 q 121 651 65 551 q 282 750 177 750 q 427 663 374 750 q 479 428 479 576 l 479 368 l 131 368 q 176 127 132 208 q 310 47 220 47 q 456 93 379 47 l 456 31 q 307 -14 385 -14 m 278 692 q 132 427 145 692 l 415 427 q 378 620 415 548 q 278 692 341 692 m 233 842 l 233 856 q 362 1064 319 968 l 447 1064 l 447 1053 q 367 943 420 1005 q 264 842 313 882 l 233 842 z "},"ê":{"ha":545,"x_min":65,"x_max":479,"o":"m 307 -14 q 128 86 191 -14 q 65 363 65 185 q 121 651 65 551 q 282 750 177 750 q 427 663 374 750 q 479 428 479 576 l 479 368 l 131 368 q 176 127 132 208 q 310 47 220 47 q 456 93 379 47 l 456 31 q 307 -14 385 -14 m 278 692 q 132 427 145 692 l 415 427 q 378 620 415 548 q 278 692 341 692 m 408 842 q 346 910 386 863 l 280 986 q 212 908 246 948 q 149 842 178 869 l 120 842 l 120 854 q 246 1064 202 968 l 311 1064 q 364 966 327 1027 q 439 854 401 905 l 439 842 l 408 842 z "},"ë":{"ha":545,"x_min":65,"x_max":479,"o":"m 307 -14 q 128 86 191 -14 q 65 363 65 185 q 121 651 65 551 q 282 750 177 750 q 427 663 374 750 q 479 428 479 576 l 479 368 l 131 368 q 176 127 132 208 q 310 47 220 47 q 456 93 379 47 l 456 31 q 307 -14 385 -14 m 278 692 q 132 427 145 692 l 415 427 q 378 620 415 548 q 278 692 341 692 m 132 942 q 145 984 132 971 q 176 997 159 997 q 204 984 191 997 q 217 942 217 971 q 204 899 217 912 q 176 885 191 885 q 145 899 159 885 q 132 942 132 912 m 339 942 q 352 984 339 971 q 381 997 366 997 q 411 984 398 997 q 424 942 424 971 q 411 899 424 912 q 381 885 398 885 q 352 899 366 885 q 339 942 339 912 z "},"ì":{"ha":261,"x_min":-22,"x_max":193,"o":"m 163 0 l 98 0 l 98 736 l 163 736 l 163 0 m 160 842 q 59 942 116 878 q -22 1053 3 1006 l -22 1064 l 63 1064 q 119 961 81 1021 q 193 856 157 901 l 193 842 l 160 842 z "},"í":{"ha":261,"x_min":77,"x_max":291,"o":"m 163 0 l 98 0 l 98 736 l 163 736 l 163 0 m 77 842 l 77 856 q 206 1064 163 968 l 291 1064 l 291 1053 q 211 943 264 1005 q 109 842 157 882 l 77 842 z "},"î":{"ha":261,"x_min":-28,"x_max":291,"o":"m 163 0 l 98 0 l 98 736 l 163 736 l 163 0 m 259 842 q 197 910 237 863 l 132 986 q 63 908 98 948 q 1 842 29 869 l -28 842 l -28 854 q 98 1064 54 968 l 162 1064 q 215 966 178 1027 q 291 854 252 905 l 291 842 l 259 842 z "},"ï":{"ha":261,"x_min":-14,"x_max":278,"o":"m 163 0 l 98 0 l 98 736 l 163 736 l 163 0 m -14 942 q 0 984 -14 971 q 30 997 13 997 q 58 984 45 997 q 71 942 71 971 q 58 899 71 912 q 30 885 45 885 q 0 899 13 885 q -14 942 -14 912 m 193 942 q 207 984 193 971 q 235 997 220 997 q 265 984 252 997 q 278 942 278 971 q 265 899 278 912 q 235 885 252 885 q 207 899 220 885 q 193 942 193 912 z "},"ð":{"ha":581,"x_min":64,"x_max":517,"o":"m 237 949 q 161 1014 197 987 l 193 1055 q 289 979 243 1024 l 416 1054 l 443 1010 l 325 940 q 517 349 517 720 q 288 -14 517 -14 q 125 78 187 -14 q 64 318 64 170 q 118 562 64 476 q 275 647 173 647 q 429 564 379 647 l 435 564 q 273 909 399 764 l 155 840 l 129 885 l 237 949 m 452 328 q 408 513 452 440 q 293 586 364 586 q 171 517 214 586 q 129 313 129 448 q 173 117 129 190 q 292 45 216 45 q 413 115 374 45 q 452 328 452 184 z "},"ñ":{"ha":590,"x_min":98,"x_max":494,"o":"m 431 0 l 431 507 q 322 690 431 690 q 201 622 239 690 q 163 404 163 553 l 163 0 l 98 0 l 98 736 l 153 736 l 158 633 l 164 633 q 231 720 187 689 q 323 750 274 750 q 452 693 409 750 q 494 509 494 635 l 494 0 l 431 0 m 384 843 q 337 857 360 843 q 293 886 314 870 q 253 916 272 902 q 219 929 235 929 q 183 905 197 929 q 162 842 168 880 l 112 842 q 148 946 120 907 q 224 985 176 985 q 271 971 248 985 q 314 942 293 958 q 353 912 334 926 q 389 899 372 899 q 424 923 412 899 q 442 986 436 947 l 492 986 q 458 880 486 918 q 384 843 429 843 z "},"ò":{"ha":576,"x_min":64,"x_max":513,"o":"m 513 370 q 454 85 513 184 q 286 -14 395 -14 q 121 85 178 -14 q 64 370 64 184 q 289 750 64 750 q 454 650 395 750 q 513 370 513 551 m 131 370 q 169 129 131 210 q 288 47 207 47 q 446 370 446 47 q 288 689 446 689 q 168 609 205 689 q 131 370 131 529 m 321 842 q 221 942 277 878 q 140 1053 164 1006 l 140 1064 l 224 1064 q 280 961 243 1021 q 354 856 318 901 l 354 842 l 321 842 z "},"ó":{"ha":576,"x_min":64,"x_max":513,"o":"m 513 370 q 454 85 513 184 q 286 -14 395 -14 q 121 85 178 -14 q 64 370 64 184 q 289 750 64 750 q 454 650 395 750 q 513 370 513 551 m 131 370 q 169 129 131 210 q 288 47 207 47 q 446 370 446 47 q 288 689 446 689 q 168 609 205 689 q 131 370 131 529 m 231 842 l 231 856 q 361 1064 317 968 l 446 1064 l 446 1053 q 365 943 419 1005 q 263 842 311 882 l 231 842 z "},"ô":{"ha":576,"x_min":64,"x_max":513,"o":"m 513 370 q 454 85 513 184 q 286 -14 395 -14 q 121 85 178 -14 q 64 370 64 184 q 289 750 64 750 q 454 650 395 750 q 513 370 513 551 m 131 370 q 169 129 131 210 q 288 47 207 47 q 446 370 446 47 q 288 689 446 689 q 168 609 205 689 q 131 370 131 529 m 417 842 q 355 910 395 863 l 290 986 q 221 908 256 948 q 159 842 187 869 l 130 842 l 130 854 q 256 1064 212 968 l 320 1064 q 373 966 336 1027 q 449 854 410 905 l 449 842 l 417 842 z "},"õ":{"ha":576,"x_min":64,"x_max":513,"o":"m 513 370 q 454 85 513 184 q 286 -14 395 -14 q 121 85 178 -14 q 64 370 64 184 q 289 750 64 750 q 454 650 395 750 q 513 370 513 551 m 131 370 q 169 129 131 210 q 288 47 207 47 q 446 370 446 47 q 288 689 446 689 q 168 609 205 689 q 131 370 131 529 m 370 843 q 323 857 346 843 q 279 886 300 870 q 239 916 258 902 q 205 929 220 929 q 169 905 183 929 q 148 842 154 880 l 98 842 q 134 946 106 907 q 210 985 161 985 q 256 971 234 985 q 299 942 279 958 q 339 912 320 926 q 374 899 357 899 q 410 923 398 899 q 428 986 422 947 l 478 986 q 444 880 472 918 q 370 843 415 843 z "},"ö":{"ha":576,"x_min":64,"x_max":513,"o":"m 513 370 q 454 85 513 184 q 286 -14 395 -14 q 121 85 178 -14 q 64 370 64 184 q 289 750 64 750 q 454 650 395 750 q 513 370 513 551 m 131 370 q 169 129 131 210 q 288 47 207 47 q 446 370 446 47 q 288 689 446 689 q 168 609 205 689 q 131 370 131 529 m 142 942 q 156 984 142 971 q 186 997 169 997 q 214 984 201 997 q 227 942 227 971 q 214 899 227 912 q 186 885 201 885 q 156 899 169 885 q 142 942 142 912 m 349 942 q 362 984 349 971 q 391 997 376 997 q 421 984 408 997 q 434 942 434 971 q 421 899 434 912 q 391 885 408 885 q 362 899 376 885 q 349 942 349 912 z "},"÷":{"ha":555,"x_min":40,"x_max":515,"o":"m 515 518 l 515 463 l 40 463 l 40 518 l 515 518 m 225 253 q 278 325 225 325 q 330 253 330 325 q 315 197 330 214 q 278 180 300 180 q 225 253 225 180 m 225 726 q 278 799 225 799 q 330 726 330 799 q 315 671 330 688 q 278 654 300 654 q 225 726 225 654 z "},"ø":{"ha":576,"x_min":46,"x_max":530,"o":"m 46 -69 l 122 85 q 64 370 64 184 q 289 750 64 750 q 422 692 368 750 l 479 807 l 530 779 l 461 637 q 513 370 513 537 q 454 85 513 184 q 286 -14 395 -14 q 161 33 210 -14 l 97 -97 l 46 -69 m 131 370 q 157 157 131 233 l 392 631 q 288 689 354 689 q 168 609 205 689 q 131 370 131 529 m 446 370 q 424 562 446 492 l 192 93 q 288 47 227 47 q 446 370 446 47 z "},"ù":{"ha":590,"x_min":96,"x_max":492,"o":"m 160 736 l 160 256 q 186 96 160 146 q 267 46 212 46 q 389 114 350 46 q 428 332 428 181 l 428 736 l 492 736 l 492 0 l 437 0 l 429 103 l 424 103 q 358 17 400 47 q 267 -14 316 -14 q 137 50 178 -14 q 96 256 96 113 l 96 736 l 160 736 m 314 842 q 213 942 270 878 q 132 1053 157 1006 l 132 1064 l 217 1064 q 273 961 235 1021 q 347 856 311 901 l 347 842 l 314 842 z "},"ú":{"ha":590,"x_min":96,"x_max":492,"o":"m 160 736 l 160 256 q 186 96 160 146 q 267 46 212 46 q 389 114 350 46 q 428 332 428 181 l 428 736 l 492 736 l 492 0 l 437 0 l 429 103 l 424 103 q 358 17 400 47 q 267 -14 316 -14 q 137 50 178 -14 q 96 256 96 113 l 96 736 l 160 736 m 238 842 l 238 856 q 368 1064 324 968 l 452 1064 l 452 1053 q 372 943 426 1005 q 270 842 318 882 l 238 842 z "},"û":{"ha":590,"x_min":96,"x_max":492,"o":"m 160 736 l 160 256 q 186 96 160 146 q 267 46 212 46 q 389 114 350 46 q 428 332 428 181 l 428 736 l 492 736 l 492 0 l 437 0 l 429 103 l 424 103 q 358 17 400 47 q 267 -14 316 -14 q 137 50 178 -14 q 96 256 96 113 l 96 736 l 160 736 m 417 842 q 355 910 395 863 l 290 986 q 221 908 256 948 q 159 842 187 869 l 130 842 l 130 854 q 256 1064 212 968 l 320 1064 q 373 966 336 1027 q 449 854 410 905 l 449 842 l 417 842 z "},"ü":{"ha":590,"x_min":96,"x_max":492,"o":"m 160 736 l 160 256 q 186 96 160 146 q 267 46 212 46 q 389 114 350 46 q 428 332 428 181 l 428 736 l 492 736 l 492 0 l 437 0 l 429 103 l 424 103 q 358 17 400 47 q 267 -14 316 -14 q 137 50 178 -14 q 96 256 96 113 l 96 736 l 160 736 m 148 942 q 161 984 148 971 q 191 997 174 997 q 220 984 207 997 q 233 942 233 971 q 220 899 233 912 q 191 885 207 885 q 161 899 174 885 q 148 942 148 912 m 355 942 q 368 984 355 971 q 397 997 381 997 q 427 984 414 997 q 439 942 439 971 q 427 899 439 912 q 397 885 414 885 q 368 899 381 885 q 355 942 355 912 z "},"ý":{"ha":443,"x_min":-1,"x_max":436,"o":"m 191 1 l 7 736 l 72 736 l 183 277 q 221 90 203 194 l 227 90 q 262 278 239 180 l 371 736 l 436 736 l 221 -139 q 159 -285 197 -236 q 57 -334 121 -334 q -1 -322 31 -334 l -1 -264 q 52 -273 26 -273 q 116 -238 92 -273 q 158 -126 140 -203 l 191 1 m 172 842 l 172 856 q 301 1064 258 968 l 386 1064 l 386 1053 q 306 943 359 1005 q 203 842 252 882 l 172 842 z "},"þ":{"ha":606,"x_min":98,"x_max":542,"o":"m 322 689 q 202 618 241 689 q 163 395 163 547 l 163 374 q 203 124 163 204 q 325 45 243 45 q 436 121 399 45 q 473 370 473 198 q 438 612 473 536 q 322 689 403 689 m 163 635 q 233 720 189 690 q 326 750 276 750 q 542 370 542 750 q 489 86 542 186 q 335 -14 436 -14 q 232 18 278 -14 q 163 102 186 50 l 158 102 l 165 21 l 165 -334 l 98 -334 l 98 1055 l 163 1055 l 163 727 l 160 635 l 163 635 z "},"ÿ":{"ha":443,"x_min":-1,"x_max":436,"o":"m 191 1 l 7 736 l 72 736 l 183 277 q 221 90 203 194 l 227 90 q 262 278 239 180 l 371 736 l 436 736 l 221 -139 q 159 -285 197 -236 q 57 -334 121 -334 q -1 -322 31 -334 l -1 -264 q 52 -273 26 -273 q 116 -238 92 -273 q 158 -126 140 -203 l 191 1 m 79 942 q 92 984 79 971 q 122 997 105 997 q 151 984 138 997 q 163 942 163 971 q 151 899 163 912 q 122 885 138 885 q 92 899 105 885 q 79 942 79 912 m 286 942 q 299 984 286 971 q 328 997 312 997 q 357 984 345 997 q 370 942 370 971 q 357 899 370 912 q 328 885 345 885 q 299 899 312 885 q 286 942 286 912 z "},"Ā":{"ha":551,"x_min":0,"x_max":551,"o":"m 484 0 l 396 359 l 155 359 l 69 0 l 0 0 l 239 991 l 307 991 l 551 0 l 484 0 m 380 427 l 293 796 q 272 914 279 859 q 253 796 266 855 l 168 427 l 380 427 m 123 1133 l 429 1133 l 429 1078 l 123 1078 l 123 1133 z "},"ā":{"ha":532,"x_min":53,"x_max":436,"o":"m 383 0 l 375 103 l 372 103 q 212 -14 319 -14 q 97 44 140 -14 q 53 197 53 101 q 116 364 53 302 q 293 431 179 425 l 372 435 l 372 496 q 347 646 372 599 q 261 693 321 693 q 132 652 198 693 l 104 703 q 265 750 181 750 q 396 693 356 750 q 436 501 436 635 l 436 0 l 383 0 m 227 41 q 334 110 296 41 q 372 302 372 178 l 372 379 l 296 375 q 164 326 207 370 q 121 196 121 281 q 149 79 121 116 q 227 41 178 41 m 119 904 l 425 904 l 425 848 l 119 848 l 119 904 z "},"Ă":{"ha":551,"x_min":0,"x_max":551,"o":"m 484 0 l 396 359 l 155 359 l 69 0 l 0 0 l 239 991 l 307 991 l 551 0 l 484 0 m 380 427 l 293 796 q 272 914 279 859 q 253 796 266 855 l 168 427 l 380 427 m 419 1232 q 377 1116 417 1158 q 267 1074 338 1074 q 124 1232 133 1074 l 170 1232 q 201 1156 175 1182 q 270 1131 227 1131 q 370 1232 357 1131 l 419 1232 z "},"ă":{"ha":532,"x_min":53,"x_max":436,"o":"m 383 0 l 375 103 l 372 103 q 212 -14 319 -14 q 97 44 140 -14 q 53 197 53 101 q 116 364 53 302 q 293 431 179 425 l 372 435 l 372 496 q 347 646 372 599 q 261 693 321 693 q 132 652 198 693 l 104 703 q 265 750 181 750 q 396 693 356 750 q 436 501 436 635 l 436 0 l 383 0 m 227 41 q 334 110 296 41 q 372 302 372 178 l 372 379 l 296 375 q 164 326 207 370 q 121 196 121 281 q 149 79 121 116 q 227 41 178 41 m 414 1003 q 372 887 412 929 q 262 844 332 844 q 119 1003 127 844 l 165 1003 q 196 927 170 953 q 264 901 222 901 q 365 1003 351 901 l 414 1003 z "},"Ą":{"ha":551,"x_min":0,"x_max":551,"o":"m 484 0 l 396 359 l 155 359 l 69 0 l 0 0 l 239 991 l 307 991 l 551 0 l 484 0 m 380 427 l 293 796 q 272 914 279 859 q 253 796 266 855 l 168 427 l 380 427 m 445 -176 q 510 -250 445 -250 q 549 -244 536 -250 l 549 -294 q 498 -302 528 -302 q 384 -183 384 -302 q 413 -82 384 -133 q 484 0 442 -31 l 534 0 q 465 -90 486 -48 q 445 -176 445 -132 z "},"ą":{"ha":532,"x_min":53,"x_max":448,"o":"m 383 0 l 375 103 l 372 103 q 212 -14 319 -14 q 97 44 140 -14 q 53 197 53 101 q 116 364 53 302 q 293 431 179 425 l 372 435 l 372 496 q 347 646 372 599 q 261 693 321 693 q 132 652 198 693 l 104 703 q 265 750 181 750 q 396 693 356 750 q 436 501 436 635 l 436 0 l 383 0 m 227 41 q 334 110 296 41 q 372 302 372 178 l 372 379 l 296 375 q 164 326 207 370 q 121 196 121 281 q 149 79 121 116 q 227 41 178 41 m 345 -176 q 410 -250 345 -250 q 448 -244 436 -250 l 448 -294 q 397 -302 428 -302 q 283 -183 283 -302 q 313 -82 283 -133 q 383 0 342 -31 l 433 0 q 365 -90 385 -48 q 345 -176 345 -132 z "},"Ć":{"ha":583,"x_min":75,"x_max":555,"o":"m 389 943 q 211 825 277 943 q 144 497 144 707 q 175 260 144 361 q 262 104 205 159 q 395 50 319 50 q 528 78 472 50 l 528 17 q 389 -14 475 -14 q 223 47 294 -14 q 114 224 153 109 q 75 498 75 340 q 160 871 75 736 q 390 1007 244 1007 q 549 965 481 1007 l 518 907 q 389 943 461 943 m 340 1071 l 340 1085 q 470 1293 427 1198 l 555 1293 l 555 1282 q 474 1173 528 1234 q 372 1071 420 1111 l 340 1071 z "},"ć":{"ha":431,"x_min":65,"x_max":462,"o":"m 288 -14 q 121 82 177 -14 q 65 364 65 178 q 122 651 65 553 q 289 750 178 750 q 403 725 357 750 l 378 668 q 294 689 332 689 q 132 366 132 689 q 294 45 132 45 q 399 66 342 45 l 399 12 q 344 -7 376 0 q 288 -14 311 -14 m 248 842 l 248 856 q 377 1064 334 968 l 462 1064 l 462 1053 q 381 943 435 1005 q 279 842 328 882 l 248 842 z "},"Ĉ":{"ha":583,"x_min":75,"x_max":549,"o":"m 389 943 q 211 825 277 943 q 144 497 144 707 q 175 260 144 361 q 262 104 205 159 q 395 50 319 50 q 528 78 472 50 l 528 17 q 389 -14 475 -14 q 223 47 294 -14 q 114 224 153 109 q 75 498 75 340 q 160 871 75 736 q 390 1007 244 1007 q 549 965 481 1007 l 518 907 q 389 943 461 943 m 511 1071 q 449 1139 489 1092 l 383 1215 q 315 1138 349 1177 q 252 1071 281 1098 l 223 1071 l 223 1084 q 349 1293 305 1198 l 414 1293 q 467 1195 430 1256 q 543 1084 504 1135 l 543 1071 l 511 1071 z "},"ĉ":{"ha":431,"x_min":65,"x_max":430,"o":"m 288 -14 q 121 82 177 -14 q 65 364 65 178 q 122 651 65 553 q 289 750 178 750 q 403 725 357 750 l 378 668 q 294 689 332 689 q 132 366 132 689 q 294 45 132 45 q 399 66 342 45 l 399 12 q 344 -7 376 0 q 288 -14 311 -14 m 398 842 q 336 910 376 863 l 271 986 q 202 908 237 948 q 140 842 168 869 l 111 842 l 111 854 q 237 1064 193 968 l 301 1064 q 354 966 317 1027 q 430 854 391 905 l 430 842 l 398 842 z "},"Ċ":{"ha":583,"x_min":75,"x_max":549,"o":"m 389 943 q 211 825 277 943 q 144 497 144 707 q 175 260 144 361 q 262 104 205 159 q 395 50 319 50 q 528 78 472 50 l 528 17 q 389 -14 475 -14 q 223 47 294 -14 q 114 224 153 109 q 75 498 75 340 q 160 871 75 736 q 390 1007 244 1007 q 549 965 481 1007 l 518 907 q 389 943 461 943 m 346 1176 q 358 1223 346 1206 q 391 1240 371 1240 q 420 1223 409 1240 q 431 1176 431 1206 q 420 1129 431 1147 q 391 1112 409 1112 q 358 1129 371 1112 q 346 1176 346 1147 z "},"ċ":{"ha":431,"x_min":65,"x_max":403,"o":"m 288 -14 q 121 82 177 -14 q 65 364 65 178 q 122 651 65 553 q 289 750 178 750 q 403 725 357 750 l 378 668 q 294 689 332 689 q 132 366 132 689 q 294 45 132 45 q 399 66 342 45 l 399 12 q 344 -7 376 0 q 288 -14 311 -14 m 245 940 q 258 987 245 970 q 290 1004 271 1004 q 319 987 309 1004 q 330 940 330 970 q 319 893 330 911 q 290 876 309 876 q 258 893 271 876 q 245 940 245 911 z "},"Č":{"ha":583,"x_min":75,"x_max":549,"o":"m 389 943 q 211 825 277 943 q 144 497 144 707 q 175 260 144 361 q 262 104 205 159 q 395 50 319 50 q 528 78 472 50 l 528 17 q 389 -14 475 -14 q 223 47 294 -14 q 114 224 153 109 q 75 498 75 340 q 160 871 75 736 q 390 1007 244 1007 q 549 965 481 1007 l 518 907 q 389 943 461 943 m 549 1293 l 549 1280 q 473 1168 510 1230 q 420 1071 437 1107 l 356 1071 q 230 1280 309 1171 l 230 1293 l 259 1293 q 322 1226 288 1266 q 390 1149 356 1187 l 423 1186 q 517 1293 496 1274 l 549 1293 z "},"č":{"ha":431,"x_min":65,"x_max":438,"o":"m 288 -14 q 121 82 177 -14 q 65 364 65 178 q 122 651 65 553 q 289 750 178 750 q 403 725 357 750 l 378 668 q 294 689 332 689 q 132 366 132 689 q 294 45 132 45 q 399 66 342 45 l 399 12 q 344 -7 376 0 q 288 -14 311 -14 m 438 1064 l 438 1051 q 362 939 399 1000 q 309 842 326 878 l 245 842 q 119 1051 197 942 l 119 1064 l 148 1064 q 211 997 176 1037 q 279 920 245 958 l 312 957 q 406 1064 385 1044 l 438 1064 z "},"Ď":{"ha":675,"x_min":109,"x_max":600,"o":"m 600 505 q 285 0 600 0 l 109 0 l 109 991 l 289 991 q 521 868 442 991 q 600 505 600 744 m 530 501 q 469 821 530 711 q 286 930 407 930 l 175 930 l 175 61 l 281 61 q 470 174 410 61 q 530 501 530 286 m 459 1293 l 459 1280 q 383 1168 420 1230 q 330 1071 347 1107 l 266 1071 q 140 1280 218 1171 l 140 1293 l 169 1293 q 232 1226 197 1266 q 300 1149 266 1187 l 333 1186 q 427 1293 406 1274 l 459 1293 z "},"ď":{"ha":606,"x_min":64,"x_max":668,"o":"m 278 -14 q 64 367 64 -14 q 117 652 64 554 q 275 750 171 750 q 369 722 325 750 q 440 643 414 693 l 446 643 l 443 725 l 443 1055 l 507 1055 l 507 0 l 454 0 l 449 103 l 443 103 q 374 17 416 47 q 278 -14 332 -14 m 282 43 q 401 114 359 43 q 443 325 443 186 l 443 367 q 402 611 443 534 q 279 689 362 689 q 165 606 200 689 q 131 366 131 523 q 167 125 131 207 q 282 43 203 43 m 558 847 q 575 940 564 873 q 591 1055 587 1006 l 668 1055 l 668 1042 q 634 937 661 1004 q 583 833 608 871 l 558 833 l 558 847 z "},"Đ":{"ha":675,"x_min":41,"x_max":600,"o":"m 600 505 q 285 0 600 0 l 109 0 l 109 475 l 41 475 l 41 536 l 109 536 l 109 991 l 289 991 q 521 868 442 991 q 600 505 600 744 m 530 501 q 469 821 530 711 q 286 930 407 930 l 175 930 l 175 536 l 328 536 l 328 475 l 175 475 l 175 61 l 281 61 q 470 174 410 61 q 530 501 530 286 z "},"đ":{"ha":606,"x_min":64,"x_max":587,"o":"m 278 -14 q 64 367 64 -14 q 117 652 64 554 q 275 750 171 750 q 369 721 325 750 q 440 642 414 692 l 446 642 l 443 725 l 443 867 l 265 867 l 265 922 l 443 922 l 443 1055 l 507 1055 l 507 922 l 587 922 l 587 867 l 507 867 l 507 0 l 454 0 l 447 104 l 441 104 q 278 -14 386 -14 m 282 43 q 401 117 359 43 q 443 345 443 191 l 443 367 q 402 611 443 534 q 279 689 362 689 q 165 606 200 689 q 131 366 131 523 q 167 125 131 207 q 282 43 203 43 z "},"Ē":{"ha":534,"x_min":109,"x_max":468,"o":"m 468 0 l 109 0 l 109 991 l 468 991 l 468 928 l 175 928 l 175 551 l 452 551 l 452 488 l 175 488 l 175 64 l 468 64 l 468 0 m 137 1133 l 444 1133 l 444 1078 l 137 1078 l 137 1133 z "},"ē":{"ha":545,"x_min":65,"x_max":479,"o":"m 307 -14 q 128 86 191 -14 q 65 363 65 185 q 121 651 65 551 q 282 750 177 750 q 427 663 374 750 q 479 428 479 576 l 479 368 l 131 368 q 176 127 132 208 q 310 47 220 47 q 456 93 379 47 l 456 31 q 307 -14 385 -14 m 278 692 q 132 427 145 692 l 415 427 q 378 620 415 548 q 278 692 341 692 m 125 904 l 431 904 l 431 848 l 125 848 l 125 904 z "},"Ĕ":{"ha":534,"x_min":109,"x_max":468,"o":"m 468 0 l 109 0 l 109 991 l 468 991 l 468 928 l 175 928 l 175 551 l 452 551 l 452 488 l 175 488 l 175 64 l 468 64 l 468 0 m 438 1232 q 396 1116 436 1158 q 286 1074 357 1074 q 143 1232 152 1074 l 189 1232 q 220 1156 194 1182 q 289 1131 246 1131 q 389 1232 376 1131 l 438 1232 z "},"ĕ":{"ha":545,"x_min":65,"x_max":479,"o":"m 307 -14 q 128 86 191 -14 q 65 363 65 185 q 121 651 65 551 q 282 750 177 750 q 427 663 374 750 q 479 428 479 576 l 479 368 l 131 368 q 176 127 132 208 q 310 47 220 47 q 456 93 379 47 l 456 31 q 307 -14 385 -14 m 278 692 q 132 427 145 692 l 415 427 q 378 620 415 548 q 278 692 341 692 m 423 1003 q 381 887 421 929 q 271 844 342 844 q 128 1003 137 844 l 174 1003 q 205 927 179 953 q 274 901 231 901 q 374 1003 361 901 l 423 1003 z "},"Ė":{"ha":534,"x_min":109,"x_max":468,"o":"m 468 0 l 109 0 l 109 991 l 468 991 l 468 928 l 175 928 l 175 551 l 452 551 l 452 488 l 175 488 l 175 64 l 468 64 l 468 0 m 254 1149 q 267 1197 254 1180 q 299 1214 279 1214 q 328 1197 317 1214 q 339 1149 339 1180 q 328 1103 339 1120 q 299 1086 317 1086 q 267 1103 279 1086 q 254 1149 254 1120 z "},"ė":{"ha":545,"x_min":65,"x_max":479,"o":"m 307 -14 q 128 86 191 -14 q 65 363 65 185 q 121 651 65 551 q 282 750 177 750 q 427 663 374 750 q 479 428 479 576 l 479 368 l 131 368 q 176 127 132 208 q 310 47 220 47 q 456 93 379 47 l 456 31 q 307 -14 385 -14 m 278 692 q 132 427 145 692 l 415 427 q 378 620 415 548 q 278 692 341 692 m 232 940 q 244 987 232 970 q 277 1004 257 1004 q 306 987 295 1004 q 317 940 317 970 q 306 893 317 911 q 277 876 295 876 q 244 893 257 876 q 232 940 232 911 z "},"Ę":{"ha":534,"x_min":109,"x_max":468,"o":"m 468 0 l 109 0 l 109 991 l 468 991 l 468 928 l 175 928 l 175 551 l 452 551 l 452 488 l 175 488 l 175 64 l 468 64 l 468 0 m 334 -176 q 399 -250 334 -250 q 437 -244 425 -250 l 437 -294 q 387 -302 417 -302 q 273 -183 273 -302 q 302 -82 273 -133 q 372 0 331 -31 l 422 0 q 354 -90 374 -48 q 334 -176 334 -132 z "},"ę":{"ha":545,"x_min":65,"x_max":479,"o":"m 307 -14 q 128 86 191 -14 q 65 363 65 185 q 121 651 65 551 q 282 750 177 750 q 427 663 374 750 q 479 428 479 576 l 479 368 l 131 368 q 176 127 132 208 q 310 47 220 47 q 456 93 379 47 l 456 31 q 307 -14 385 -14 m 278 692 q 132 427 145 692 l 415 427 q 378 620 415 548 q 278 692 341 692 m 350 -153 q 415 -227 350 -227 q 454 -220 441 -227 l 454 -271 q 403 -279 433 -279 q 289 -159 289 -279 q 318 -58 289 -109 q 389 24 347 -7 l 439 24 q 370 -66 391 -24 q 350 -153 350 -109 z "},"Ě":{"ha":534,"x_min":109,"x_max":468,"o":"m 468 0 l 109 0 l 109 991 l 468 991 l 468 928 l 175 928 l 175 551 l 452 551 l 452 488 l 175 488 l 175 64 l 468 64 l 468 0 m 456 1293 l 456 1280 q 380 1168 417 1230 q 328 1071 344 1107 l 263 1071 q 137 1280 216 1171 l 137 1293 l 166 1293 q 229 1226 195 1266 q 297 1149 263 1187 l 330 1186 q 425 1293 404 1274 l 456 1293 z "},"ě":{"ha":545,"x_min":65,"x_max":479,"o":"m 307 -14 q 128 86 191 -14 q 65 363 65 185 q 121 651 65 551 q 282 750 177 750 q 427 663 374 750 q 479 428 479 576 l 479 368 l 131 368 q 176 127 132 208 q 310 47 220 47 q 456 93 379 47 l 456 31 q 307 -14 385 -14 m 278 692 q 132 427 145 692 l 415 427 q 378 620 415 548 q 278 692 341 692 m 441 1064 l 441 1051 q 365 939 401 1000 q 312 842 328 878 l 248 842 q 121 1051 200 942 l 121 1064 l 151 1064 q 213 997 179 1037 q 281 920 248 958 l 315 957 q 409 1064 388 1044 l 441 1064 z "},"Ĝ":{"ha":729,"x_min":75,"x_max":652,"o":"m 435 500 l 652 500 l 652 31 q 416 -14 538 -14 q 165 122 254 -14 q 75 498 75 258 q 168 873 75 740 q 428 1006 260 1006 q 640 942 541 1006 l 608 884 q 428 943 515 943 q 217 829 289 943 q 146 497 146 715 q 218 167 146 284 q 422 50 290 50 q 585 75 517 50 l 585 436 l 435 436 l 435 500 m 543 1071 q 481 1139 522 1092 l 416 1215 q 348 1138 382 1177 q 285 1071 313 1098 l 256 1071 l 256 1084 q 382 1293 338 1198 l 446 1293 q 499 1195 463 1256 q 575 1084 536 1135 l 575 1071 l 543 1071 z "},"ĝ":{"ha":503,"x_min":24,"x_max":496,"o":"m 484 736 l 484 690 l 383 679 q 416 603 404 652 q 429 503 429 554 q 381 329 429 395 q 253 262 332 262 l 237 262 l 222 264 q 171 218 190 241 q 153 164 153 195 q 177 116 153 133 q 243 98 201 98 l 289 98 q 441 47 387 98 q 496 -100 496 -3 q 423 -271 496 -208 q 231 -334 350 -334 q 77 -283 131 -334 q 24 -138 24 -233 q 59 -19 24 -68 q 170 58 94 30 q 115 100 136 73 q 94 163 94 126 q 116 222 94 196 q 179 278 138 248 q 94 361 123 304 q 65 497 65 419 q 115 682 65 614 q 250 750 164 750 q 328 736 296 750 l 484 736 m 87 -132 q 124 -241 87 -202 q 233 -281 160 -281 q 377 -233 324 -281 q 431 -103 431 -186 q 394 0 431 -37 q 289 36 358 36 l 241 36 q 131 -11 175 36 q 87 -132 87 -57 m 127 496 q 161 359 127 406 q 249 313 194 313 q 367 503 367 313 q 337 646 367 594 q 249 697 307 697 q 159 644 190 697 q 127 496 127 591 m 380 842 q 318 910 358 863 l 252 986 q 184 908 218 948 q 121 842 150 869 l 92 842 l 92 854 q 218 1064 174 968 l 283 1064 q 336 966 299 1027 q 412 854 373 905 l 412 842 l 380 842 z "},"Ğ":{"ha":729,"x_min":75,"x_max":652,"o":"m 435 500 l 652 500 l 652 31 q 416 -14 538 -14 q 165 122 254 -14 q 75 498 75 258 q 168 873 75 740 q 428 1006 260 1006 q 640 942 541 1006 l 608 884 q 428 943 515 943 q 217 829 289 943 q 146 497 146 715 q 218 167 146 284 q 422 50 290 50 q 585 75 517 50 l 585 436 l 435 436 l 435 500 m 562 1232 q 520 1116 559 1158 q 410 1074 480 1074 q 267 1232 275 1074 l 313 1232 q 343 1156 317 1182 q 412 1131 370 1131 q 513 1232 499 1131 l 562 1232 z "},"ğ":{"ha":503,"x_min":24,"x_max":496,"o":"m 484 736 l 484 690 l 383 679 q 416 603 404 652 q 429 503 429 554 q 381 329 429 395 q 253 262 332 262 l 237 262 l 222 264 q 171 218 190 241 q 153 164 153 195 q 177 116 153 133 q 243 98 201 98 l 289 98 q 441 47 387 98 q 496 -100 496 -3 q 423 -271 496 -208 q 231 -334 350 -334 q 77 -283 131 -334 q 24 -138 24 -233 q 59 -19 24 -68 q 170 58 94 30 q 115 100 136 73 q 94 163 94 126 q 116 222 94 196 q 179 278 138 248 q 94 361 123 304 q 65 497 65 419 q 115 682 65 614 q 250 750 164 750 q 328 736 296 750 l 484 736 m 87 -132 q 124 -241 87 -202 q 233 -281 160 -281 q 377 -233 324 -281 q 431 -103 431 -186 q 394 0 431 -37 q 289 36 358 36 l 241 36 q 131 -11 175 36 q 87 -132 87 -57 m 127 496 q 161 359 127 406 q 249 313 194 313 q 367 503 367 313 q 337 646 367 594 q 249 697 307 697 q 159 644 190 697 q 127 496 127 591 m 398 1003 q 356 887 396 929 q 246 844 317 844 q 103 1003 112 844 l 149 1003 q 180 927 154 953 q 249 901 206 901 q 349 1003 336 901 l 398 1003 z "},"Ġ":{"ha":729,"x_min":75,"x_max":652,"o":"m 435 500 l 652 500 l 652 31 q 416 -14 538 -14 q 165 122 254 -14 q 75 498 75 258 q 168 873 75 740 q 428 1006 260 1006 q 640 942 541 1006 l 608 884 q 428 943 515 943 q 217 829 289 943 q 146 497 146 715 q 218 167 146 284 q 422 50 290 50 q 585 75 517 50 l 585 436 l 435 436 l 435 500 m 382 1169 q 394 1217 382 1200 q 427 1234 407 1234 q 456 1217 445 1234 q 467 1169 467 1200 q 456 1123 467 1140 q 427 1105 445 1105 q 394 1123 407 1105 q 382 1169 382 1140 z "},"ġ":{"ha":503,"x_min":24,"x_max":496,"o":"m 484 736 l 484 690 l 383 679 q 416 603 404 652 q 429 503 429 554 q 381 329 429 395 q 253 262 332 262 l 237 262 l 222 264 q 171 218 190 241 q 153 164 153 195 q 177 116 153 133 q 243 98 201 98 l 289 98 q 441 47 387 98 q 496 -100 496 -3 q 423 -271 496 -208 q 231 -334 350 -334 q 77 -283 131 -334 q 24 -138 24 -233 q 59 -19 24 -68 q 170 58 94 30 q 115 100 136 73 q 94 163 94 126 q 116 222 94 196 q 179 278 138 248 q 94 361 123 304 q 65 497 65 419 q 115 682 65 614 q 250 750 164 750 q 328 736 296 750 l 484 736 m 87 -132 q 124 -241 87 -202 q 233 -281 160 -281 q 377 -233 324 -281 q 431 -103 431 -186 q 394 0 431 -37 q 289 36 358 36 l 241 36 q 131 -11 175 36 q 87 -132 87 -57 m 127 496 q 161 359 127 406 q 249 313 194 313 q 367 503 367 313 q 337 646 367 594 q 249 697 307 697 q 159 644 190 697 q 127 496 127 591 m 208 940 q 221 987 208 970 q 253 1004 233 1004 q 282 987 271 1004 q 293 940 293 970 q 282 893 293 911 q 253 876 271 876 q 221 893 233 876 q 208 940 208 911 z "},"Ģ":{"ha":729,"x_min":75,"x_max":652,"o":"m 435 500 l 652 500 l 652 31 q 416 -14 538 -14 q 165 122 254 -14 q 75 498 75 258 q 168 873 75 740 q 428 1006 260 1006 q 640 942 541 1006 l 608 884 q 428 943 515 943 q 217 829 289 943 q 146 497 146 715 q 218 167 146 284 q 422 50 290 50 q 585 75 517 50 l 585 436 l 435 436 l 435 500 m 349 -293 q 380 -191 363 -252 q 400 -85 396 -130 l 475 -85 l 475 -98 q 433 -210 461 -151 q 376 -307 404 -269 l 349 -307 l 349 -293 z "},"ģ":{"ha":503,"x_min":24,"x_max":496,"o":"m 484 736 l 484 690 l 383 679 q 416 603 404 652 q 429 503 429 554 q 381 329 429 395 q 253 262 332 262 l 237 262 l 222 264 q 171 218 190 241 q 153 164 153 195 q 177 116 153 133 q 243 98 201 98 l 289 98 q 441 47 387 98 q 496 -100 496 -3 q 423 -271 496 -208 q 231 -334 350 -334 q 77 -283 131 -334 q 24 -138 24 -233 q 59 -19 24 -68 q 170 58 94 30 q 115 100 136 73 q 94 163 94 126 q 116 222 94 196 q 179 278 138 248 q 94 361 123 304 q 65 497 65 419 q 115 682 65 614 q 250 750 164 750 q 328 736 296 750 l 484 736 m 87 -132 q 124 -241 87 -202 q 233 -281 160 -281 q 377 -233 324 -281 q 431 -103 431 -186 q 394 0 431 -37 q 289 36 358 36 l 241 36 q 131 -11 175 36 q 87 -132 87 -57 m 127 496 q 161 359 127 406 q 249 313 194 313 q 367 503 367 313 q 337 646 367 594 q 249 697 307 697 q 159 644 190 697 q 127 496 127 591 m 358 1050 q 319 958 342 1025 q 291 842 296 890 l 219 842 l 219 856 q 260 965 227 899 q 329 1064 292 1031 l 358 1064 l 358 1050 z "},"Ĥ":{"ha":696,"x_min":109,"x_max":587,"o":"m 587 0 l 521 0 l 521 488 l 175 488 l 175 0 l 109 0 l 109 991 l 175 991 l 175 551 l 521 551 l 521 991 l 587 991 l 587 0 m 475 1071 q 414 1139 454 1092 l 348 1215 q 280 1138 314 1177 q 217 1071 245 1098 l 188 1071 l 188 1084 q 314 1293 270 1198 l 378 1293 q 432 1195 395 1256 q 507 1084 469 1135 l 507 1071 l 475 1071 z "},"ĥ":{"ha":590,"x_min":98,"x_max":494,"o":"m 431 0 l 431 507 q 405 649 431 607 q 319 690 378 690 q 202 621 241 690 q 163 403 163 552 l 163 0 l 98 0 l 98 1055 l 163 1055 l 163 713 q 160 635 163 666 l 165 635 q 231 720 187 690 q 322 750 275 750 q 455 689 416 750 q 494 507 494 628 l 494 0 l 431 0 m 423 1108 q 361 1177 401 1129 l 296 1253 q 228 1175 262 1215 q 165 1108 193 1135 l 136 1108 l 136 1121 q 262 1331 218 1235 l 326 1331 q 379 1233 342 1293 q 455 1121 416 1172 l 455 1108 l 423 1108 z "},"Ħ":{"ha":696,"x_min":0,"x_max":696,"o":"m 587 803 l 696 803 l 696 742 l 587 742 l 587 0 l 521 0 l 521 486 l 175 486 l 175 0 l 109 0 l 109 742 l 0 742 l 0 803 l 109 803 l 109 991 l 175 991 l 175 803 l 521 803 l 521 991 l 587 991 l 587 803 m 521 553 l 521 742 l 175 742 l 175 553 l 521 553 z "},"ħ":{"ha":590,"x_min":18,"x_max":494,"o":"m 431 0 l 431 507 q 405 649 431 607 q 319 690 378 690 q 202 621 241 690 q 163 403 163 552 l 163 0 l 98 0 l 98 861 l 18 861 l 18 918 l 98 918 l 98 1055 l 163 1055 l 163 918 l 340 918 l 340 861 l 163 861 l 163 713 q 160 635 163 666 l 165 635 q 231 720 187 690 q 322 750 275 750 q 455 689 416 750 q 494 507 494 628 l 494 0 l 431 0 z "},"ĩ":{"ha":261,"x_min":-48,"x_max":332,"o":"m 163 0 l 98 0 l 98 736 l 163 736 l 163 0 m 224 843 q 177 857 200 843 q 133 886 154 870 q 93 916 112 902 q 59 929 75 929 q 23 905 37 929 q 2 842 8 880 l -48 842 q -12 946 -40 907 q 64 985 16 985 q 111 971 88 985 q 154 942 133 958 q 193 912 174 926 q 229 899 212 899 q 264 923 252 899 q 282 986 276 947 l 332 986 q 298 880 326 918 q 224 843 269 843 z "},"ī":{"ha":261,"x_min":-21,"x_max":286,"o":"m 163 0 l 98 0 l 98 736 l 163 736 l 163 0 m -21 904 l 286 904 l 286 848 l -21 848 l -21 904 z "},"ĭ":{"ha":261,"x_min":-19,"x_max":276,"o":"m 163 0 l 98 0 l 98 736 l 163 736 l 163 0 m 276 1003 q 234 887 274 929 q 124 844 195 844 q -19 1003 -10 844 l 27 1003 q 58 927 32 953 q 127 901 84 901 q 227 1003 214 901 l 276 1003 z "},"į":{"ha":261,"x_min":14,"x_max":178,"o":"m 163 0 l 98 0 l 98 736 l 163 736 l 163 0 m 89 940 q 101 987 89 970 q 134 1004 114 1004 q 163 987 152 1004 q 174 940 174 970 q 163 893 174 911 q 134 876 152 876 q 101 893 114 876 q 89 940 89 911 m 75 -176 q 140 -250 75 -250 q 178 -244 166 -250 l 178 -294 q 127 -302 158 -302 q 14 -183 14 -302 q 43 -82 14 -133 q 113 0 72 -31 l 163 0 q 95 -90 115 -48 q 75 -176 75 -132 z "},"ı":{"ha":261,"x_min":98,"x_max":163,"o":"m 163 0 l 98 0 l 98 736 l 163 736 l 163 0 z "},"ĳ":{"ha":522,"x_min":89,"x_max":435,"o":"m 163 0 l 98 0 l 98 736 l 163 736 l 163 0 m 89 940 q 101 987 89 970 q 134 1004 114 1004 q 163 987 152 1004 q 174 940 174 970 q 163 893 174 911 q 134 876 152 876 q 101 893 114 876 q 89 940 89 911 m 304 -334 q 258 -322 275 -334 l 258 -261 q 301 -272 280 -272 q 346 -241 333 -272 q 359 -146 359 -210 l 359 736 l 424 736 l 424 -136 q 395 -286 424 -237 q 304 -334 366 -334 m 350 940 q 362 987 350 970 q 395 1004 375 1004 q 424 987 413 1004 q 435 940 435 970 q 424 893 435 911 q 395 876 413 876 q 362 893 375 876 q 350 940 350 911 z "},"Ĵ":{"ha":272,"x_min":-61,"x_max":294,"o":"m 18 -250 q -61 -233 -27 -250 l -61 -171 q 17 -184 -28 -184 q 81 -145 60 -184 q 102 -17 102 -106 l 102 991 l 168 991 l 168 -16 q 130 -191 168 -132 q 18 -250 92 -250 m 262 1071 q 200 1139 240 1092 l 134 1215 q 66 1138 100 1177 q 3 1071 32 1098 l -26 1071 l -26 1084 q 100 1293 56 1198 l 165 1293 q 218 1195 181 1256 q 294 1084 255 1135 l 294 1071 l 262 1071 z "},"ĵ":{"ha":261,"x_min":-28,"x_max":291,"o":"m 43 -334 q -3 -322 14 -334 l -3 -261 q 40 -272 19 -272 q 85 -241 72 -272 q 98 -146 98 -210 l 98 736 l 163 736 l 163 -136 q 134 -286 163 -237 q 43 -334 104 -334 m 259 842 q 197 910 237 863 l 132 986 q 63 908 98 948 q 1 842 29 869 l -28 842 l -28 854 q 98 1064 54 968 l 162 1064 q 215 966 178 1027 q 291 854 252 905 l 291 842 l 259 842 z "},"Ķ":{"ha":559,"x_min":109,"x_max":559,"o":"m 559 0 l 485 0 l 252 494 l 175 393 l 175 0 l 109 0 l 109 991 l 175 991 l 175 467 q 468 991 210 532 l 541 991 l 292 555 l 559 0 m 238 -293 q 269 -191 253 -252 q 290 -85 286 -130 l 365 -85 l 365 -98 q 322 -210 351 -151 q 266 -307 294 -269 l 238 -307 l 238 -293 z "},"ķ":{"ha":482,"x_min":98,"x_max":472,"o":"m 164 364 l 205 439 l 387 736 l 457 736 l 288 465 l 472 0 l 404 0 l 244 406 l 163 298 l 163 0 l 98 0 l 98 1055 l 163 1055 l 163 488 l 158 364 l 164 364 m 184 -293 q 215 -191 199 -252 q 235 -85 231 -130 l 311 -85 l 311 -98 q 268 -210 296 -151 q 212 -307 239 -269 l 184 -307 l 184 -293 z "},"ĸ":{"ha":482,"x_min":98,"x_max":472,"o":"m 164 364 q 193 418 179 393 q 387 736 207 443 l 457 736 l 288 465 l 472 0 l 404 0 l 244 406 l 163 298 l 163 0 l 98 0 l 98 736 l 163 736 l 163 488 q 158 364 163 415 l 164 364 z "},"Ĺ":{"ha":482,"x_min":109,"x_max":454,"o":"m 109 0 l 109 991 l 175 991 l 175 64 l 454 64 l 454 0 l 109 0 m 125 1071 l 125 1085 q 255 1293 212 1198 l 340 1293 l 340 1282 q 259 1173 313 1234 q 157 1071 205 1111 l 125 1071 z "},"ĺ":{"ha":261,"x_min":94,"x_max":308,"o":"m 163 0 l 98 0 l 98 1055 l 163 1055 l 163 0 m 94 1109 l 94 1124 q 223 1332 180 1236 l 308 1332 l 308 1320 q 228 1211 281 1273 q 125 1109 174 1149 l 94 1109 z "},"Ļ":{"ha":482,"x_min":109,"x_max":454,"o":"m 109 0 l 109 991 l 175 991 l 175 64 l 454 64 l 454 0 l 109 0 m 193 -293 q 224 -191 208 -252 q 245 -85 241 -130 l 320 -85 l 320 -98 q 277 -210 306 -151 q 221 -307 249 -269 l 193 -307 l 193 -293 z "},"ļ":{"ha":261,"x_min":42,"x_max":169,"o":"m 163 0 l 98 0 l 98 1055 l 163 1055 l 163 0 m 42 -293 q 73 -191 57 -252 q 94 -85 90 -130 l 169 -85 l 169 -98 q 126 -210 155 -151 q 70 -307 98 -269 l 42 -307 l 42 -293 z "},"Ľ":{"ha":482,"x_min":109,"x_max":454,"o":"m 109 0 l 109 991 l 175 991 l 175 64 l 454 64 l 454 0 l 109 0 m 286 784 q 303 877 292 810 q 319 992 315 943 l 396 992 l 396 979 q 362 874 389 941 q 311 770 336 808 l 286 770 l 286 784 z "},"ľ":{"ha":261,"x_min":98,"x_max":328,"o":"m 163 0 l 98 0 l 98 1055 l 163 1055 l 163 0 m 218 847 q 235 940 224 873 q 251 1055 246 1006 l 328 1055 l 328 1042 q 294 937 321 1004 q 243 833 267 871 l 218 833 l 218 847 z "},"Ŀ":{"ha":482,"x_min":109,"x_max":454,"o":"m 109 0 l 109 991 l 175 991 l 175 64 l 454 64 l 454 0 l 109 0 m 339 479 q 352 527 339 510 q 384 544 364 544 q 413 527 402 544 q 424 479 424 510 q 413 433 424 450 q 384 416 402 416 q 352 433 364 416 q 339 479 339 450 z "},"ŀ":{"ha":310,"x_min":98,"x_max":330,"o":"m 163 0 l 98 0 l 98 1055 l 163 1055 l 163 0 m 245 457 q 258 505 245 488 q 290 522 271 522 q 319 505 309 522 q 330 457 330 488 q 319 411 330 428 q 290 393 309 393 q 258 411 271 393 q 245 457 245 428 z "},"Ł":{"ha":482,"x_min":4,"x_max":454,"o":"m 109 0 l 109 340 l 107 340 l 36 297 l 4 346 l 109 408 l 109 991 l 175 991 l 175 447 l 351 553 l 382 501 l 175 379 l 175 64 l 454 64 l 454 0 l 109 0 z "},"ł":{"ha":261,"x_min":-24,"x_max":289,"o":"m 163 568 l 254 636 l 289 589 l 163 497 l 163 0 l 98 0 l 98 452 l 9 387 l -24 435 l 98 522 l 98 1055 l 163 1055 l 163 568 z "},"Ń":{"ha":739,"x_min":109,"x_max":631,"o":"m 631 0 l 546 0 l 171 889 l 165 889 q 174 711 174 797 l 174 0 l 109 0 l 109 991 l 195 991 l 567 113 l 571 113 q 566 298 566 224 l 566 991 l 631 991 l 631 0 m 325 1071 l 325 1085 q 454 1293 411 1198 l 539 1293 l 539 1282 q 459 1173 513 1234 q 357 1071 405 1111 l 325 1071 z "},"ń":{"ha":590,"x_min":98,"x_max":494,"o":"m 431 0 l 431 507 q 322 690 431 690 q 201 622 239 690 q 163 404 163 553 l 163 0 l 98 0 l 98 736 l 153 736 l 158 633 l 164 633 q 231 720 187 689 q 323 750 274 750 q 452 693 409 750 q 494 509 494 635 l 494 0 l 431 0 m 259 842 l 259 856 q 389 1064 345 968 l 473 1064 l 473 1053 q 393 943 447 1005 q 291 842 339 882 l 259 842 z "},"Ņ":{"ha":739,"x_min":109,"x_max":631,"o":"m 631 0 l 546 0 l 171 889 l 165 889 q 174 711 174 797 l 174 0 l 109 0 l 109 991 l 195 991 l 567 113 l 571 113 q 566 298 566 224 l 566 991 l 631 991 l 631 0 m 276 -293 q 307 -191 291 -252 q 328 -85 323 -130 l 403 -85 l 403 -98 q 360 -210 389 -151 q 304 -307 332 -269 l 276 -307 l 276 -293 z "},"ņ":{"ha":590,"x_min":98,"x_max":494,"o":"m 431 0 l 431 507 q 322 690 431 690 q 201 622 239 690 q 163 404 163 553 l 163 0 l 98 0 l 98 736 l 153 736 l 158 633 l 164 633 q 231 720 187 689 q 323 750 274 750 q 452 693 409 750 q 494 509 494 635 l 494 0 l 431 0 m 205 -293 q 236 -191 220 -252 q 256 -85 252 -130 l 332 -85 l 332 -98 q 289 -210 317 -151 q 233 -307 260 -269 l 205 -307 l 205 -293 z "},"Ň":{"ha":739,"x_min":109,"x_max":631,"o":"m 631 0 l 546 0 l 171 889 l 165 889 q 174 711 174 797 l 174 0 l 109 0 l 109 991 l 195 991 l 567 113 l 571 113 q 566 298 566 224 l 566 991 l 631 991 l 631 0 m 512 1293 l 512 1280 q 436 1168 473 1230 q 383 1071 399 1107 l 319 1071 q 193 1280 271 1171 l 193 1293 l 222 1293 q 284 1226 250 1266 q 353 1149 319 1187 l 386 1186 q 480 1293 459 1274 l 512 1293 z "},"ň":{"ha":590,"x_min":98,"x_max":494,"o":"m 431 0 l 431 507 q 322 690 431 690 q 201 622 239 690 q 163 404 163 553 l 163 0 l 98 0 l 98 736 l 153 736 l 158 633 l 164 633 q 231 720 187 689 q 323 750 274 750 q 452 693 409 750 q 494 509 494 635 l 494 0 l 431 0 m 450 1064 l 450 1051 q 374 939 411 1000 q 321 842 338 878 l 257 842 q 131 1051 210 942 l 131 1064 l 160 1064 q 223 997 189 1037 q 291 920 257 958 l 324 957 q 418 1064 397 1044 l 450 1064 z "},"ŉ":{"ha":640,"x_min":1,"x_max":545,"o":"m 481 0 l 481 507 q 372 690 481 690 q 251 622 290 690 q 213 404 213 553 l 213 0 l 149 0 l 149 736 l 203 736 l 208 633 l 214 633 q 281 720 237 689 q 374 750 324 750 q 502 693 459 750 q 545 509 545 635 l 545 0 l 481 0 m 156 977 q 43 673 113 829 l 1 673 q 68 991 52 846 l 146 991 l 156 977 z "},"Ŋ":{"ha":739,"x_min":109,"x_max":631,"o":"m 631 -16 q 593 -191 631 -132 q 481 -250 555 -250 q 401 -233 435 -250 l 401 -171 q 479 -184 435 -184 q 544 -145 522 -184 q 566 -17 566 -106 l 566 0 l 171 889 l 165 889 q 174 711 174 797 l 174 0 l 109 0 l 109 991 l 195 991 l 567 153 l 571 153 q 566 334 566 256 l 566 991 l 631 991 l 631 -16 z "},"ŋ":{"ha":590,"x_min":98,"x_max":494,"o":"m 375 -334 q 329 -322 348 -334 l 329 -261 q 372 -272 353 -272 q 431 -146 431 -272 l 431 507 q 314 686 431 686 q 199 618 235 686 q 163 404 163 550 l 163 0 l 98 0 l 98 736 l 153 736 l 158 633 l 163 633 q 229 719 185 688 q 323 750 273 750 q 455 687 415 750 q 494 481 494 623 l 494 -136 q 375 -334 494 -334 z "},"Ō":{"ha":722,"x_min":75,"x_max":647,"o":"m 647 497 q 573 119 647 251 q 361 -14 500 -14 q 148 120 220 -14 q 75 498 75 253 q 147 880 75 755 q 363 1006 219 1006 q 574 874 501 1006 q 647 497 647 742 m 144 497 q 200 163 144 276 q 361 50 255 50 q 523 162 467 50 q 578 497 578 274 q 524 830 578 718 q 363 942 469 942 q 199 828 254 942 q 144 497 144 715 m 214 1133 l 520 1133 l 520 1078 l 214 1078 l 214 1133 z "},"ō":{"ha":576,"x_min":64,"x_max":513,"o":"m 513 370 q 454 85 513 184 q 286 -14 395 -14 q 121 85 178 -14 q 64 370 64 184 q 289 750 64 750 q 454 650 395 750 q 513 370 513 551 m 131 370 q 169 129 131 210 q 288 47 207 47 q 446 370 446 47 q 288 689 446 689 q 168 609 205 689 q 131 370 131 529 m 144 904 l 450 904 l 450 848 l 144 848 l 144 904 z "},"Ŏ":{"ha":722,"x_min":75,"x_max":647,"o":"m 647 497 q 573 119 647 251 q 361 -14 500 -14 q 148 120 220 -14 q 75 498 75 253 q 147 880 75 755 q 363 1006 219 1006 q 574 874 501 1006 q 647 497 647 742 m 144 497 q 200 163 144 276 q 361 50 255 50 q 523 162 467 50 q 578 497 578 274 q 524 830 578 718 q 363 942 469 942 q 199 828 254 942 q 144 497 144 715 m 513 1232 q 472 1116 511 1158 q 361 1074 432 1074 q 218 1232 227 1074 l 264 1232 q 295 1156 269 1182 q 364 1131 321 1131 q 465 1232 451 1131 l 513 1232 z "},"ŏ":{"ha":576,"x_min":64,"x_max":513,"o":"m 513 370 q 454 85 513 184 q 286 -14 395 -14 q 121 85 178 -14 q 64 370 64 184 q 289 750 64 750 q 454 650 395 750 q 513 370 513 551 m 131 370 q 169 129 131 210 q 288 47 207 47 q 446 370 446 47 q 288 689 446 689 q 168 609 205 689 q 131 370 131 529 m 434 1003 q 392 887 432 929 q 282 844 353 844 q 139 1003 148 844 l 185 1003 q 216 927 190 953 q 285 901 242 901 q 385 1003 372 901 l 434 1003 z "},"Ő":{"ha":722,"x_min":75,"x_max":647,"o":"m 647 497 q 573 119 647 251 q 361 -14 500 -14 q 148 120 220 -14 q 75 498 75 253 q 147 880 75 755 q 363 1006 219 1006 q 574 874 501 1006 q 647 497 647 742 m 144 497 q 200 163 144 276 q 361 50 255 50 q 523 162 467 50 q 578 497 578 274 q 524 830 578 718 q 363 942 469 942 q 199 828 254 942 q 144 497 144 715 m 241 1071 l 241 1085 q 304 1186 271 1125 q 356 1293 336 1248 l 437 1293 l 437 1282 q 362 1170 408 1231 q 273 1071 316 1109 l 241 1071 m 421 1071 l 421 1085 q 484 1186 452 1125 q 536 1293 517 1248 l 617 1293 l 617 1282 q 543 1170 591 1232 q 453 1071 494 1108 l 421 1071 z "},"ő":{"ha":576,"x_min":64,"x_max":522,"o":"m 513 370 q 454 85 513 184 q 286 -14 395 -14 q 121 85 178 -14 q 64 370 64 184 q 289 750 64 750 q 454 650 395 750 q 513 370 513 551 m 131 370 q 169 129 131 210 q 288 47 207 47 q 446 370 446 47 q 288 689 446 689 q 168 609 205 689 q 131 370 131 529 m 145 842 l 145 856 q 208 957 176 896 q 260 1064 241 1019 l 341 1064 l 341 1053 q 267 941 313 1002 q 177 842 220 880 l 145 842 m 326 842 l 326 856 q 389 957 356 896 q 441 1064 421 1019 l 522 1064 l 522 1053 q 447 941 496 1003 q 357 842 399 879 l 326 842 z "},"Œ":{"ha":836,"x_min":75,"x_max":770,"o":"m 770 0 l 482 0 l 397 -4 q 75 498 75 -4 q 159 870 75 745 q 403 996 243 996 l 481 991 l 770 991 l 770 928 l 476 928 l 476 551 l 753 551 l 753 488 l 476 488 l 476 64 l 770 64 l 770 0 m 146 497 q 209 163 146 267 q 410 60 271 60 l 410 932 q 209 830 273 932 q 146 497 146 728 z "},"œ":{"ha":924,"x_min":64,"x_max":859,"o":"m 686 -14 q 478 143 538 -14 q 286 -14 424 -14 q 121 85 178 -14 q 64 370 64 184 q 289 750 64 750 q 476 596 420 750 q 661 750 530 750 q 806 663 753 750 q 859 428 859 576 l 859 368 l 510 368 q 689 45 513 45 q 835 90 758 45 l 835 31 q 686 -14 764 -14 m 131 370 q 288 45 131 45 q 444 353 444 45 l 444 370 q 288 689 444 689 q 168 609 205 689 q 131 370 131 529 m 657 690 q 511 427 524 690 l 794 427 l 794 435 q 757 621 794 551 q 657 690 720 690 z "},"Ŕ":{"ha":590,"x_min":109,"x_max":561,"o":"m 175 433 l 175 0 l 109 0 l 109 991 l 244 991 q 456 923 389 991 q 524 718 524 854 q 487 549 524 615 q 364 449 450 482 l 561 0 l 486 0 l 301 433 l 175 433 m 175 494 l 268 494 q 407 550 358 494 q 456 715 456 606 q 406 877 456 827 q 249 926 356 926 l 175 926 l 175 494 m 241 1071 l 241 1085 q 370 1293 327 1198 l 455 1293 l 455 1282 q 375 1173 429 1234 q 273 1071 321 1111 l 241 1071 z "},"ŕ":{"ha":379,"x_min":98,"x_max":387,"o":"m 302 750 q 367 741 337 750 l 351 676 q 301 686 327 686 q 232 648 264 686 q 181 541 199 610 q 163 390 163 473 l 163 0 l 98 0 l 98 736 l 151 736 l 158 607 l 163 607 q 302 750 214 750 m 173 842 l 173 856 q 302 1064 259 968 l 387 1064 l 387 1053 q 307 943 361 1005 q 205 842 253 882 l 173 842 z "},"Ŗ":{"ha":590,"x_min":109,"x_max":561,"o":"m 175 433 l 175 0 l 109 0 l 109 991 l 244 991 q 456 923 389 991 q 524 718 524 854 q 487 549 524 615 q 364 449 450 482 l 561 0 l 486 0 l 301 433 l 175 433 m 175 494 l 268 494 q 407 550 358 494 q 456 715 456 606 q 406 877 456 827 q 249 926 356 926 l 175 926 l 175 494 m 220 -293 q 251 -191 235 -252 q 271 -85 267 -130 l 347 -85 l 347 -98 q 304 -210 332 -151 q 248 -307 275 -269 l 220 -307 l 220 -293 z "},"ŗ":{"ha":379,"x_min":46,"x_max":367,"o":"m 302 750 q 367 741 337 750 l 351 676 q 301 686 327 686 q 232 648 264 686 q 181 541 199 610 q 163 390 163 473 l 163 0 l 98 0 l 98 736 l 151 736 l 158 607 l 163 607 q 302 750 214 750 m 46 -293 q 77 -191 61 -252 q 98 -85 94 -130 l 173 -85 l 173 -98 q 130 -210 159 -151 q 74 -307 102 -269 l 46 -307 l 46 -293 z "},"Ř":{"ha":590,"x_min":109,"x_max":561,"o":"m 175 433 l 175 0 l 109 0 l 109 991 l 244 991 q 456 923 389 991 q 524 718 524 854 q 487 549 524 615 q 364 449 450 482 l 561 0 l 486 0 l 301 433 l 175 433 m 175 494 l 268 494 q 407 550 358 494 q 456 715 456 606 q 406 877 456 827 q 249 926 356 926 l 175 926 l 175 494 m 456 1293 l 456 1280 q 380 1168 417 1230 q 328 1071 344 1107 l 263 1071 q 137 1280 216 1171 l 137 1293 l 166 1293 q 229 1226 195 1266 q 297 1149 263 1187 l 330 1186 q 425 1293 404 1274 l 456 1293 z "},"ř":{"ha":379,"x_min":66,"x_max":385,"o":"m 302 750 q 367 741 337 750 l 351 676 q 301 686 327 686 q 232 648 264 686 q 181 541 199 610 q 163 390 163 473 l 163 0 l 98 0 l 98 736 l 151 736 l 158 607 l 163 607 q 302 750 214 750 m 385 1064 l 385 1051 q 309 939 346 1000 q 256 842 273 878 l 192 842 q 66 1051 144 942 l 66 1064 l 95 1064 q 158 997 123 1037 q 226 920 192 958 l 259 957 q 353 1064 332 1044 l 385 1064 z "},"Ś":{"ha":549,"x_min":58,"x_max":489,"o":"m 489 260 q 421 62 489 138 q 249 -14 353 -14 q 58 21 130 -14 l 58 93 q 146 62 94 73 q 249 50 198 50 q 374 108 325 50 q 422 254 422 165 q 388 385 422 336 q 256 481 353 433 q 141 556 179 519 q 85 640 103 592 q 66 755 66 688 q 96 886 66 829 q 180 974 126 943 q 297 1006 233 1006 q 402 993 355 1006 q 476 965 449 980 l 450 901 q 297 940 375 940 q 178 890 224 940 q 132 758 132 840 q 165 629 132 675 q 296 533 199 583 q 443 419 396 484 q 489 260 489 353 m 258 1071 l 258 1085 q 387 1293 344 1198 l 472 1293 l 472 1282 q 392 1173 446 1234 q 290 1071 338 1111 l 258 1071 z "},"ś":{"ha":437,"x_min":50,"x_max":399,"o":"m 387 184 q 338 39 387 92 q 197 -14 290 -14 q 109 -1 147 -14 q 50 28 71 12 l 50 103 q 117 63 75 78 q 201 47 158 47 q 291 85 258 47 q 323 184 323 122 q 300 267 323 233 q 211 343 277 300 q 108 419 136 391 q 65 483 81 448 q 50 567 50 518 q 104 698 50 646 q 240 750 157 750 q 389 708 329 750 l 355 652 q 237 689 300 689 q 146 655 180 689 q 113 567 113 622 q 136 485 113 518 q 233 406 159 452 q 334 329 307 357 q 374 265 361 300 q 387 184 387 230 m 185 842 l 185 856 q 315 1064 271 968 l 399 1064 l 399 1053 q 319 943 373 1005 q 217 842 265 882 l 185 842 z "},"Ŝ":{"ha":549,"x_min":58,"x_max":489,"o":"m 489 260 q 421 62 489 138 q 249 -14 353 -14 q 58 21 130 -14 l 58 93 q 146 62 94 73 q 249 50 198 50 q 374 108 325 50 q 422 254 422 165 q 388 385 422 336 q 256 481 353 433 q 141 556 179 519 q 85 640 103 592 q 66 755 66 688 q 96 886 66 829 q 180 974 126 943 q 297 1006 233 1006 q 402 993 355 1006 q 476 965 449 980 l 450 901 q 297 940 375 940 q 178 890 224 940 q 132 758 132 840 q 165 629 132 675 q 296 533 199 583 q 443 419 396 484 q 489 260 489 353 m 417 1071 q 355 1139 395 1092 l 290 1215 q 221 1138 256 1177 q 159 1071 187 1098 l 130 1071 l 130 1084 q 256 1293 212 1198 l 320 1293 q 373 1195 336 1256 q 449 1084 410 1135 l 449 1071 l 417 1071 z "},"ŝ":{"ha":437,"x_min":50,"x_max":389,"o":"m 387 184 q 338 39 387 92 q 197 -14 290 -14 q 109 -1 147 -14 q 50 28 71 12 l 50 103 q 117 63 75 78 q 201 47 158 47 q 291 85 258 47 q 323 184 323 122 q 300 267 323 233 q 211 343 277 300 q 108 419 136 391 q 65 483 81 448 q 50 567 50 518 q 104 698 50 646 q 240 750 157 750 q 389 708 329 750 l 355 652 q 237 689 300 689 q 146 655 180 689 q 113 567 113 622 q 136 485 113 518 q 233 406 159 452 q 334 329 307 357 q 374 265 361 300 q 387 184 387 230 m 355 842 q 293 910 333 863 l 227 986 q 159 908 193 948 q 96 842 125 869 l 67 842 l 67 854 q 193 1064 149 968 l 258 1064 q 311 966 274 1027 q 387 854 348 905 l 387 842 l 355 842 z "},"Ş":{"ha":549,"x_min":58,"x_max":489,"o":"m 489 260 q 421 62 489 138 q 249 -14 353 -14 q 58 21 130 -14 l 58 93 q 146 62 94 73 q 249 50 198 50 q 374 108 325 50 q 422 254 422 165 q 388 385 422 336 q 256 481 353 433 q 141 556 179 519 q 85 640 103 592 q 66 755 66 688 q 96 886 66 829 q 180 974 126 943 q 297 1006 233 1006 q 402 993 355 1006 q 476 965 449 980 l 450 901 q 297 940 375 940 q 178 890 224 940 q 132 758 132 840 q 165 629 132 675 q 296 533 199 583 q 443 419 396 484 q 489 260 489 353 m 336 -197 q 294 -299 336 -265 q 178 -334 252 -334 q 119 -326 136 -334 l 119 -273 q 172 -281 140 -281 q 250 -258 225 -281 q 275 -199 275 -235 q 245 -137 275 -158 q 163 -109 216 -117 l 212 0 l 262 0 l 228 -78 q 336 -197 336 -104 z "},"ş":{"ha":437,"x_min":50,"x_max":389,"o":"m 387 184 q 338 39 387 92 q 197 -14 290 -14 q 109 -1 147 -14 q 50 28 71 12 l 50 103 q 117 63 75 78 q 201 47 158 47 q 291 85 258 47 q 323 184 323 122 q 300 267 323 233 q 211 343 277 300 q 108 419 136 391 q 65 483 81 448 q 50 567 50 518 q 104 698 50 646 q 240 750 157 750 q 389 708 329 750 l 355 652 q 237 689 300 689 q 146 655 180 689 q 113 567 113 622 q 136 485 113 518 q 233 406 159 452 q 334 329 307 357 q 374 265 361 300 q 387 184 387 230 m 306 -197 q 263 -299 306 -265 q 147 -334 221 -334 q 89 -326 105 -334 l 89 -273 q 142 -281 110 -281 q 220 -258 195 -281 q 245 -199 245 -235 q 215 -137 245 -158 q 132 -109 185 -117 l 181 0 l 232 0 l 197 -78 q 306 -197 306 -104 z "},"Š":{"ha":549,"x_min":58,"x_max":489,"o":"m 489 260 q 421 62 489 138 q 249 -14 353 -14 q 58 21 130 -14 l 58 93 q 146 62 94 73 q 249 50 198 50 q 374 108 325 50 q 422 254 422 165 q 388 385 422 336 q 256 481 353 433 q 141 556 179 519 q 85 640 103 592 q 66 755 66 688 q 96 886 66 829 q 180 974 126 943 q 297 1006 233 1006 q 402 993 355 1006 q 476 965 449 980 l 450 901 q 297 940 375 940 q 178 890 224 940 q 132 758 132 840 q 165 629 132 675 q 296 533 199 583 q 443 419 396 484 q 489 260 489 353 m 458 1293 l 458 1280 q 382 1168 418 1230 q 329 1071 345 1107 l 264 1071 q 138 1280 217 1171 l 138 1293 l 168 1293 q 230 1226 196 1266 q 298 1149 264 1187 l 332 1186 q 426 1293 405 1274 l 458 1293 z "},"š":{"ha":437,"x_min":50,"x_max":389,"o":"m 387 184 q 338 39 387 92 q 197 -14 290 -14 q 109 -1 147 -14 q 50 28 71 12 l 50 103 q 117 63 75 78 q 201 47 158 47 q 291 85 258 47 q 323 184 323 122 q 300 267 323 233 q 211 343 277 300 q 108 419 136 391 q 65 483 81 448 q 50 567 50 518 q 104 698 50 646 q 240 750 157 750 q 389 708 329 750 l 355 652 q 237 689 300 689 q 146 655 180 689 q 113 567 113 622 q 136 485 113 518 q 233 406 159 452 q 334 329 307 357 q 374 265 361 300 q 387 184 387 230 m 388 1064 l 388 1051 q 312 939 349 1000 q 259 842 275 878 l 195 842 q 68 1051 147 942 l 68 1064 l 98 1064 q 160 997 126 1037 q 229 920 195 958 l 262 957 q 356 1064 335 1044 l 388 1064 z "},"Ț":{"ha":482,"x_min":9,"x_max":471,"o":"m 273 0 l 207 0 l 207 928 l 9 928 l 9 991 l 471 991 l 471 928 l 273 928 l 273 0 m 151 -293 q 182 -191 165 -252 q 202 -85 198 -130 l 277 -85 l 277 -98 q 235 -210 263 -151 q 178 -307 206 -269 l 151 -307 l 151 -293 z "},"ț":{"ha":304,"x_min":29,"x_max":286,"o":"m 233 46 q 286 54 263 46 l 286 0 q 210 -14 256 -14 q 96 157 96 -14 l 96 679 l 29 679 l 29 717 l 94 736 l 115 911 l 160 911 l 160 736 l 277 736 l 277 679 l 160 679 l 160 175 q 176 73 160 100 q 233 46 193 46 m 95 -293 q 126 -191 110 -252 q 146 -85 142 -130 l 222 -85 l 222 -98 q 179 -210 208 -151 q 123 -307 151 -269 l 95 -307 l 95 -293 z "},"Ť":{"ha":482,"x_min":9,"x_max":471,"o":"m 273 0 l 207 0 l 207 928 l 9 928 l 9 991 l 471 991 l 471 928 l 273 928 l 273 0 m 401 1293 l 401 1280 q 325 1168 361 1230 q 272 1071 288 1107 l 208 1071 q 81 1280 160 1171 l 81 1293 l 111 1293 q 173 1226 139 1266 q 241 1149 208 1187 l 275 1186 q 369 1293 348 1274 l 401 1293 z "},"ť":{"ha":304,"x_min":29,"x_max":366,"o":"m 233 46 q 286 54 263 46 l 286 0 q 210 -14 256 -14 q 96 157 96 -14 l 96 679 l 29 679 l 29 717 l 94 736 l 115 911 l 160 911 l 160 736 l 277 736 l 277 679 l 160 679 l 160 175 q 176 73 160 100 q 233 46 193 46 m 256 847 q 274 940 262 873 q 290 1055 285 1006 l 366 1055 l 366 1042 q 333 937 359 1004 q 281 833 306 871 l 256 833 l 256 847 z "},"Ŧ":{"ha":482,"x_min":9,"x_max":471,"o":"m 273 0 l 207 0 l 207 475 l 54 475 l 54 536 l 207 536 l 207 926 l 9 926 l 9 991 l 471 991 l 471 926 l 273 926 l 273 536 l 427 536 l 427 475 l 273 475 l 273 0 z "},"ŧ":{"ha":304,"x_min":29,"x_max":286,"o":"m 29 467 l 96 467 l 96 679 l 29 679 l 29 717 l 94 736 l 115 911 l 160 911 l 160 736 l 277 736 l 277 679 l 160 679 l 160 467 l 277 467 l 277 410 l 160 410 l 160 175 q 176 73 160 100 q 233 46 193 46 q 286 54 263 46 l 286 0 q 210 -14 256 -14 q 96 157 96 -14 l 96 410 l 29 410 l 29 467 z "},"Ũ":{"ha":686,"x_min":100,"x_max":586,"o":"m 586 991 l 586 322 q 346 -14 586 -14 q 163 73 226 -14 q 100 322 100 160 l 100 991 l 167 991 l 167 314 q 213 118 167 185 q 346 50 260 50 q 475 118 431 50 q 519 317 519 185 l 519 991 l 586 991 m 431 1072 q 385 1086 408 1072 q 340 1115 361 1099 q 301 1145 319 1131 q 267 1158 282 1158 q 230 1134 245 1158 q 210 1071 216 1109 l 159 1071 q 195 1175 168 1137 q 272 1214 223 1214 q 318 1200 296 1214 q 361 1171 340 1187 q 400 1141 382 1155 q 436 1128 419 1128 q 472 1152 460 1128 q 490 1215 484 1177 l 540 1215 q 505 1109 534 1147 q 431 1072 477 1072 z "},"ũ":{"ha":590,"x_min":96,"x_max":495,"o":"m 160 736 l 160 256 q 186 96 160 146 q 267 46 212 46 q 389 114 350 46 q 428 332 428 181 l 428 736 l 492 736 l 492 0 l 437 0 l 429 103 l 424 103 q 358 17 400 47 q 267 -14 316 -14 q 137 50 178 -14 q 96 256 96 113 l 96 736 l 160 736 m 387 843 q 340 857 363 843 q 296 886 317 870 q 256 916 275 902 q 222 929 237 929 q 185 905 200 929 q 165 842 171 880 l 115 842 q 151 946 123 907 q 227 985 178 985 q 273 971 251 985 q 316 942 296 958 q 356 912 337 926 q 391 899 374 899 q 427 923 415 899 q 445 986 439 947 l 495 986 q 460 880 489 918 q 387 843 432 843 z "},"Ū":{"ha":686,"x_min":100,"x_max":586,"o":"m 586 991 l 586 322 q 346 -14 586 -14 q 163 73 226 -14 q 100 322 100 160 l 100 991 l 167 991 l 167 314 q 213 118 167 185 q 346 50 260 50 q 475 118 431 50 q 519 317 519 185 l 519 991 l 586 991 m 201 1133 l 507 1133 l 507 1078 l 201 1078 l 201 1133 z "},"ū":{"ha":590,"x_min":96,"x_max":492,"o":"m 160 736 l 160 256 q 186 96 160 146 q 267 46 212 46 q 389 114 350 46 q 428 332 428 181 l 428 736 l 492 736 l 492 0 l 437 0 l 429 103 l 424 103 q 358 17 400 47 q 267 -14 316 -14 q 137 50 178 -14 q 96 256 96 113 l 96 736 l 160 736 m 148 904 l 454 904 l 454 848 l 148 848 l 148 904 z "},"Ŭ":{"ha":686,"x_min":100,"x_max":586,"o":"m 586 991 l 586 322 q 346 -14 586 -14 q 163 73 226 -14 q 100 322 100 160 l 100 991 l 167 991 l 167 314 q 213 118 167 185 q 346 50 260 50 q 475 118 431 50 q 519 317 519 185 l 519 991 l 586 991 m 488 1232 q 447 1116 486 1158 q 336 1074 407 1074 q 193 1232 202 1074 l 239 1232 q 270 1156 244 1182 q 339 1131 296 1131 q 439 1232 426 1131 l 488 1232 z "},"ŭ":{"ha":590,"x_min":96,"x_max":492,"o":"m 160 736 l 160 256 q 186 96 160 146 q 267 46 212 46 q 389 114 350 46 q 428 332 428 181 l 428 736 l 492 736 l 492 0 l 437 0 l 429 103 l 424 103 q 358 17 400 47 q 267 -14 316 -14 q 137 50 178 -14 q 96 256 96 113 l 96 736 l 160 736 m 437 1003 q 395 887 435 929 q 285 844 355 844 q 142 1003 151 844 l 188 1003 q 219 927 193 953 q 288 901 245 901 q 388 1003 374 901 l 437 1003 z "},"Ů":{"ha":686,"x_min":100,"x_max":586,"o":"m 586 991 l 586 322 q 346 -14 586 -14 q 163 73 226 -14 q 100 322 100 160 l 100 991 l 167 991 l 167 314 q 213 118 167 185 q 346 50 260 50 q 475 118 431 50 q 519 317 519 185 l 519 991 l 586 991 m 479 1207 q 442 1112 479 1147 q 344 1078 406 1078 q 245 1112 281 1078 q 209 1204 209 1146 q 245 1296 209 1262 q 344 1331 281 1331 q 441 1297 403 1331 q 479 1207 479 1263 m 426 1204 q 405 1261 426 1239 q 344 1283 384 1283 q 284 1261 307 1283 q 262 1204 262 1239 q 282 1147 262 1168 q 344 1125 303 1125 q 403 1147 380 1125 q 426 1204 426 1168 z "},"ů":{"ha":590,"x_min":96,"x_max":492,"o":"m 160 736 l 160 256 q 186 96 160 146 q 267 46 212 46 q 389 114 350 46 q 428 332 428 181 l 428 736 l 492 736 l 492 0 l 437 0 l 429 103 l 424 103 q 358 17 400 47 q 267 -14 316 -14 q 137 50 178 -14 q 96 256 96 113 l 96 736 l 160 736 m 429 978 q 392 883 429 918 q 294 848 355 848 q 195 883 231 848 q 159 975 159 917 q 195 1067 159 1033 q 294 1101 231 1101 q 391 1068 353 1101 q 429 978 429 1034 m 376 975 q 355 1032 376 1010 q 294 1054 334 1054 q 234 1032 257 1054 q 212 975 212 1010 q 232 918 212 939 q 294 896 253 896 q 353 918 330 896 q 376 975 376 939 z "},"Ű":{"ha":686,"x_min":100,"x_max":586,"o":"m 586 991 l 586 322 q 346 -14 586 -14 q 163 73 226 -14 q 100 322 100 160 l 100 991 l 167 991 l 167 314 q 213 118 167 185 q 346 50 260 50 q 475 118 431 50 q 519 317 519 185 l 519 991 l 586 991 m 196 1071 l 196 1085 q 259 1186 227 1125 q 311 1293 292 1248 l 392 1293 l 392 1282 q 317 1170 363 1231 q 228 1071 271 1109 l 196 1071 m 376 1071 l 376 1085 q 439 1186 407 1125 q 492 1293 472 1248 l 572 1293 l 572 1282 q 498 1170 547 1232 q 408 1071 450 1108 l 376 1071 z "},"ű":{"ha":590,"x_min":96,"x_max":533,"o":"m 160 736 l 160 256 q 186 96 160 146 q 267 46 212 46 q 389 114 350 46 q 428 332 428 181 l 428 736 l 492 736 l 492 0 l 437 0 l 429 103 l 424 103 q 358 17 400 47 q 267 -14 316 -14 q 137 50 178 -14 q 96 256 96 113 l 96 736 l 160 736 m 157 842 l 157 856 q 220 957 187 896 q 272 1064 252 1019 l 353 1064 l 353 1053 q 278 941 324 1002 q 189 842 232 880 l 157 842 m 337 842 l 337 856 q 400 957 368 896 q 452 1064 433 1019 l 533 1064 l 533 1053 q 459 941 507 1003 q 369 842 410 879 l 337 842 z "},"Ų":{"ha":686,"x_min":100,"x_max":586,"o":"m 586 991 l 586 322 q 346 -14 586 -14 q 163 73 226 -14 q 100 322 100 160 l 100 991 l 167 991 l 167 314 q 213 118 167 185 q 346 50 260 50 q 475 118 431 50 q 519 317 519 185 l 519 991 l 586 991 m 328 -176 q 393 -250 328 -250 q 432 -244 420 -250 l 432 -294 q 381 -302 412 -302 q 267 -183 267 -302 q 296 -82 267 -133 q 367 0 326 -31 l 417 0 q 349 -90 369 -48 q 328 -176 328 -132 z "},"ų":{"ha":590,"x_min":96,"x_max":503,"o":"m 160 736 l 160 256 q 186 96 160 146 q 267 46 212 46 q 389 114 350 46 q 428 332 428 181 l 428 736 l 492 736 l 492 0 l 437 0 l 429 103 l 424 103 q 358 17 400 47 q 267 -14 316 -14 q 137 50 178 -14 q 96 256 96 113 l 96 736 l 160 736 m 399 -176 q 464 -250 399 -250 q 503 -244 490 -250 l 503 -294 q 452 -302 482 -302 q 338 -183 338 -302 q 367 -82 338 -133 q 437 0 396 -31 l 488 0 q 419 -90 439 -48 q 399 -176 399 -132 z "},"Ŵ":{"ha":946,"x_min":7,"x_max":939,"o":"m 871 991 l 939 991 l 728 0 l 647 0 l 496 742 q 472 904 492 760 l 463 840 l 447 743 l 298 0 l 220 0 l 7 991 l 77 991 l 216 309 q 258 75 249 142 q 297 306 273 184 l 436 991 l 511 991 l 650 309 q 681 125 671 197 l 688 75 q 726 309 707 218 l 871 991 m 599 1071 q 537 1139 577 1092 l 471 1215 q 403 1138 437 1177 q 340 1071 369 1098 l 311 1071 l 311 1084 q 437 1293 393 1198 l 502 1293 q 555 1195 518 1256 q 631 1084 592 1135 l 631 1071 l 599 1071 z "},"ŵ":{"ha":762,"x_min":14,"x_max":749,"o":"m 507 0 l 406 498 q 403 510 404 504 q 382 640 402 516 l 380 640 l 371 583 l 355 498 l 250 0 l 174 0 l 14 736 l 78 736 l 170 307 l 212 83 l 216 83 q 256 309 229 180 l 347 736 l 415 736 l 507 307 q 546 83 518 259 l 550 83 q 570 196 552 106 q 685 736 588 286 l 749 736 l 583 0 l 507 0 m 511 842 q 449 910 489 863 l 383 986 q 315 908 349 948 q 252 842 281 869 l 223 842 l 223 854 q 349 1064 305 968 l 414 1064 q 467 966 430 1027 q 543 854 504 905 l 543 842 l 511 842 z "},"Ŷ":{"ha":465,"x_min":0,"x_max":465,"o":"m 233 479 l 395 991 l 465 991 l 265 387 l 265 0 l 199 0 l 199 387 l 0 991 l 71 991 l 233 479 m 362 1071 q 300 1139 340 1092 l 235 1215 q 166 1138 201 1177 q 104 1071 132 1098 l 75 1071 l 75 1084 q 201 1293 157 1198 l 265 1293 q 318 1195 281 1256 q 394 1084 355 1135 l 394 1071 l 362 1071 z "},"ŷ":{"ha":443,"x_min":-1,"x_max":436,"o":"m 191 1 l 7 736 l 72 736 l 183 277 q 221 90 203 194 l 227 90 q 262 278 239 180 l 371 736 l 436 736 l 221 -139 q 159 -285 197 -236 q 57 -334 121 -334 q -1 -322 31 -334 l -1 -264 q 52 -273 26 -273 q 116 -238 92 -273 q 158 -126 140 -203 l 191 1 m 351 842 q 289 910 329 863 l 223 986 q 155 908 189 948 q 92 842 121 869 l 63 842 l 63 854 q 189 1064 145 968 l 254 1064 q 307 966 270 1027 q 382 854 344 905 l 382 842 l 351 842 z "},"Ÿ":{"ha":465,"x_min":0,"x_max":465,"o":"m 233 479 l 395 991 l 465 991 l 265 387 l 265 0 l 199 0 l 199 387 l 0 991 l 71 991 l 233 479 m 88 1171 q 101 1213 88 1200 q 132 1226 115 1226 q 160 1213 147 1226 q 173 1171 173 1200 q 160 1128 173 1141 q 132 1114 147 1114 q 101 1128 115 1114 q 88 1171 88 1141 m 295 1171 q 308 1213 295 1200 q 337 1226 321 1226 q 367 1213 354 1226 q 380 1171 380 1200 q 367 1128 380 1141 q 337 1114 354 1114 q 308 1128 321 1114 q 295 1171 295 1141 z "},"Ź":{"ha":436,"x_min":39,"x_max":408,"o":"m 408 0 l 39 0 l 39 60 l 326 926 l 43 926 l 43 991 l 400 991 l 400 930 l 109 64 l 408 64 l 408 0 m 161 1071 l 161 1085 q 291 1293 248 1198 l 376 1293 l 376 1282 q 295 1173 349 1234 q 193 1071 241 1111 l 161 1071 z "},"ź":{"ha":367,"x_min":40,"x_max":340,"o":"m 335 0 l 40 0 l 40 52 l 257 679 l 54 679 l 54 736 l 325 736 l 325 684 l 109 57 l 335 57 l 335 0 m 125 842 l 125 856 q 255 1064 212 968 l 340 1064 l 340 1053 q 259 943 313 1005 q 157 842 205 882 l 125 842 z "},"Ż":{"ha":436,"x_min":39,"x_max":408,"o":"m 408 0 l 39 0 l 39 60 l 326 926 l 43 926 l 43 991 l 400 991 l 400 930 l 109 64 l 408 64 l 408 0 m 165 1169 q 178 1217 165 1200 q 210 1234 191 1234 q 239 1217 229 1234 q 250 1169 250 1200 q 239 1123 250 1140 q 210 1105 229 1105 q 178 1123 191 1105 q 165 1169 165 1140 z "},"ż":{"ha":367,"x_min":40,"x_max":335,"o":"m 335 0 l 40 0 l 40 52 l 257 679 l 54 679 l 54 736 l 325 736 l 325 684 l 109 57 l 335 57 l 335 0 m 142 940 q 154 987 142 970 q 186 1004 167 1004 q 216 987 205 1004 q 227 940 227 970 q 216 893 227 911 q 186 876 205 876 q 154 893 167 876 q 142 940 142 911 z "},"Ž":{"ha":436,"x_min":39,"x_max":408,"o":"m 408 0 l 39 0 l 39 60 l 326 926 l 43 926 l 43 991 l 400 991 l 400 930 l 109 64 l 408 64 l 408 0 m 381 1293 l 381 1280 q 305 1168 342 1230 q 252 1071 269 1107 l 188 1071 q 62 1280 140 1171 l 62 1293 l 91 1293 q 154 1226 119 1266 q 222 1149 188 1187 l 255 1186 q 349 1293 328 1274 l 381 1293 z "},"ž":{"ha":367,"x_min":34,"x_max":353,"o":"m 335 0 l 40 0 l 40 52 l 257 679 l 54 679 l 54 736 l 325 736 l 325 684 l 109 57 l 335 57 l 335 0 m 353 1064 l 353 1051 q 277 939 314 1000 q 224 842 241 878 l 160 842 q 34 1051 113 942 l 34 1064 l 63 1064 q 126 997 92 1037 q 194 920 160 958 l 227 957 q 321 1064 300 1044 l 353 1064 z "},"ſ":{"ha":264,"x_min":98,"x_max":334,"o":"m 163 0 l 98 0 l 98 799 q 132 1002 98 941 q 248 1063 166 1063 q 334 1046 295 1063 l 311 986 q 248 1003 277 1003 q 196 983 213 1003 q 171 918 179 963 q 163 798 163 872 l 163 0 z "},"ƒ":{"ha":555,"x_min":54,"x_max":496,"o":"m 140 -334 q 54 -325 95 -334 l 54 -261 q 136 -273 103 -273 q 216 -231 193 -273 q 240 -100 240 -188 l 240 574 l 131 574 l 131 610 l 240 636 l 240 764 q 274 945 240 885 q 389 1006 309 1006 q 496 979 439 1006 l 468 921 q 392 943 425 943 q 340 925 357 943 q 313 864 322 906 q 304 753 304 822 l 304 631 l 433 631 l 433 574 l 304 574 l 304 -75 q 267 -272 304 -210 q 140 -334 229 -334 z "},"Ǻ":{"ha":551,"x_min":0,"x_max":551,"o":"m 407 975 q 382 893 407 924 q 317 851 357 862 l 551 0 l 481 0 l 404 288 l 144 288 l 72 0 l 0 0 l 228 851 q 162 892 186 862 q 138 972 138 923 q 174 1064 138 1030 q 272 1099 210 1099 q 369 1065 331 1099 q 407 975 407 1031 m 386 354 l 293 711 q 272 815 277 783 q 264 757 269 779 q 163 354 259 735 l 386 354 m 191 972 q 211 915 191 937 q 272 893 231 893 q 331 915 309 893 q 354 972 354 937 q 333 1029 354 1007 q 272 1051 312 1051 q 213 1029 235 1051 q 191 972 191 1007 m 221 1141 l 254 1183 q 350 1329 323 1267 l 435 1329 l 435 1318 q 377 1242 417 1285 q 253 1128 337 1198 l 221 1128 l 221 1141 z "},"ǻ":{"ha":532,"x_min":53,"x_max":440,"o":"m 383 0 l 375 103 l 372 103 q 212 -14 319 -14 q 97 44 140 -14 q 53 197 53 101 q 116 364 53 302 q 293 431 179 425 l 372 435 l 372 496 q 347 646 372 599 q 261 693 321 693 q 132 652 198 693 l 104 703 q 265 750 181 750 q 396 693 356 750 q 436 501 436 635 l 436 0 l 383 0 m 227 41 q 334 110 296 41 q 372 302 372 178 l 372 379 l 296 375 q 164 326 207 370 q 121 196 121 281 q 149 79 121 116 q 227 41 178 41 m 412 951 q 376 856 412 890 q 277 821 339 821 q 178 856 214 821 q 142 948 142 890 q 179 1040 142 1006 q 277 1074 215 1074 q 374 1041 336 1074 q 412 951 412 1007 m 359 948 q 338 1005 359 983 q 277 1027 317 1027 q 218 1005 241 1027 q 195 948 195 983 q 216 890 195 912 q 277 869 237 869 q 337 890 314 869 q 359 948 359 912 m 226 1103 l 226 1117 q 355 1325 312 1230 l 440 1325 l 440 1314 q 360 1204 414 1266 q 258 1103 306 1143 l 226 1103 z "},"Ǽ":{"ha":782,"x_min":0,"x_max":715,"o":"m 715 0 l 355 0 l 355 359 l 174 359 l 71 0 l 0 0 l 294 991 l 715 991 l 715 926 l 422 926 l 422 551 l 699 551 l 699 488 l 422 488 l 422 64 l 715 64 l 715 0 m 192 427 l 355 427 l 355 925 l 336 925 l 192 427 m 379 1071 l 379 1085 q 509 1293 465 1198 l 593 1293 l 593 1282 q 513 1173 567 1234 q 411 1071 459 1111 l 379 1071 z "},"ǽ":{"ha":854,"x_min":53,"x_max":789,"o":"m 227 41 q 334 110 296 41 q 372 302 372 178 l 372 379 l 296 375 q 163 328 206 370 q 121 196 121 286 q 149 79 121 116 q 227 41 178 41 m 587 690 q 441 427 456 690 l 725 427 l 725 435 q 688 621 725 551 q 587 690 650 690 m 261 693 q 132 652 198 693 l 104 703 q 174 736 136 722 q 264 750 212 750 q 419 633 385 750 q 589 750 476 750 q 735 664 682 750 q 789 428 789 577 l 789 368 l 440 368 q 615 45 446 45 q 689 57 649 45 q 765 90 730 68 l 765 31 q 614 -14 697 -14 q 488 29 543 -14 q 407 150 433 72 q 328 24 376 62 q 212 -14 279 -14 q 97 44 140 -14 q 53 197 53 101 q 116 364 53 302 q 293 431 179 425 l 372 435 l 372 496 q 346 644 372 595 q 261 693 319 693 m 368 842 l 368 856 q 498 1064 454 968 l 583 1064 l 583 1053 q 502 943 556 1005 q 400 842 448 882 l 368 842 z "},"Ǿ":{"ha":722,"x_min":65,"x_max":667,"o":"m 647 497 q 573 119 647 251 q 361 -14 500 -14 q 184 64 254 -14 l 121 -64 l 65 -39 l 146 122 q 75 498 75 254 q 147 880 75 755 q 363 1006 219 1006 q 546 917 474 1006 l 611 1046 l 667 1018 l 583 856 q 647 497 647 727 m 144 497 q 184 199 144 306 l 513 848 q 363 942 459 942 q 199 828 254 942 q 144 497 144 715 m 361 50 q 523 162 467 50 q 578 497 578 274 q 545 777 578 667 l 218 129 q 361 50 271 50 m 291 1071 l 291 1085 q 420 1293 377 1198 l 505 1293 l 505 1282 q 425 1173 479 1234 q 323 1071 371 1111 l 291 1071 z "},"ǿ":{"ha":576,"x_min":46,"x_max":530,"o":"m 46 -69 l 122 85 q 64 370 64 184 q 289 750 64 750 q 422 692 368 750 l 479 807 l 530 779 l 461 637 q 513 370 513 537 q 454 85 513 184 q 286 -14 395 -14 q 161 33 210 -14 l 97 -97 l 46 -69 m 131 370 q 157 157 131 233 l 392 631 q 288 689 354 689 q 168 609 205 689 q 131 370 131 529 m 446 370 q 424 562 446 492 l 192 93 q 288 47 227 47 q 446 370 446 47 m 203 842 l 203 856 q 333 1064 290 968 l 418 1064 l 418 1053 q 337 943 391 1005 q 235 842 283 882 l 203 842 z "},"Ș":{"ha":549,"x_min":58,"x_max":489,"o":"m 489 260 q 421 62 489 138 q 249 -14 353 -14 q 58 21 130 -14 l 58 93 q 146 62 94 73 q 249 50 198 50 q 374 108 325 50 q 422 254 422 165 q 388 385 422 336 q 256 481 353 433 q 141 556 179 519 q 85 640 103 592 q 66 755 66 688 q 96 886 66 829 q 180 974 126 943 q 297 1006 233 1006 q 402 993 355 1006 q 476 965 449 980 l 450 901 q 297 940 375 940 q 178 890 224 940 q 132 758 132 840 q 165 629 132 675 q 296 533 199 583 q 443 419 396 484 q 489 260 489 353 m 174 -293 q 205 -191 189 -252 q 226 -85 222 -130 l 301 -85 l 301 -98 q 258 -210 287 -151 q 202 -307 230 -269 l 174 -307 l 174 -293 z "},"ș":{"ha":437,"x_min":50,"x_max":389,"o":"m 387 184 q 338 39 387 92 q 197 -14 290 -14 q 109 -1 147 -14 q 50 28 71 12 l 50 103 q 117 63 75 78 q 201 47 158 47 q 291 85 258 47 q 323 184 323 122 q 300 267 323 233 q 211 343 277 300 q 108 419 136 391 q 65 483 81 448 q 50 567 50 518 q 104 698 50 646 q 240 750 157 750 q 389 708 329 750 l 355 652 q 237 689 300 689 q 146 655 180 689 q 113 567 113 622 q 136 485 113 518 q 233 406 159 452 q 334 329 307 357 q 374 265 361 300 q 387 184 387 230 m 123 -293 q 154 -191 138 -252 q 174 -85 170 -130 l 250 -85 l 250 -98 q 207 -210 235 -151 q 151 -307 178 -269 l 123 -307 l 123 -293 z "},"ˆ":{"ha":785,"x_min":232,"x_max":551,"o":"m 519 842 q 458 910 498 863 l 392 986 q 324 908 358 948 q 261 842 290 869 l 232 842 l 232 854 q 358 1064 314 968 l 422 1064 q 476 966 439 1027 q 551 854 513 905 l 551 842 l 519 842 z "},"ˇ":{"ha":785,"x_min":232,"x_max":551,"o":"m 551 1064 l 551 1051 q 475 939 512 1000 q 422 842 439 878 l 358 842 q 232 1051 311 942 l 232 1064 l 261 1064 q 324 997 290 1037 q 392 920 358 958 l 425 957 q 519 1064 498 1044 l 551 1064 z "},"ˉ":{"ha":754,"x_min":224,"x_max":530,"o":"m 224 904 l 530 904 l 530 848 l 224 848 l 224 904 z "},"˘":{"ha":785,"x_min":244,"x_max":539,"o":"m 539 1003 q 497 887 537 929 q 387 844 458 844 q 244 1003 253 844 l 290 1003 q 321 927 295 953 q 390 901 347 901 q 490 1003 477 901 l 539 1003 z "},"˙":{"ha":261,"x_min":89,"x_max":174,"o":"m 89 940 q 101 987 89 970 q 134 1004 114 1004 q 163 987 152 1004 q 174 940 174 970 q 163 893 174 911 q 134 876 152 876 q 101 893 114 876 q 89 940 89 911 z "},"˚":{"ha":802,"x_min":267,"x_max":536,"o":"m 536 978 q 500 883 536 918 q 401 848 463 848 q 302 883 338 848 q 267 975 267 917 q 303 1067 267 1033 q 401 1101 339 1101 q 498 1068 460 1101 q 536 978 536 1034 m 484 975 q 463 1032 484 1010 q 401 1054 441 1054 q 342 1032 365 1054 q 319 975 319 1010 q 340 918 319 939 q 401 896 361 896 q 461 918 438 896 q 484 975 484 939 z "},"˛":{"ha":260,"x_min":46,"x_max":211,"o":"m 107 -176 q 172 -250 107 -250 q 211 -244 199 -250 l 211 -294 q 160 -302 191 -302 q 46 -183 46 -302 q 75 -82 46 -133 q 146 0 104 -31 l 196 0 q 127 -90 148 -48 q 107 -176 107 -132 z "},"˜":{"ha":785,"x_min":201,"x_max":582,"o":"m 473 843 q 427 857 450 843 q 382 886 404 870 q 343 916 361 902 q 309 929 324 929 q 272 905 287 929 q 252 842 258 880 l 201 842 q 237 946 210 907 q 314 985 265 985 q 360 971 338 985 q 403 942 382 958 q 443 912 424 926 q 478 899 461 899 q 514 923 502 899 q 532 986 526 947 l 582 986 q 547 880 576 918 q 473 843 519 843 z "},"˝":{"ha":787,"x_min":196,"x_max":572,"o":"m 196 842 l 196 856 q 259 957 227 896 q 311 1064 292 1019 l 392 1064 l 392 1053 q 317 941 363 1002 q 228 842 271 880 l 196 842 m 376 842 l 376 856 q 439 957 407 896 q 492 1064 472 1019 l 572 1064 l 572 1053 q 498 941 547 1003 q 408 842 450 879 l 376 842 z "},"΄":{"ha":802,"x_min":364,"x_max":504,"o":"m 364 856 q 401 978 380 901 q 429 1092 422 1055 l 504 1092 l 504 1078 q 459 964 488 1031 q 401 842 430 897 l 364 842 l 364 856 z "},"΅":{"ha":764,"x_min":228,"x_max":536,"o":"m 350 886 q 382 991 365 925 q 401 1095 399 1057 l 472 1095 l 472 1080 q 435 975 465 1046 q 383 872 405 904 l 350 872 l 350 886 m 228 872 q 241 915 228 901 q 271 928 254 928 q 299 915 286 928 q 313 872 313 901 q 299 829 313 843 q 271 815 286 815 q 241 829 254 815 q 228 872 228 843 m 452 872 q 465 915 452 901 q 493 928 477 928 q 523 915 510 928 q 536 872 536 901 q 523 829 536 843 q 493 815 510 815 q 465 829 477 815 q 452 872 452 843 z "},"Ά":{"ha":551,"x_min":0,"x_max":551,"o":"m 484 0 l 396 359 l 155 359 l 69 0 l 0 0 l 239 991 l 307 991 l 551 0 l 484 0 m 380 427 l 293 796 q 272 914 279 859 q 253 796 266 855 l 168 427 l 380 427 m 1 785 q 38 906 17 829 q 66 1021 59 983 l 140 1021 l 140 1006 q 96 893 125 960 q 38 770 66 825 l 1 770 l 1 785 z "},"·":{"ha":286,"x_min":90,"x_max":196,"o":"m 90 489 q 143 562 90 562 q 180 545 165 562 q 196 489 196 529 q 180 434 196 450 q 143 417 165 417 q 90 489 90 417 z "},"Έ":{"ha":625,"x_min":1,"x_max":558,"o":"m 558 0 l 199 0 l 199 991 l 558 991 l 558 928 l 265 928 l 265 551 l 542 551 l 542 488 l 265 488 l 265 64 l 558 64 l 558 0 m 1 785 q 38 906 17 829 q 66 1021 59 983 l 140 1021 l 140 1006 q 96 893 125 960 q 38 770 66 825 l 1 770 l 1 785 z "},"Ή":{"ha":789,"x_min":1,"x_max":680,"o":"m 680 0 l 614 0 l 614 488 l 268 488 l 268 0 l 201 0 l 201 991 l 268 991 l 268 551 l 614 551 l 614 991 l 680 991 l 680 0 m 1 785 q 38 906 17 829 q 66 1021 59 983 l 140 1021 l 140 1006 q 96 893 125 960 q 38 770 66 825 l 1 770 l 1 785 z "},"Ό":{"ha":791,"x_min":1,"x_max":716,"o":"m 716 497 q 643 119 716 251 q 430 -14 569 -14 q 217 120 290 -14 q 144 498 144 253 q 216 880 144 755 q 432 1006 288 1006 q 643 874 570 1006 q 716 497 716 742 m 214 497 q 269 163 214 276 q 430 50 324 50 q 592 162 536 50 q 647 497 647 274 q 593 830 647 718 q 432 942 538 942 q 268 828 323 942 q 214 497 214 715 m 1 785 q 38 906 17 829 q 66 1021 59 983 l 140 1021 l 140 1006 q 96 893 125 960 q 38 770 66 825 l 1 770 l 1 785 z "},"Ύ":{"ha":627,"x_min":1,"x_max":627,"o":"m 395 479 l 556 991 l 627 991 l 427 387 l 427 0 l 360 0 l 360 387 l 161 991 l 232 991 l 395 479 m 1 785 q 38 906 17 829 q 66 1021 59 983 l 140 1021 l 140 1006 q 96 893 125 960 q 38 770 66 825 l 1 770 l 1 785 z "},"Ώ":{"ha":803,"x_min":1,"x_max":758,"o":"m 436 942 q 275 840 330 942 q 219 550 219 737 q 255 257 219 374 q 380 35 292 139 l 380 0 l 114 0 l 114 64 l 288 64 q 188 266 225 138 q 150 550 150 395 q 222 889 150 772 q 436 1006 295 1006 q 647 884 572 1006 q 722 550 722 763 q 585 64 722 238 l 758 64 l 758 0 l 492 0 l 492 35 q 619 263 586 158 q 652 550 652 368 q 595 840 652 739 q 436 942 538 942 m 1 785 q 38 906 17 829 q 66 1021 59 983 l 140 1021 l 140 1006 q 96 893 125 960 q 38 770 66 825 l 1 770 l 1 785 z "},"ΐ":{"ha":302,"x_min":-20,"x_max":288,"o":"m 163 736 l 163 150 q 175 70 163 93 q 218 47 188 47 q 255 52 234 47 q 281 58 277 56 l 281 0 q 205 -14 246 -14 q 124 25 149 -14 q 98 150 98 64 l 98 736 l 163 736 m 102 886 q 134 991 117 925 q 153 1095 151 1057 l 224 1095 l 224 1080 q 187 975 217 1046 q 135 872 157 904 l 102 872 l 102 886 m -20 872 q -7 915 -20 901 q 22 928 6 928 q 51 915 38 928 q 64 872 64 901 q 51 829 64 843 q 22 815 38 815 q -7 829 6 815 q -20 872 -20 843 m 203 872 q 216 915 203 901 q 245 928 229 928 q 275 915 262 928 q 288 872 288 901 q 275 829 288 843 q 245 815 262 815 q 216 829 229 815 q 203 872 203 843 z "},"Α":{"ha":551,"x_min":0,"x_max":551,"o":"m 484 0 l 396 359 l 155 359 l 69 0 l 0 0 l 239 991 l 307 991 l 551 0 l 484 0 m 380 427 l 293 796 q 272 914 279 859 q 253 796 266 855 l 168 427 l 380 427 z "},"Β":{"ha":615,"x_min":109,"x_max":561,"o":"m 109 991 l 298 991 q 478 932 415 991 q 541 755 541 872 q 393 525 541 554 l 393 519 q 519 444 478 502 q 561 282 561 386 q 502 75 561 149 q 336 0 443 0 l 109 0 l 109 991 m 175 550 l 300 550 q 432 601 393 550 q 472 757 472 652 q 428 886 472 841 q 298 930 385 930 l 175 930 l 175 550 m 175 489 l 175 61 l 328 61 q 492 283 492 61 q 444 436 492 382 q 309 489 395 489 l 175 489 z "},"Γ":{"ha":465,"x_min":109,"x_max":454,"o":"m 454 991 l 454 928 l 175 928 l 175 0 l 109 0 l 109 991 l 454 991 z "},"Δ":{"ha":546,"x_min":16,"x_max":530,"o":"m 16 65 l 236 991 l 306 991 l 530 57 l 530 0 l 16 0 l 16 65 m 269 892 q 253 805 260 845 q 89 64 245 766 l 457 64 l 325 635 q 269 892 283 820 z "},"Ε":{"ha":534,"x_min":109,"x_max":468,"o":"m 468 0 l 109 0 l 109 991 l 468 991 l 468 928 l 175 928 l 175 551 l 452 551 l 452 488 l 175 488 l 175 64 l 468 64 l 468 0 z "},"Ζ":{"ha":436,"x_min":39,"x_max":408,"o":"m 408 0 l 39 0 l 39 60 l 326 926 l 43 926 l 43 991 l 400 991 l 400 930 l 109 64 l 408 64 l 408 0 z "},"Η":{"ha":696,"x_min":109,"x_max":587,"o":"m 587 0 l 521 0 l 521 488 l 175 488 l 175 0 l 109 0 l 109 991 l 175 991 l 175 551 l 521 551 l 521 991 l 587 991 l 587 0 z "},"Θ":{"ha":722,"x_min":75,"x_max":647,"o":"m 647 497 q 573 119 647 251 q 361 -14 500 -14 q 148 120 220 -14 q 75 498 75 253 q 147 880 75 755 q 363 1006 219 1006 q 574 874 501 1006 q 647 497 647 742 m 144 497 q 200 163 144 276 q 361 50 255 50 q 523 162 467 50 q 578 497 578 274 q 524 830 578 718 q 363 942 469 942 q 199 828 254 942 q 144 497 144 715 m 231 538 l 492 538 l 492 473 l 231 473 l 231 538 z "},"Κ":{"ha":559,"x_min":109,"x_max":559,"o":"m 559 0 l 485 0 l 252 494 l 175 393 l 175 0 l 109 0 l 109 991 l 175 991 l 175 467 q 468 991 210 532 l 541 991 l 292 555 l 559 0 z "},"Λ":{"ha":551,"x_min":0,"x_max":551,"o":"m 272 914 q 253 796 267 857 l 69 0 l 0 0 l 239 991 l 307 991 l 551 0 l 484 0 l 293 796 q 272 914 279 859 z "},"Μ":{"ha":946,"x_min":109,"x_max":838,"o":"m 435 0 l 171 903 l 165 903 q 172 722 172 760 l 172 0 l 109 0 l 109 991 l 207 991 l 429 233 q 468 62 459 133 l 473 62 q 515 232 480 113 l 736 991 l 838 991 l 838 0 l 771 0 l 771 717 q 778 901 771 759 l 772 901 l 510 0 l 435 0 z "},"Ν":{"ha":739,"x_min":109,"x_max":631,"o":"m 631 0 l 546 0 l 171 889 l 165 889 q 174 711 174 797 l 174 0 l 109 0 l 109 991 l 195 991 l 567 113 l 571 113 q 566 298 566 224 l 566 991 l 631 991 l 631 0 z "},"Ξ":{"ha":514,"x_min":66,"x_max":447,"o":"m 81 991 l 433 991 l 433 928 l 81 928 l 81 991 m 447 64 l 447 0 l 66 0 l 66 64 l 447 64 m 106 551 l 408 551 l 408 488 l 106 488 l 106 551 z "},"Ο":{"ha":722,"x_min":75,"x_max":647,"o":"m 647 497 q 573 119 647 251 q 361 -14 500 -14 q 148 120 220 -14 q 75 498 75 253 q 147 880 75 755 q 363 1006 219 1006 q 574 874 501 1006 q 647 497 647 742 m 144 497 q 200 163 144 276 q 361 50 255 50 q 523 162 467 50 q 578 497 578 274 q 524 830 578 718 q 363 942 469 942 q 199 828 254 942 q 144 497 144 715 z "},"Π":{"ha":696,"x_min":109,"x_max":587,"o":"m 587 0 l 521 0 l 521 928 l 175 928 l 175 0 l 109 0 l 109 991 l 587 991 l 587 0 z "},"Ρ":{"ha":570,"x_min":109,"x_max":524,"o":"m 524 707 q 453 481 524 553 q 245 410 383 410 l 175 410 l 175 0 l 109 0 l 109 991 l 244 991 q 456 923 389 991 q 524 707 524 854 m 175 471 l 241 471 q 407 526 358 471 q 456 707 456 581 q 405 879 456 827 q 249 930 355 930 l 175 930 l 175 471 z "},"Σ":{"ha":511,"x_min":41,"x_max":481,"o":"m 41 0 l 41 57 l 272 515 l 50 936 l 50 991 l 460 991 l 460 928 l 126 928 l 347 515 l 115 64 l 481 64 l 481 0 l 41 0 z "},"Τ":{"ha":482,"x_min":9,"x_max":471,"o":"m 273 0 l 207 0 l 207 928 l 9 928 l 9 991 l 471 991 l 471 928 l 273 928 l 273 0 z "},"Υ":{"ha":465,"x_min":0,"x_max":465,"o":"m 233 479 l 395 991 l 465 991 l 265 387 l 265 0 l 199 0 l 199 387 l 0 991 l 71 991 l 233 479 z "},"Φ":{"ha":817,"x_min":72,"x_max":745,"o":"m 375 1006 l 441 1006 l 441 884 q 664 786 584 884 q 745 519 745 688 q 664 241 745 344 q 441 139 583 139 l 441 -14 l 375 -14 l 375 139 q 213 187 281 139 q 108 321 144 235 q 72 519 72 408 q 109 707 72 623 q 215 837 146 790 q 375 884 283 884 l 375 1006 m 441 200 q 615 283 555 200 q 675 519 675 366 q 441 822 675 822 l 441 200 m 375 822 q 202 743 262 822 q 142 519 142 663 q 201 283 142 366 q 375 200 261 200 l 375 822 z "},"Χ":{"ha":485,"x_min":14,"x_max":471,"o":"m 471 0 l 401 0 l 253 456 l 81 0 l 14 0 l 221 526 l 43 991 l 113 991 l 260 579 l 403 991 l 471 991 l 296 511 l 471 0 z "},"Ψ":{"ha":800,"x_min":97,"x_max":703,"o":"m 433 0 l 367 0 l 367 306 q 161 396 224 306 q 97 681 97 486 l 97 991 l 164 991 l 164 682 q 184 501 164 569 q 247 401 205 433 q 367 370 289 370 l 367 991 l 433 991 l 433 370 q 553 400 510 370 q 616 499 595 431 q 636 682 636 567 l 636 991 l 703 991 l 703 681 q 639 396 703 486 q 433 306 575 306 l 433 0 z "},"Ω":{"ha":733,"x_min":45,"x_max":689,"o":"m 367 942 q 205 840 261 942 q 150 550 150 737 q 186 257 150 374 q 311 35 222 139 l 311 0 l 45 0 l 45 64 l 218 64 q 118 266 156 138 q 81 550 81 395 q 153 889 81 772 q 367 1006 226 1006 q 578 884 503 1006 q 653 550 653 763 q 515 64 653 238 l 689 64 l 689 0 l 422 0 l 422 35 q 550 263 517 158 q 583 550 583 368 q 526 840 583 739 q 367 942 469 942 z "},"Ϋ":{"ha":465,"x_min":0,"x_max":465,"o":"m 233 479 l 395 991 l 465 991 l 265 387 l 265 0 l 199 0 l 199 387 l 0 991 l 71 991 l 233 479 m 88 1171 q 101 1213 88 1200 q 132 1226 115 1226 q 160 1213 147 1226 q 173 1171 173 1200 q 160 1128 173 1141 q 132 1114 147 1114 q 101 1128 115 1114 q 88 1171 88 1141 m 295 1171 q 308 1213 295 1200 q 337 1226 321 1226 q 367 1213 354 1226 q 380 1171 380 1200 q 367 1128 380 1141 q 337 1114 354 1114 q 308 1128 321 1114 q 295 1171 295 1141 z "},"ά":{"ha":615,"x_min":65,"x_max":604,"o":"m 509 144 q 561 39 509 39 q 604 47 585 39 l 604 -3 q 558 -14 587 -14 q 483 14 509 -14 q 450 106 456 41 l 444 106 q 374 17 418 48 q 277 -14 330 -14 q 120 80 174 -14 q 65 367 65 174 q 122 656 65 562 q 279 750 179 750 q 450 628 391 750 l 456 628 q 467 684 458 652 q 488 736 476 715 l 532 736 q 509 500 509 667 l 509 144 m 286 45 q 404 124 363 45 q 444 349 444 204 l 444 367 q 404 611 444 534 q 281 689 363 689 q 167 606 201 689 q 132 366 132 523 q 169 121 132 197 q 286 45 206 45 m 251 856 q 288 978 267 901 q 316 1092 309 1055 l 391 1092 l 391 1078 q 346 964 375 1031 q 288 842 317 897 l 251 842 l 251 856 z "},"έ":{"ha":436,"x_min":58,"x_max":400,"o":"m 304 419 l 304 361 l 267 361 q 161 318 197 361 q 125 196 125 275 q 141 114 125 146 q 186 64 158 81 q 250 47 215 47 q 324 59 285 47 q 393 92 363 70 l 393 28 q 329 -3 364 7 q 241 -14 293 -14 q 109 44 159 -14 q 58 200 58 101 q 92 322 58 273 q 186 390 125 371 l 186 396 q 85 568 85 438 q 135 700 85 650 q 265 750 185 750 q 400 708 336 750 l 368 654 q 264 689 318 689 q 178 655 208 689 q 149 566 149 622 q 182 457 149 496 q 275 419 216 419 l 304 419 m 220 856 q 258 978 237 901 q 286 1092 279 1055 l 360 1092 l 360 1078 q 315 964 345 1031 q 258 842 286 897 l 220 842 l 220 856 z "},"ή":{"ha":590,"x_min":98,"x_max":494,"o":"m 431 -334 l 431 507 q 322 690 431 690 q 201 622 239 690 q 163 404 163 553 l 163 0 l 98 0 l 98 736 l 153 736 l 158 633 l 164 633 q 231 720 187 689 q 323 750 274 750 q 452 693 409 750 q 494 509 494 635 l 494 -334 l 431 -334 m 255 856 q 292 978 271 901 q 320 1092 313 1055 l 395 1092 l 395 1078 q 350 964 379 1031 q 292 842 321 897 l 255 842 l 255 856 z "},"ί":{"ha":302,"x_min":94,"x_max":281,"o":"m 163 736 l 163 150 q 175 70 163 93 q 218 47 188 47 q 255 52 234 47 q 281 58 277 56 l 281 0 q 205 -14 246 -14 q 124 25 149 -14 q 98 150 98 64 l 98 736 l 163 736 m 94 856 q 132 978 111 901 q 159 1092 153 1055 l 234 1092 l 234 1078 q 189 964 218 1031 q 132 842 160 897 l 94 842 l 94 856 z "},"ΰ":{"ha":566,"x_min":96,"x_max":507,"o":"m 160 301 q 188 104 160 163 q 285 46 216 46 q 443 354 443 46 q 433 558 443 471 q 400 736 424 646 l 465 736 q 495 575 489 623 q 504 471 501 527 q 507 355 507 415 q 451 81 507 176 q 289 -14 395 -14 q 175 17 216 -14 q 115 117 134 48 q 96 306 96 186 l 96 736 l 160 736 l 160 301 m 254 886 q 286 991 269 925 q 305 1095 302 1057 l 376 1095 l 376 1080 q 339 975 369 1046 q 287 872 309 904 l 254 872 l 254 886 m 132 872 q 145 915 132 901 q 174 928 158 928 q 203 915 190 928 q 216 872 216 901 q 203 829 216 843 q 174 815 190 815 q 145 829 158 815 q 132 872 132 843 m 355 872 q 368 915 355 901 q 397 928 381 928 q 427 915 414 928 q 440 872 440 901 q 427 829 440 843 q 397 815 414 815 q 368 829 381 815 q 355 872 355 843 z "},"α":{"ha":615,"x_min":65,"x_max":604,"o":"m 509 144 q 561 39 509 39 q 604 47 585 39 l 604 -3 q 558 -14 587 -14 q 483 14 509 -14 q 450 106 456 41 l 444 106 q 374 17 418 48 q 277 -14 330 -14 q 120 80 174 -14 q 65 367 65 174 q 122 656 65 562 q 279 750 179 750 q 450 628 391 750 l 456 628 q 467 684 458 652 q 488 736 476 715 l 532 736 q 509 500 509 667 l 509 144 m 286 45 q 404 124 363 45 q 444 349 444 204 l 444 367 q 404 611 444 534 q 281 689 363 689 q 167 606 201 689 q 132 366 132 523 q 169 121 132 197 q 286 45 206 45 z "},"β":{"ha":603,"x_min":98,"x_max":539,"o":"m 306 1063 q 449 996 397 1063 q 501 810 501 928 q 468 632 501 692 q 357 561 434 573 l 357 555 q 495 474 452 543 q 539 269 539 404 q 480 59 539 132 q 313 -14 420 -14 q 237 -4 270 -14 q 163 35 205 5 l 163 -334 l 98 -334 l 98 793 q 154 992 98 922 q 306 1063 209 1063 m 304 1002 q 200 948 238 1002 q 163 796 163 895 l 163 100 q 234 61 194 74 q 310 47 273 47 q 433 105 395 47 q 472 278 472 162 q 428 466 472 405 q 290 526 383 526 l 261 526 l 261 587 l 286 587 q 402 639 367 587 q 437 804 437 690 q 402 952 437 903 q 304 1002 367 1002 z "},"γ":{"ha":437,"x_min":7,"x_max":431,"o":"m 216 -334 l 153 -334 q 164 -178 153 -271 q 191 -20 176 -86 l 7 736 l 72 736 l 160 370 q 196 216 178 289 q 220 81 213 142 l 225 81 q 281 372 245 216 l 366 736 l 431 736 l 269 56 q 231 -156 245 -48 q 216 -334 216 -263 z "},"δ":{"ha":587,"x_min":65,"x_max":524,"o":"m 286 640 q 172 781 201 728 q 143 889 143 834 q 196 1009 143 964 q 334 1054 249 1054 q 429 1040 387 1054 q 496 1011 471 1027 l 468 954 q 330 993 404 993 q 241 964 275 993 q 208 888 208 935 q 221 826 208 857 q 261 762 235 795 q 359 656 288 728 q 488 483 452 563 q 524 306 524 404 q 461 71 524 155 q 292 -14 399 -14 q 126 71 187 -14 q 65 300 65 155 q 126 510 65 417 q 286 640 188 603 m 457 307 q 426 456 457 385 q 323 600 395 527 q 182 484 233 565 q 132 297 132 403 q 177 116 132 188 q 292 45 221 45 q 414 113 372 45 q 457 307 457 181 z "},"ε":{"ha":436,"x_min":58,"x_max":400,"o":"m 304 419 l 304 361 l 267 361 q 161 318 197 361 q 125 196 125 275 q 141 114 125 146 q 186 64 158 81 q 250 47 215 47 q 324 59 285 47 q 393 92 363 70 l 393 28 q 329 -3 364 7 q 241 -14 293 -14 q 109 44 159 -14 q 58 200 58 101 q 92 322 58 273 q 186 390 125 371 l 186 396 q 85 568 85 438 q 135 700 85 650 q 265 750 185 750 q 400 708 336 750 l 368 654 q 264 689 318 689 q 178 655 208 689 q 149 566 149 622 q 182 457 149 496 q 275 419 216 419 l 304 419 z "},"ζ":{"ha":432,"x_min":65,"x_max":407,"o":"m 87 997 l 87 1055 l 407 1055 l 407 1002 q 249 753 309 870 q 161 534 189 636 q 132 318 132 432 q 142 206 132 249 q 176 135 153 163 q 252 77 199 106 q 342 17 311 43 q 385 -35 373 -9 q 397 -106 397 -61 q 375 -189 397 -137 q 317 -286 352 -241 l 249 -286 q 308 -192 285 -239 q 330 -110 330 -144 q 302 -40 330 -71 q 220 20 275 -9 q 124 91 154 55 q 80 178 95 126 q 65 310 65 231 q 126 627 65 475 q 342 1002 187 779 q 200 997 290 997 l 87 997 z "},"η":{"ha":590,"x_min":98,"x_max":494,"o":"m 431 -334 l 431 507 q 322 690 431 690 q 201 622 239 690 q 163 404 163 553 l 163 0 l 98 0 l 98 736 l 153 736 l 158 633 l 164 633 q 231 720 187 689 q 323 750 274 750 q 452 693 409 750 q 494 509 494 635 l 494 -334 l 431 -334 z "},"θ":{"ha":604,"x_min":65,"x_max":541,"o":"m 541 530 q 300 -14 541 -14 q 65 529 65 -14 q 127 933 65 795 q 304 1071 189 1071 q 541 530 541 1071 m 301 47 q 473 515 467 47 l 132 515 q 301 47 139 47 m 301 1010 q 179 900 220 1010 q 132 574 138 789 l 473 574 q 426 899 468 788 q 301 1010 385 1010 z "},"ι":{"ha":302,"x_min":98,"x_max":281,"o":"m 163 736 l 163 150 q 175 70 163 93 q 218 47 188 47 q 255 52 234 47 q 281 58 277 56 l 281 0 q 205 -14 246 -14 q 124 25 149 -14 q 98 150 98 64 l 98 736 l 163 736 z "},"κ":{"ha":482,"x_min":98,"x_max":472,"o":"m 164 364 q 193 418 179 393 q 387 736 207 443 l 457 736 l 288 465 l 472 0 l 404 0 l 244 406 l 163 298 l 163 0 l 98 0 l 98 736 l 163 736 l 163 488 q 158 364 163 415 l 164 364 z "},"λ":{"ha":485,"x_min":14,"x_max":498,"o":"m 236 624 l 231 624 q 214 540 224 585 q 78 0 203 495 l 14 0 l 208 739 l 176 892 q 146 979 164 952 q 93 1006 127 1006 q 53 999 68 1006 l 53 1055 q 100 1064 72 1064 q 188 1024 156 1064 q 235 911 219 984 l 392 158 q 419 72 404 99 q 463 45 435 45 q 498 52 485 45 l 498 -5 q 454 -14 480 -14 q 377 26 405 -14 q 334 139 349 66 l 268 453 q 252 541 258 495 q 236 624 245 586 z "},"μ":{"ha":593,"x_min":98,"x_max":494,"o":"m 163 736 l 163 239 q 269 46 163 46 q 392 114 353 46 q 431 332 431 181 l 431 736 l 494 736 l 494 0 l 440 0 l 432 103 l 427 103 q 362 17 404 48 q 275 -14 321 -14 q 163 58 195 -14 l 157 58 q 163 -66 163 -23 l 163 -334 l 98 -334 l 98 736 l 163 736 z "},"ν":{"ha":490,"x_min":21,"x_max":452,"o":"m 21 736 l 86 736 l 182 267 q 216 74 209 139 l 222 74 q 387 736 387 341 l 452 736 q 400 340 452 515 q 236 0 348 164 l 176 0 l 21 736 z "},"ξ":{"ha":436,"x_min":65,"x_max":397,"o":"m 244 1002 q 144 997 194 997 l 74 997 l 74 1055 l 387 1055 l 387 1002 l 372 1002 q 216 939 277 1002 q 155 781 155 877 q 193 632 155 675 q 317 589 231 589 l 367 589 l 367 526 l 306 526 q 178 468 223 526 q 132 289 132 410 q 159 152 132 199 q 252 77 185 104 q 363 2 328 43 q 397 -106 397 -39 q 375 -189 397 -137 q 317 -286 352 -241 l 249 -286 q 308 -192 285 -239 q 330 -110 330 -144 q 220 20 330 -24 q 101 115 136 54 q 65 279 65 176 q 110 468 65 393 q 235 554 155 543 l 235 559 q 125 625 159 573 q 92 781 92 677 q 134 919 92 859 q 244 1002 177 980 z "},"ο":{"ha":576,"x_min":64,"x_max":513,"o":"m 513 370 q 454 85 513 184 q 286 -14 395 -14 q 121 85 178 -14 q 64 370 64 184 q 289 750 64 750 q 454 650 395 750 q 513 370 513 551 m 131 370 q 169 129 131 210 q 288 47 207 47 q 446 370 446 47 q 288 689 446 689 q 168 609 205 689 q 131 370 131 529 z "},"π":{"ha":590,"x_min":9,"x_max":566,"o":"m 519 52 l 555 54 l 555 -3 q 504 -8 543 -8 q 422 33 448 -8 q 396 158 396 75 l 396 677 l 178 677 l 178 0 l 113 0 l 113 677 l 9 677 l 9 701 l 62 736 l 566 736 l 566 677 l 461 677 l 461 158 q 475 76 461 100 q 519 52 489 52 z "},"ρ":{"ha":600,"x_min":96,"x_max":536,"o":"m 536 371 q 478 84 536 182 q 307 -14 420 -14 q 158 49 207 -14 l 153 49 l 156 -10 q 160 -132 160 -87 l 160 -334 l 96 -334 l 96 385 q 317 750 96 750 q 480 657 423 750 q 536 371 536 564 m 313 689 q 197 613 234 689 q 160 382 160 538 l 160 115 q 298 45 212 45 q 429 129 389 45 q 469 371 469 214 q 432 609 469 528 q 313 689 394 689 z "},"ς":{"ha":416,"x_min":65,"x_max":403,"o":"m 249 -286 q 308 -192 285 -239 q 330 -110 330 -144 q 302 -40 330 -71 q 220 20 275 -9 q 123 96 152 56 q 79 202 94 137 q 65 364 65 267 q 122 651 65 553 q 289 750 178 750 q 403 725 357 750 l 379 667 q 294 689 326 689 q 132 366 132 689 q 142 225 132 277 q 173 141 151 173 q 252 77 195 109 q 342 17 311 43 q 385 -35 373 -9 q 397 -106 397 -61 q 375 -189 397 -137 q 317 -286 352 -241 l 249 -286 z "},"σ":{"ha":583,"x_min":65,"x_max":558,"o":"m 505 343 q 447 76 505 166 q 283 -14 388 -14 q 122 80 180 -14 q 65 354 65 174 q 335 736 65 736 l 558 736 l 558 677 l 435 677 q 505 343 505 543 m 439 343 q 376 677 439 519 l 334 677 q 181 601 229 677 q 132 358 132 524 q 285 45 132 45 q 400 121 361 45 q 439 343 439 197 z "},"τ":{"ha":371,"x_min":0,"x_max":350,"o":"m 186 677 l 186 203 q 207 83 186 123 q 272 43 227 43 q 343 54 311 43 l 343 -3 q 311 -12 336 -7 q 268 -17 285 -17 q 156 36 191 -17 q 122 197 122 89 l 122 677 l 0 677 l 0 701 l 52 736 l 350 736 l 350 677 l 186 677 z "},"υ":{"ha":566,"x_min":96,"x_max":507,"o":"m 160 301 q 188 104 160 163 q 285 46 216 46 q 443 354 443 46 q 433 558 443 471 q 400 736 424 646 l 465 736 q 495 575 489 623 q 504 471 501 527 q 507 355 507 415 q 451 81 507 176 q 289 -14 395 -14 q 175 17 216 -14 q 115 117 134 48 q 96 306 96 186 l 96 736 l 160 736 l 160 301 z "},"φ":{"ha":734,"x_min":65,"x_max":671,"o":"m 334 -334 l 334 -14 q 133 96 201 -2 q 65 375 65 193 q 201 739 65 584 l 252 700 q 132 375 132 568 q 183 140 132 223 q 334 45 235 56 l 334 530 q 479 753 334 753 q 619 657 568 753 q 671 396 671 561 q 599 106 671 214 q 397 -14 527 -2 l 397 -334 l 334 -334 m 604 395 q 588 552 604 484 q 543 657 572 621 q 478 693 513 693 q 415 651 433 693 q 397 522 397 610 l 397 45 q 507 96 459 52 q 579 217 554 140 q 604 395 604 293 z "},"χ":{"ha":469,"x_min":7,"x_max":469,"o":"m 248 332 l 383 736 l 450 736 l 271 231 l 363 -161 q 391 -248 376 -220 q 433 -275 406 -275 q 469 -268 454 -275 l 469 -325 q 425 -334 449 -334 q 352 -298 382 -334 q 304 -180 323 -262 l 231 132 l 75 -334 l 7 -334 l 207 233 l 127 572 q 97 664 112 641 q 57 686 81 686 q 21 679 34 686 l 21 736 q 65 745 39 745 q 138 709 109 745 q 186 591 168 673 l 248 332 z "},"ψ":{"ha":663,"x_min":90,"x_max":596,"o":"m 154 353 q 192 130 154 206 q 307 46 229 53 l 307 1055 l 371 1055 l 371 46 q 491 140 452 52 q 529 403 529 229 q 486 736 529 566 l 551 736 q 596 400 596 561 q 538 98 596 203 q 371 -14 481 -8 l 371 -334 l 307 -334 l 307 -14 q 146 82 201 -11 q 90 347 90 175 l 90 736 l 154 736 l 154 353 z "},"ω":{"ha":659,"x_min":66,"x_max":591,"o":"m 328 106 q 285 18 316 50 q 207 -14 254 -14 q 103 81 139 -14 q 66 355 66 176 q 132 736 66 553 l 195 736 q 131 354 131 553 q 218 47 131 47 q 278 106 258 47 q 298 273 298 165 l 298 458 l 359 458 l 359 273 q 380 106 359 165 q 440 47 400 47 q 528 354 528 47 q 464 736 528 553 l 526 736 q 591 355 591 555 q 574 154 591 236 q 524 29 557 72 q 447 -14 492 -14 q 372 18 402 -14 q 330 106 342 50 l 328 106 z "},"ϊ":{"ha":302,"x_min":-9,"x_max":283,"o":"m 163 736 l 163 150 q 175 70 163 93 q 218 47 188 47 q 255 52 234 47 q 281 58 277 56 l 281 0 q 205 -14 246 -14 q 124 25 149 -14 q 98 150 98 64 l 98 736 l 163 736 m -9 942 q 4 984 -9 971 q 35 997 18 997 q 63 984 50 997 q 76 942 76 971 q 63 899 76 912 q 35 885 50 885 q 4 899 18 885 q -9 942 -9 912 m 198 942 q 211 984 198 971 q 240 997 224 997 q 270 984 257 997 q 283 942 283 971 q 270 899 283 912 q 240 885 257 885 q 211 899 224 885 q 198 942 198 912 z "},"ϋ":{"ha":566,"x_min":96,"x_max":507,"o":"m 160 301 q 188 104 160 163 q 285 46 216 46 q 443 354 443 46 q 433 558 443 471 q 400 736 424 646 l 465 736 q 495 575 489 623 q 504 471 501 527 q 507 355 507 415 q 451 81 507 176 q 289 -14 395 -14 q 175 17 216 -14 q 115 117 134 48 q 96 306 96 186 l 96 736 l 160 736 l 160 301 m 144 942 q 157 984 144 971 q 187 997 170 997 q 216 984 203 997 q 229 942 229 971 q 216 899 229 912 q 187 885 203 885 q 157 899 170 885 q 144 942 144 912 m 351 942 q 364 984 351 971 q 393 997 377 997 q 422 984 410 997 q 435 942 435 971 q 422 899 435 912 q 393 885 410 885 q 364 899 377 885 q 351 942 351 912 z "},"ό":{"ha":576,"x_min":64,"x_max":513,"o":"m 513 370 q 454 85 513 184 q 286 -14 395 -14 q 121 85 178 -14 q 64 370 64 184 q 289 750 64 750 q 454 650 395 750 q 513 370 513 551 m 131 370 q 169 129 131 210 q 288 47 207 47 q 446 370 446 47 q 288 689 446 689 q 168 609 205 689 q 131 370 131 529 m 243 856 q 280 978 259 901 q 308 1092 301 1055 l 382 1092 l 382 1078 q 338 964 367 1031 q 280 842 309 897 l 243 842 l 243 856 z "},"ύ":{"ha":566,"x_min":96,"x_max":507,"o":"m 160 301 q 188 104 160 163 q 285 46 216 46 q 443 354 443 46 q 433 558 443 471 q 400 736 424 646 l 465 736 q 495 575 489 623 q 504 471 501 527 q 507 355 507 415 q 451 81 507 176 q 289 -14 395 -14 q 175 17 216 -14 q 115 117 134 48 q 96 306 96 186 l 96 736 l 160 736 l 160 301 m 250 856 q 287 978 266 901 q 315 1092 308 1055 l 389 1092 l 389 1078 q 345 964 374 1031 q 287 842 315 897 l 250 842 l 250 856 z "},"ώ":{"ha":659,"x_min":66,"x_max":591,"o":"m 328 106 q 285 18 316 50 q 207 -14 254 -14 q 103 81 139 -14 q 66 355 66 176 q 132 736 66 553 l 195 736 q 131 354 131 553 q 218 47 131 47 q 278 106 258 47 q 298 273 298 165 l 298 458 l 359 458 l 359 273 q 380 106 359 165 q 440 47 400 47 q 528 354 528 47 q 464 736 528 553 l 526 736 q 591 355 591 555 q 574 154 591 236 q 524 29 557 72 q 447 -14 492 -14 q 372 18 402 -14 q 330 106 342 50 l 328 106 m 291 856 q 328 978 307 901 q 356 1092 349 1055 l 431 1092 l 431 1078 q 386 964 415 1031 q 328 842 357 897 l 291 842 l 291 856 z "},"Ё":{"ha":534,"x_min":109,"x_max":468,"o":"m 468 0 l 109 0 l 109 991 l 468 991 l 468 928 l 175 928 l 175 551 l 452 551 l 452 488 l 175 488 l 175 64 l 468 64 l 468 0 m 137 1171 q 150 1213 137 1200 q 180 1226 163 1226 q 209 1213 196 1226 q 222 1171 222 1200 q 209 1128 222 1141 q 180 1114 196 1114 q 150 1128 163 1114 q 137 1171 137 1141 m 344 1171 q 357 1213 344 1200 q 386 1226 370 1226 q 416 1213 403 1226 q 429 1171 429 1200 q 416 1128 429 1141 q 386 1114 403 1114 q 357 1128 370 1114 q 344 1171 344 1141 z "},"Ђ":{"ha":631,"x_min":9,"x_max":553,"o":"m 553 203 q 511 43 553 99 q 395 -14 470 -14 q 329 0 357 -14 l 329 64 q 393 50 362 50 q 463 88 440 50 q 486 205 486 125 l 486 368 q 450 492 486 453 q 330 530 413 530 l 239 530 l 239 0 l 172 0 l 172 928 l 9 928 l 9 991 l 428 991 l 428 928 l 239 928 l 239 595 l 328 595 q 497 540 442 595 q 553 368 553 486 l 553 203 z "},"Ѓ":{"ha":465,"x_min":109,"x_max":454,"o":"m 454 991 l 454 928 l 175 928 l 175 0 l 109 0 l 109 991 l 454 991 m 220 1071 l 220 1085 q 349 1293 306 1198 l 434 1293 l 434 1282 q 354 1173 408 1234 q 252 1071 300 1111 l 220 1071 z "},"Є":{"ha":583,"x_min":75,"x_max":550,"o":"m 379 943 q 216 839 277 943 q 146 551 154 735 l 456 551 l 456 488 l 144 488 q 210 167 146 283 q 383 50 275 50 q 467 61 435 50 q 524 86 498 71 l 524 25 q 378 -14 466 -14 q 218 48 287 -14 q 112 226 149 109 q 75 498 75 342 q 157 871 75 735 q 380 1007 238 1007 q 550 957 477 1007 l 518 900 q 379 943 454 943 z "},"Ѕ":{"ha":549,"x_min":58,"x_max":489,"o":"m 489 260 q 421 62 489 138 q 249 -14 353 -14 q 58 21 130 -14 l 58 93 q 146 62 94 73 q 249 50 198 50 q 374 108 325 50 q 422 254 422 165 q 388 385 422 336 q 256 481 353 433 q 141 556 179 519 q 85 640 103 592 q 66 755 66 688 q 96 886 66 829 q 180 974 126 943 q 297 1006 233 1006 q 402 993 355 1006 q 476 965 449 980 l 450 901 q 297 940 375 940 q 178 890 224 940 q 132 758 132 840 q 165 629 132 675 q 296 533 199 583 q 443 419 396 484 q 489 260 489 353 z "},"Ј":{"ha":272,"x_min":-61,"x_max":168,"o":"m 18 -250 q -61 -233 -27 -250 l -61 -171 q 17 -184 -28 -184 q 81 -145 60 -184 q 102 -17 102 -106 l 102 991 l 168 991 l 168 -16 q 130 -191 168 -132 q 18 -250 92 -250 z "},"Љ":{"ha":871,"x_min":-14,"x_max":818,"o":"m 818 278 q 750 74 818 149 q 559 0 682 0 l 414 0 l 414 928 l 261 928 l 235 605 q 186 161 205 252 q 135 30 168 69 q 37 -9 102 -9 q -14 3 6 -9 l -14 65 q 33 54 2 54 q 71 63 56 54 q 99 97 86 72 q 121 170 111 123 q 140 295 131 218 q 203 991 149 372 l 481 991 l 481 551 l 558 551 q 754 486 690 551 q 818 278 818 421 m 481 61 l 562 61 q 702 117 654 61 q 750 278 750 173 q 704 439 750 387 q 561 490 658 490 l 481 490 l 481 61 z "},"Њ":{"ha":909,"x_min":109,"x_max":860,"o":"m 522 551 l 600 551 q 797 485 733 551 q 860 278 860 419 q 791 74 860 148 q 602 0 722 0 l 456 0 l 456 490 l 175 490 l 175 0 l 109 0 l 109 991 l 175 991 l 175 551 l 456 551 l 456 991 l 522 991 l 522 551 m 522 61 l 604 61 q 743 117 695 61 q 791 278 791 173 q 746 439 791 387 q 603 490 701 490 l 522 490 l 522 61 z "},"Ћ":{"ha":644,"x_min":9,"x_max":553,"o":"m 239 595 l 330 595 q 498 540 443 595 q 553 368 553 486 l 553 0 l 486 0 l 486 368 q 450 492 486 453 q 330 530 413 530 l 239 530 l 239 0 l 172 0 l 172 928 l 9 928 l 9 991 l 428 991 l 428 928 l 239 928 l 239 595 z "},"Ќ":{"ha":550,"x_min":109,"x_max":550,"o":"m 175 513 l 456 991 l 528 991 l 244 513 l 550 0 l 473 0 l 175 507 l 175 0 l 109 0 l 109 991 l 175 991 l 175 513 m 243 1071 l 243 1085 q 373 1293 330 1198 l 458 1293 l 458 1282 q 377 1173 431 1234 q 275 1071 323 1111 l 243 1071 z "},"Ў":{"ha":465,"x_min":0,"x_max":465,"o":"m 212 290 l 0 991 l 69 991 l 220 484 q 243 386 227 457 l 249 386 q 268 484 257 444 l 396 991 l 465 991 l 244 164 q 182 28 219 70 q 85 -14 144 -14 q 25 0 52 -14 l 25 62 q 83 50 55 50 q 140 80 117 50 q 183 180 163 111 l 212 290 m 237 1071 q 111 1116 154 1071 q 60 1261 67 1161 l 123 1261 q 156 1153 130 1185 q 237 1121 182 1121 q 320 1155 294 1121 q 352 1261 346 1189 l 414 1261 q 237 1071 403 1071 z "},"Џ":{"ha":696,"x_min":109,"x_max":587,"o":"m 109 991 l 175 991 l 175 64 l 521 64 l 521 991 l 587 991 l 587 0 l 380 0 l 380 -250 l 317 -250 l 317 0 l 109 0 l 109 991 z "},"А":{"ha":551,"x_min":0,"x_max":551,"o":"m 484 0 l 396 359 l 155 359 l 69 0 l 0 0 l 239 991 l 307 991 l 551 0 l 484 0 m 380 427 l 293 796 q 272 914 279 859 q 253 796 266 855 l 168 427 l 380 427 z "},"Б":{"ha":586,"x_min":109,"x_max":541,"o":"m 175 928 l 175 551 l 281 551 q 477 485 414 551 q 541 278 541 419 q 472 74 541 148 q 282 0 403 0 l 109 0 l 109 991 l 496 991 l 496 928 l 175 928 m 175 61 l 285 61 q 424 117 376 61 q 472 278 472 173 q 427 439 472 387 q 283 490 381 490 l 175 490 l 175 61 z "},"В":{"ha":615,"x_min":109,"x_max":561,"o":"m 109 991 l 298 991 q 478 932 415 991 q 541 755 541 872 q 393 525 541 554 l 393 519 q 519 444 478 502 q 561 282 561 386 q 502 75 561 149 q 336 0 443 0 l 109 0 l 109 991 m 175 550 l 300 550 q 432 601 393 550 q 472 757 472 652 q 428 886 472 841 q 298 930 385 930 l 175 930 l 175 550 m 175 489 l 175 61 l 328 61 q 492 283 492 61 q 444 436 492 382 q 309 489 395 489 l 175 489 z "},"Г":{"ha":465,"x_min":109,"x_max":454,"o":"m 454 991 l 454 928 l 175 928 l 175 0 l 109 0 l 109 991 l 454 991 z "},"Д":{"ha":636,"x_min":7,"x_max":608,"o":"m 608 -250 l 545 -250 l 545 0 l 71 0 l 71 -250 l 7 -250 l 7 64 l 66 64 q 180 518 146 307 q 214 991 214 729 l 524 991 l 524 64 l 608 64 l 608 -250 m 457 64 l 457 928 l 281 928 q 135 64 266 450 l 457 64 z "},"Е":{"ha":534,"x_min":109,"x_max":468,"o":"m 468 0 l 109 0 l 109 991 l 468 991 l 468 928 l 175 928 l 175 551 l 452 551 l 452 488 l 175 488 l 175 64 l 468 64 l 468 0 z "},"Ж":{"ha":761,"x_min":0,"x_max":761,"o":"m 347 991 l 414 991 l 414 513 l 681 991 l 753 991 l 482 513 l 761 0 l 686 0 l 414 507 l 414 0 l 347 0 l 347 507 l 75 0 l 0 0 l 279 513 l 8 991 l 81 991 l 347 513 l 347 991 z "},"З":{"ha":551,"x_min":39,"x_max":465,"o":"m 465 265 q 399 60 465 133 q 212 -14 332 -14 q 39 24 117 -14 l 39 97 q 119 63 73 75 q 212 50 165 50 q 396 264 396 50 q 343 429 396 376 q 179 482 290 482 l 111 482 l 111 546 l 183 546 q 331 602 279 546 q 383 765 383 657 q 343 898 383 854 q 232 942 304 942 q 158 924 192 942 q 102 879 125 907 l 57 925 q 237 1006 132 1006 q 395 942 338 1006 q 452 765 452 878 q 406 603 452 668 q 282 517 360 537 l 282 511 q 419 436 372 500 q 465 265 465 372 z "},"И":{"ha":739,"x_min":109,"x_max":631,"o":"m 109 991 l 174 991 l 174 298 q 173 253 174 275 q 167 113 173 230 l 172 113 l 545 991 l 631 991 l 631 0 l 566 0 l 566 711 q 574 889 566 797 l 568 889 l 193 0 l 109 0 l 109 991 z "},"Й":{"ha":739,"x_min":109,"x_max":631,"o":"m 109 991 l 174 991 l 174 298 q 173 253 174 275 q 167 113 173 230 l 172 113 l 545 991 l 631 991 l 631 0 l 566 0 l 566 711 q 574 889 566 797 l 568 889 l 193 0 l 109 0 l 109 991 m 369 1071 q 243 1116 286 1071 q 193 1261 199 1161 l 255 1261 q 289 1153 262 1185 q 369 1121 315 1121 q 452 1155 426 1121 q 484 1261 478 1189 l 547 1261 q 369 1071 535 1071 z "},"К":{"ha":550,"x_min":109,"x_max":550,"o":"m 175 513 l 456 991 l 528 991 l 244 513 l 550 0 l 473 0 l 175 507 l 175 0 l 109 0 l 109 991 l 175 991 l 175 513 z "},"Л":{"ha":631,"x_min":-14,"x_max":522,"o":"m 522 0 l 456 0 l 456 928 l 261 928 l 235 605 q 186 161 205 252 q 135 30 168 69 q 37 -9 102 -9 q -14 3 6 -9 l -14 65 q 33 54 2 54 q 71 63 56 54 q 99 97 86 72 q 121 170 111 123 q 140 295 131 218 q 203 991 149 372 l 522 991 l 522 0 z "},"М":{"ha":946,"x_min":109,"x_max":838,"o":"m 435 0 l 171 903 l 165 903 q 172 722 172 760 l 172 0 l 109 0 l 109 991 l 207 991 l 429 233 q 468 62 459 133 l 473 62 q 515 232 480 113 l 736 991 l 838 991 l 838 0 l 771 0 l 771 717 q 778 901 771 759 l 772 901 l 510 0 l 435 0 z "},"Н":{"ha":696,"x_min":109,"x_max":587,"o":"m 587 0 l 521 0 l 521 488 l 175 488 l 175 0 l 109 0 l 109 991 l 175 991 l 175 551 l 521 551 l 521 991 l 587 991 l 587 0 z "},"О":{"ha":722,"x_min":75,"x_max":647,"o":"m 647 497 q 573 119 647 251 q 361 -14 500 -14 q 148 120 220 -14 q 75 498 75 253 q 147 880 75 755 q 363 1006 219 1006 q 574 874 501 1006 q 647 497 647 742 m 144 497 q 200 163 144 276 q 361 50 255 50 q 523 162 467 50 q 578 497 578 274 q 524 830 578 718 q 363 942 469 942 q 199 828 254 942 q 144 497 144 715 z "},"П":{"ha":696,"x_min":109,"x_max":587,"o":"m 587 0 l 521 0 l 521 928 l 175 928 l 175 0 l 109 0 l 109 991 l 587 991 l 587 0 z "},"Р":{"ha":570,"x_min":109,"x_max":524,"o":"m 524 707 q 453 481 524 553 q 245 410 383 410 l 175 410 l 175 0 l 109 0 l 109 991 l 244 991 q 456 923 389 991 q 524 707 524 854 m 175 471 l 241 471 q 407 526 358 471 q 456 707 456 581 q 405 879 456 827 q 249 930 355 930 l 175 930 l 175 471 z "},"С":{"ha":583,"x_min":75,"x_max":549,"o":"m 389 943 q 211 825 277 943 q 144 497 144 707 q 175 260 144 361 q 262 104 205 159 q 395 50 319 50 q 528 78 472 50 l 528 17 q 389 -14 475 -14 q 223 47 294 -14 q 114 224 153 109 q 75 498 75 340 q 160 871 75 736 q 390 1007 244 1007 q 549 965 481 1007 l 518 907 q 389 943 461 943 z "},"Т":{"ha":482,"x_min":9,"x_max":471,"o":"m 273 0 l 207 0 l 207 928 l 9 928 l 9 991 l 471 991 l 471 928 l 273 928 l 273 0 z "},"У":{"ha":465,"x_min":0,"x_max":465,"o":"m 212 290 l 0 991 l 69 991 l 220 484 q 243 386 227 457 l 249 386 q 268 484 257 444 l 396 991 l 465 991 l 244 164 q 182 28 219 70 q 85 -14 144 -14 q 25 0 52 -14 l 25 62 q 83 50 55 50 q 140 80 117 50 q 183 180 163 111 l 212 290 z "},"Ф":{"ha":817,"x_min":72,"x_max":745,"o":"m 375 1006 l 441 1006 l 441 884 q 664 786 584 884 q 745 519 745 688 q 664 241 745 344 q 441 139 583 139 l 441 -14 l 375 -14 l 375 139 q 213 187 281 139 q 108 321 144 235 q 72 519 72 408 q 109 707 72 623 q 215 837 146 790 q 375 884 283 884 l 375 1006 m 441 200 q 615 283 555 200 q 675 519 675 366 q 441 822 675 822 l 441 200 m 375 822 q 202 743 262 822 q 142 519 142 663 q 201 283 142 366 q 375 200 261 200 l 375 822 z "},"Х":{"ha":485,"x_min":14,"x_max":471,"o":"m 471 0 l 401 0 l 253 456 l 81 0 l 14 0 l 221 526 l 43 991 l 113 991 l 260 579 l 403 991 l 471 991 l 296 511 l 471 0 z "},"Ц":{"ha":700,"x_min":109,"x_max":663,"o":"m 587 64 l 663 64 l 663 -250 l 599 -250 l 599 0 l 109 0 l 109 991 l 175 991 l 175 64 l 521 64 l 521 991 l 587 991 l 587 64 z "},"Ч":{"ha":679,"x_min":92,"x_max":571,"o":"m 571 0 l 504 0 l 504 425 q 288 361 390 361 q 92 610 92 361 l 92 991 l 158 991 l 158 607 q 191 470 158 515 q 293 425 224 425 q 391 436 345 425 q 504 484 437 448 l 504 991 l 571 991 l 571 0 z "},"Ш":{"ha":954,"x_min":109,"x_max":846,"o":"m 846 0 l 109 0 l 109 991 l 175 991 l 175 64 l 443 64 l 443 991 l 510 991 l 510 64 l 779 64 l 779 991 l 846 991 l 846 0 z "},"Щ":{"ha":958,"x_min":109,"x_max":921,"o":"m 510 64 l 779 64 l 779 991 l 846 991 l 846 64 l 921 64 l 921 -250 l 857 -250 l 857 0 l 109 0 l 109 991 l 175 991 l 175 64 l 443 64 l 443 991 l 510 991 l 510 64 z "},"Ъ":{"ha":699,"x_min":17,"x_max":646,"o":"m 17 926 l 17 991 l 281 991 l 281 551 l 386 551 q 582 486 517 551 q 646 278 646 421 q 577 74 646 149 q 387 0 509 0 l 214 0 l 214 926 l 17 926 m 281 61 l 390 61 q 530 117 481 61 q 578 278 578 173 q 532 439 578 387 q 389 490 486 490 l 281 490 l 281 61 z "},"Ы":{"ha":871,"x_min":109,"x_max":762,"o":"m 541 278 q 472 74 541 148 q 282 0 403 0 l 109 0 l 109 991 l 175 991 l 175 551 l 281 551 q 477 485 414 551 q 541 278 541 419 m 175 61 l 285 61 q 424 117 376 61 q 472 278 472 173 q 427 439 472 387 q 283 490 381 490 l 175 490 l 175 61 m 762 0 l 696 0 l 696 991 l 762 991 l 762 0 z "},"Ь":{"ha":593,"x_min":109,"x_max":541,"o":"m 541 278 q 472 74 541 148 q 282 0 403 0 l 109 0 l 109 991 l 175 991 l 175 551 l 281 551 q 477 485 414 551 q 541 278 541 419 m 175 61 l 285 61 q 424 117 376 61 q 472 278 472 173 q 427 439 472 387 q 283 490 381 490 l 175 490 l 175 61 z "},"Э":{"ha":583,"x_min":35,"x_max":509,"o":"m 192 1007 q 360 945 288 1007 q 470 767 432 884 q 509 494 509 651 q 424 123 509 260 q 193 -14 340 -14 q 115 -6 153 -14 q 56 14 77 1 l 56 78 q 195 50 113 50 q 371 166 306 50 q 439 488 436 281 l 126 488 l 126 551 l 437 551 q 362 840 428 736 q 192 943 297 943 q 65 907 122 943 l 35 964 q 192 1007 104 1007 z "},"Ю":{"ha":939,"x_min":109,"x_max":864,"o":"m 864 497 q 797 119 864 252 q 602 -14 729 -14 q 408 115 476 -14 q 339 488 340 243 l 175 488 l 175 0 l 109 0 l 109 991 l 175 991 l 175 551 l 339 551 q 603 1006 351 1006 q 797 875 729 1006 q 864 497 864 744 m 408 497 q 458 163 408 276 q 602 50 507 50 q 745 164 696 50 q 794 497 794 277 q 746 830 794 719 q 603 942 697 942 q 457 829 507 942 q 408 497 408 716 z "},"Я":{"ha":595,"x_min":29,"x_max":486,"o":"m 289 433 l 104 0 l 29 0 l 227 443 q 110 533 152 463 q 68 707 68 603 q 325 991 68 991 l 486 991 l 486 0 l 419 0 l 419 432 l 289 433 m 419 930 l 335 930 q 183 878 229 930 q 138 710 138 826 q 180 545 138 597 q 317 492 223 492 l 419 492 l 419 930 z "},"а":{"ha":532,"x_min":53,"x_max":436,"o":"m 383 0 l 375 103 l 372 103 q 212 -14 319 -14 q 97 44 140 -14 q 53 197 53 101 q 116 364 53 302 q 293 431 179 425 l 372 435 l 372 496 q 347 646 372 599 q 261 693 321 693 q 132 652 198 693 l 104 703 q 265 750 181 750 q 396 693 356 750 q 436 501 436 635 l 436 0 l 383 0 m 227 41 q 334 110 296 41 q 372 302 372 178 l 372 379 l 296 375 q 164 326 207 370 q 121 196 121 281 q 149 79 121 116 q 227 41 178 41 z "},"б":{"ha":586,"x_min":72,"x_max":522,"o":"m 139 468 q 177 148 142 251 q 288 45 213 45 q 456 335 456 45 q 294 621 456 621 q 201 577 245 621 q 139 468 158 534 m 72 482 q 109 808 72 690 q 234 984 146 926 q 505 1060 321 1042 l 515 1002 q 290 949 365 990 q 179 821 214 907 q 139 571 144 735 l 144 571 q 213 653 170 624 q 306 682 256 682 q 465 592 408 682 q 522 335 522 503 q 462 77 522 168 q 286 -14 401 -14 q 123 108 175 -14 q 72 482 72 230 z "},"в":{"ha":532,"x_min":98,"x_max":473,"o":"m 453 559 q 429 452 453 492 q 351 395 404 412 l 351 389 q 442 334 411 378 q 473 221 473 289 q 420 58 473 117 q 268 0 366 0 l 98 0 l 98 736 l 254 736 q 402 690 351 736 q 453 559 453 644 m 407 222 q 373 329 407 297 q 272 361 338 361 l 163 361 l 163 58 l 269 58 q 374 97 341 58 q 407 222 407 136 m 386 559 q 256 677 386 677 l 163 677 l 163 416 l 269 416 q 359 450 332 416 q 386 559 386 484 z "},"г":{"ha":401,"x_min":98,"x_max":390,"o":"m 390 736 l 390 675 l 163 675 l 163 0 l 98 0 l 98 736 l 390 736 z "},"д":{"ha":534,"x_min":7,"x_max":504,"o":"m 366 61 l 366 677 l 239 677 q 204 337 237 515 q 126 61 172 159 l 366 61 m 504 -250 l 440 -250 l 440 0 l 71 0 l 71 -250 l 7 -250 l 7 61 l 64 61 q 150 367 121 193 q 179 736 179 541 l 429 736 l 429 61 l 504 61 l 504 -250 z "},"е":{"ha":545,"x_min":65,"x_max":479,"o":"m 307 -14 q 128 86 191 -14 q 65 363 65 185 q 121 651 65 551 q 282 750 177 750 q 427 663 374 750 q 479 428 479 576 l 479 368 l 131 368 q 176 127 132 208 q 310 47 220 47 q 456 93 379 47 l 456 31 q 307 -14 385 -14 m 278 692 q 132 427 145 692 l 415 427 q 378 620 415 548 q 278 692 341 692 z "},"ж":{"ha":650,"x_min":7,"x_max":643,"o":"m 357 736 l 357 390 l 553 736 l 625 736 l 421 390 l 643 0 l 568 0 l 357 385 l 357 0 l 293 0 l 293 385 l 82 0 l 7 0 l 229 390 l 25 736 l 97 736 l 293 390 l 293 736 l 357 736 z "},"з":{"ha":436,"x_min":35,"x_max":376,"o":"m 175 419 q 233 437 206 419 q 275 487 260 454 q 290 564 290 520 q 261 661 290 629 q 182 693 231 693 q 78 660 130 693 l 47 710 q 189 750 111 750 q 313 702 269 750 q 357 567 357 654 q 329 461 357 507 q 257 399 300 416 l 257 393 q 346 327 315 374 q 376 207 376 279 q 322 46 376 106 q 182 -14 269 -14 q 35 35 87 -14 l 35 102 q 98 62 63 79 q 182 45 134 45 q 276 86 243 45 q 310 207 310 127 q 273 319 310 277 q 171 361 235 361 l 138 361 l 138 419 l 175 419 z "},"и":{"ha":599,"x_min":98,"x_max":500,"o":"m 163 736 l 163 239 l 158 100 l 419 736 l 500 736 l 500 0 l 436 0 l 436 476 l 439 636 l 178 0 l 98 0 l 98 736 l 163 736 z "},"й":{"ha":599,"x_min":98,"x_max":500,"o":"m 163 736 l 163 239 l 158 100 l 419 736 l 500 736 l 500 0 l 436 0 l 436 476 l 439 636 l 178 0 l 98 0 l 98 736 l 163 736 m 302 842 q 176 887 220 842 q 126 1032 133 932 l 189 1032 q 222 924 196 956 q 302 892 248 892 q 386 926 359 892 q 418 1032 412 960 l 480 1032 q 302 842 469 842 z "},"к":{"ha":469,"x_min":98,"x_max":463,"o":"m 371 736 l 444 736 l 228 390 l 463 0 l 386 0 l 163 385 l 163 0 l 98 0 l 98 736 l 163 736 l 163 390 l 371 736 z "},"л":{"ha":526,"x_min":-7,"x_max":428,"o":"m 205 675 q 184 354 198 487 q 152 143 171 222 q 104 29 133 65 q 24 -7 75 -7 q -7 -1 7 -7 l -7 58 q 17 54 1 54 q 81 122 57 54 q 121 335 105 190 q 146 736 136 480 l 428 736 l 428 0 l 364 0 l 364 675 l 205 675 z "},"м":{"ha":715,"x_min":98,"x_max":616,"o":"m 318 0 l 158 636 l 153 636 q 160 447 160 479 l 160 0 l 98 0 l 98 736 l 192 736 l 314 256 q 353 72 340 146 l 358 72 q 371 134 359 82 q 524 736 382 186 l 616 736 l 616 0 l 553 0 l 553 443 q 559 636 553 494 l 554 636 l 393 0 l 318 0 z "},"н":{"ha":599,"x_min":98,"x_max":500,"o":"m 163 736 l 163 414 l 436 414 l 436 736 l 500 736 l 500 0 l 436 0 l 436 355 l 163 355 l 163 0 l 98 0 l 98 736 l 163 736 z "},"о":{"ha":576,"x_min":64,"x_max":513,"o":"m 513 370 q 454 85 513 184 q 286 -14 395 -14 q 121 85 178 -14 q 64 370 64 184 q 289 750 64 750 q 454 650 395 750 q 513 370 513 551 m 131 370 q 169 129 131 210 q 288 47 207 47 q 446 370 446 47 q 288 689 446 689 q 168 609 205 689 q 131 370 131 529 z "},"п":{"ha":599,"x_min":98,"x_max":500,"o":"m 500 736 l 500 0 l 436 0 l 436 677 l 163 677 l 163 0 l 98 0 l 98 736 l 500 736 z "},"р":{"ha":606,"x_min":98,"x_max":542,"o":"m 335 -14 q 234 17 279 -14 q 164 102 188 48 l 158 102 l 163 21 l 163 -334 l 98 -334 l 98 736 l 151 736 l 158 635 l 164 635 q 234 720 191 690 q 326 750 276 750 q 542 370 542 750 q 489 86 542 186 q 335 -14 436 -14 m 322 689 q 202 618 241 689 q 163 395 163 547 l 163 374 q 203 124 163 204 q 325 45 243 45 q 438 124 401 45 q 475 370 475 203 q 440 609 475 529 q 322 689 406 689 z "},"с":{"ha":431,"x_min":65,"x_max":403,"o":"m 288 -14 q 121 82 177 -14 q 65 364 65 178 q 122 651 65 553 q 289 750 178 750 q 403 725 357 750 l 378 668 q 294 689 332 689 q 132 366 132 689 q 294 45 132 45 q 399 66 342 45 l 399 12 q 344 -7 376 0 q 288 -14 311 -14 z "},"т":{"ha":347,"x_min":11,"x_max":336,"o":"m 336 736 l 336 677 l 205 677 l 205 0 l 142 0 l 142 677 l 11 677 l 11 736 l 336 736 z "},"у":{"ha":443,"x_min":-1,"x_max":436,"o":"m 191 1 l 7 736 l 72 736 l 183 277 q 221 90 203 194 l 227 90 q 262 278 239 180 l 371 736 l 436 736 l 221 -139 q 159 -285 197 -236 q 57 -334 121 -334 q -1 -322 31 -334 l -1 -264 q 52 -273 26 -273 q 116 -238 92 -273 q 158 -126 140 -203 l 191 1 z "},"ф":{"ha":676,"x_min":65,"x_max":612,"o":"m 612 370 q 550 100 612 200 q 371 -14 487 -1 l 371 -334 l 307 -334 l 307 -14 q 128 95 191 -3 q 65 370 65 193 q 127 638 65 538 q 307 750 190 738 l 307 1055 l 371 1055 l 371 750 q 550 638 488 738 q 612 370 612 538 m 132 370 q 179 140 132 225 q 307 45 225 55 l 307 692 q 177 597 221 680 q 132 370 132 514 m 546 370 q 500 596 546 512 q 371 692 454 680 l 371 45 q 500 142 454 56 q 546 370 546 228 z "},"х":{"ha":458,"x_min":24,"x_max":435,"o":"m 199 382 l 37 736 l 107 736 l 231 437 l 359 736 l 427 736 l 262 374 l 435 0 l 367 0 l 229 318 l 90 0 l 24 0 l 199 382 z "},"ц":{"ha":606,"x_min":98,"x_max":575,"o":"m 500 61 l 575 61 l 575 -250 l 511 -250 l 511 0 l 98 0 l 98 736 l 163 736 l 163 61 l 436 61 l 436 736 l 500 736 l 500 61 z "},"ч":{"ha":585,"x_min":83,"x_max":486,"o":"m 147 736 l 147 432 q 174 341 147 370 q 244 313 200 313 q 342 339 296 313 q 422 407 388 366 l 422 736 l 486 736 l 486 0 l 422 0 l 422 338 q 339 275 388 298 q 235 253 290 253 q 83 447 83 253 l 83 736 l 147 736 z "},"ш":{"ha":800,"x_min":98,"x_max":701,"o":"m 98 0 l 98 736 l 163 736 l 163 61 l 368 61 l 368 736 l 432 736 l 432 61 l 637 61 l 637 736 l 701 736 l 701 0 l 98 0 z "},"щ":{"ha":807,"x_min":98,"x_max":777,"o":"m 777 61 l 777 -250 l 713 -250 l 713 0 l 98 0 l 98 736 l 163 736 l 163 61 l 368 61 l 368 736 l 432 736 l 432 61 l 637 61 l 637 736 l 701 736 l 701 61 l 777 61 z "},"ъ":{"ha":603,"x_min":11,"x_max":550,"o":"m 233 414 l 329 414 q 493 360 436 414 q 550 207 550 306 q 492 54 550 109 q 328 0 433 0 l 170 0 l 170 677 l 11 677 l 11 736 l 233 736 l 233 414 m 233 355 l 233 58 l 328 58 q 484 207 484 58 q 329 355 484 355 l 233 355 z "},"ы":{"ha":755,"x_min":98,"x_max":657,"o":"m 657 0 l 593 0 l 593 736 l 657 736 l 657 0 m 163 414 l 258 414 q 422 360 366 414 q 479 207 479 306 q 421 54 479 109 q 257 0 363 0 l 98 0 l 98 736 l 163 736 l 163 414 m 163 355 l 163 58 l 257 58 q 412 207 412 58 q 258 355 412 355 l 163 355 z "},"ь":{"ha":532,"x_min":98,"x_max":479,"o":"m 163 414 l 258 414 q 422 360 366 414 q 479 207 479 306 q 421 54 479 109 q 257 0 363 0 l 98 0 l 98 736 l 163 736 l 163 414 m 163 355 l 163 58 l 257 58 q 412 207 412 58 q 258 355 412 355 l 163 355 z "},"э":{"ha":463,"x_min":35,"x_max":397,"o":"m 153 -14 q 89 -6 121 -14 q 35 12 56 1 l 35 74 q 149 47 92 47 q 282 121 237 47 q 330 355 327 195 l 131 355 l 131 414 l 329 414 q 158 689 317 689 q 110 681 136 689 q 71 665 83 673 l 46 724 q 165 750 101 750 q 338 654 279 750 q 397 372 397 559 q 336 84 397 182 q 153 -14 275 -14 z "},"ю":{"ha":796,"x_min":98,"x_max":732,"o":"m 732 370 q 676 86 732 186 q 517 -14 621 -14 q 361 83 415 -14 q 306 355 307 180 l 163 355 l 163 0 l 98 0 l 98 736 l 163 736 l 163 414 l 306 414 q 519 750 316 750 q 676 651 621 750 q 732 370 732 551 m 372 370 q 518 45 372 45 q 665 370 665 45 q 518 689 665 689 q 407 609 441 689 q 372 370 372 529 z "},"я":{"ha":541,"x_min":33,"x_max":441,"o":"m 378 325 l 293 325 l 109 0 l 33 0 l 229 329 q 104 395 146 344 q 61 530 61 446 q 122 683 61 629 q 292 736 183 736 l 441 736 l 441 0 l 378 0 l 378 325 m 378 383 l 378 677 l 292 677 q 127 530 127 677 q 290 383 127 383 l 378 383 z "},"ё":{"ha":545,"x_min":65,"x_max":479,"o":"m 307 -14 q 128 86 191 -14 q 65 363 65 185 q 121 651 65 551 q 282 750 177 750 q 427 663 374 750 q 479 428 479 576 l 479 368 l 131 368 q 176 127 132 208 q 310 47 220 47 q 456 93 379 47 l 456 31 q 307 -14 385 -14 m 278 692 q 132 427 145 692 l 415 427 q 378 620 415 548 q 278 692 341 692 m 132 942 q 145 984 132 971 q 176 997 159 997 q 204 984 191 997 q 217 942 217 971 q 204 899 217 912 q 176 885 191 885 q 145 899 159 885 q 132 942 132 912 m 339 942 q 352 984 339 971 q 381 997 366 997 q 411 984 398 997 q 424 942 424 971 q 411 899 424 912 q 381 885 398 885 q 352 899 366 885 q 339 942 339 912 z "},"ђ":{"ha":590,"x_min":18,"x_max":494,"o":"m 431 507 q 405 649 431 607 q 319 690 378 690 q 202 621 241 690 q 163 403 163 552 l 163 0 l 98 0 l 98 861 l 18 861 l 18 918 l 98 918 l 98 1055 l 163 1055 l 163 918 l 340 918 l 340 861 l 163 861 l 163 713 q 160 635 163 666 l 165 635 q 231 720 187 690 q 322 750 275 750 q 455 689 416 750 q 494 507 494 628 l 494 -136 q 375 -334 494 -334 q 329 -322 348 -334 l 329 -261 q 372 -272 353 -272 q 431 -146 431 -272 l 431 507 z "},"ѓ":{"ha":401,"x_min":98,"x_max":401,"o":"m 390 736 l 390 675 l 163 675 l 163 0 l 98 0 l 98 736 l 390 736 m 186 842 l 186 856 q 316 1064 273 968 l 401 1064 l 401 1053 q 320 943 374 1005 q 218 842 267 882 l 186 842 z "},"є":{"ha":463,"x_min":65,"x_max":424,"o":"m 132 355 q 307 47 135 47 q 419 74 363 47 l 419 12 q 363 -6 397 1 q 301 -14 330 -14 q 124 82 184 -14 q 65 364 65 178 q 125 651 65 553 q 302 750 185 750 q 424 724 369 750 l 400 665 q 359 682 385 674 q 309 689 333 689 q 132 414 145 689 l 332 414 l 332 355 l 132 355 z "},"ѕ":{"ha":437,"x_min":50,"x_max":389,"o":"m 387 184 q 338 39 387 92 q 197 -14 290 -14 q 109 -1 147 -14 q 50 28 71 12 l 50 103 q 117 63 75 78 q 201 47 158 47 q 291 85 258 47 q 323 184 323 122 q 300 267 323 233 q 211 343 277 300 q 108 419 136 391 q 65 483 81 448 q 50 567 50 518 q 104 698 50 646 q 240 750 157 750 q 389 708 329 750 l 355 652 q 237 689 300 689 q 146 655 180 689 q 113 567 113 622 q 136 485 113 518 q 233 406 159 452 q 334 329 307 357 q 374 265 361 300 q 387 184 387 230 z "},"і":{"ha":261,"x_min":89,"x_max":174,"o":"m 163 0 l 98 0 l 98 736 l 163 736 l 163 0 m 89 940 q 101 987 89 970 q 134 1004 114 1004 q 163 987 152 1004 q 174 940 174 970 q 163 893 174 911 q 134 876 152 876 q 101 893 114 876 q 89 940 89 911 z "},"ї":{"ha":261,"x_min":-14,"x_max":278,"o":"m 163 0 l 98 0 l 98 736 l 163 736 l 163 0 m -14 942 q 0 984 -14 971 q 30 997 13 997 q 58 984 45 997 q 71 942 71 971 q 58 899 71 912 q 30 885 45 885 q 0 899 13 885 q -14 942 -14 912 m 193 942 q 207 984 193 971 q 235 997 220 997 q 265 984 252 997 q 278 942 278 971 q 265 899 278 912 q 235 885 252 885 q 207 899 220 885 q 193 942 193 912 z "},"ј":{"ha":261,"x_min":-3,"x_max":174,"o":"m 43 -334 q -3 -322 14 -334 l -3 -261 q 40 -272 19 -272 q 85 -241 72 -272 q 98 -146 98 -210 l 98 736 l 163 736 l 163 -136 q 134 -286 163 -237 q 43 -334 104 -334 m 89 940 q 101 987 89 970 q 134 1004 114 1004 q 163 987 152 1004 q 174 940 174 970 q 163 893 174 911 q 134 876 152 876 q 101 893 114 876 q 89 940 89 911 z "},"љ":{"ha":775,"x_min":-7,"x_max":722,"o":"m 406 414 l 501 414 q 665 360 608 414 q 722 207 722 306 q 664 54 722 109 q 500 0 606 0 l 342 0 l 342 675 l 205 675 q 184 354 198 487 q 152 143 171 222 q 104 29 133 65 q 24 -7 75 -7 q -7 -1 7 -7 l -7 58 q 17 54 1 54 q 81 122 57 54 q 121 335 105 190 q 146 736 136 480 l 406 736 l 406 414 m 406 355 l 406 58 l 500 58 q 656 207 656 58 q 501 355 656 355 l 406 355 z "},"њ":{"ha":852,"x_min":98,"x_max":800,"o":"m 484 414 l 579 414 q 743 360 686 414 q 800 207 800 306 q 742 54 800 109 q 578 0 684 0 l 419 0 l 419 355 l 163 355 l 163 0 l 98 0 l 98 736 l 163 736 l 163 414 l 419 414 l 419 736 l 484 736 l 484 414 m 484 355 l 484 58 l 578 58 q 733 207 733 58 q 579 355 733 355 l 484 355 z "},"ћ":{"ha":590,"x_min":18,"x_max":494,"o":"m 431 0 l 431 507 q 405 649 431 607 q 319 690 378 690 q 202 621 241 690 q 163 403 163 552 l 163 0 l 98 0 l 98 861 l 18 861 l 18 918 l 98 918 l 98 1055 l 163 1055 l 163 918 l 340 918 l 340 861 l 163 861 l 163 713 q 160 635 163 666 l 165 635 q 231 720 187 690 q 322 750 275 750 q 455 689 416 750 q 494 507 494 628 l 494 0 l 431 0 z "},"ќ":{"ha":469,"x_min":98,"x_max":463,"o":"m 371 736 l 444 736 l 228 390 l 463 0 l 386 0 l 163 385 l 163 0 l 98 0 l 98 736 l 163 736 l 163 390 l 371 736 m 238 842 l 238 856 q 368 1064 324 968 l 452 1064 l 452 1053 q 372 943 426 1005 q 270 842 318 882 l 238 842 z "},"ў":{"ha":443,"x_min":-1,"x_max":436,"o":"m 191 1 l 7 736 l 72 736 l 183 277 q 221 90 203 194 l 227 90 q 262 278 239 180 l 371 736 l 436 736 l 221 -139 q 159 -285 197 -236 q 57 -334 121 -334 q -1 -322 31 -334 l -1 -264 q 52 -273 26 -273 q 116 -238 92 -273 q 158 -126 140 -203 l 191 1 m 223 842 q 97 887 140 842 q 47 1032 54 932 l 109 1032 q 143 924 117 956 q 223 892 169 892 q 306 926 280 892 q 338 1032 332 960 l 401 1032 q 223 842 389 842 z "},"џ":{"ha":599,"x_min":98,"x_max":500,"o":"m 98 0 l 98 736 l 163 736 l 163 61 l 436 61 l 436 736 l 500 736 l 500 0 l 330 0 l 330 -250 l 267 -250 l 267 0 l 98 0 z "},"Ґ":{"ha":465,"x_min":109,"x_max":432,"o":"m 175 928 l 175 0 l 109 0 l 109 991 l 368 991 l 368 1196 l 432 1196 l 432 928 l 175 928 z "},"ґ":{"ha":401,"x_min":98,"x_max":368,"o":"m 307 736 l 307 957 l 368 957 l 368 675 l 163 675 l 163 0 l 98 0 l 98 736 l 307 736 z "},"Ẁ":{"ha":946,"x_min":7,"x_max":939,"o":"m 871 991 l 939 991 l 728 0 l 647 0 l 496 742 q 472 904 492 760 l 463 840 l 447 743 l 298 0 l 220 0 l 7 991 l 77 991 l 216 309 q 258 75 249 142 q 297 306 273 184 l 436 991 l 511 991 l 650 309 q 681 125 671 197 l 688 75 q 726 309 707 218 l 871 991 m 505 1071 q 405 1171 461 1107 q 323 1282 348 1236 l 323 1293 l 408 1293 q 464 1190 427 1251 q 538 1085 502 1130 l 538 1071 l 505 1071 z "},"ẁ":{"ha":762,"x_min":14,"x_max":749,"o":"m 507 0 l 406 498 q 403 510 404 504 q 382 640 402 516 l 380 640 l 371 583 l 355 498 l 250 0 l 174 0 l 14 736 l 78 736 l 170 307 l 212 83 l 216 83 q 256 309 229 180 l 347 736 l 415 736 l 507 307 q 546 83 518 259 l 550 83 q 570 196 552 106 q 685 736 588 286 l 749 736 l 583 0 l 507 0 m 417 842 q 316 942 373 878 q 235 1053 260 1006 l 235 1064 l 320 1064 q 376 961 338 1021 q 450 856 414 901 l 450 842 l 417 842 z "},"Ẃ":{"ha":946,"x_min":7,"x_max":939,"o":"m 871 991 l 939 991 l 728 0 l 647 0 l 496 742 q 472 904 492 760 l 463 840 l 447 743 l 298 0 l 220 0 l 7 991 l 77 991 l 216 309 q 258 75 249 142 q 297 306 273 184 l 436 991 l 511 991 l 650 309 q 681 125 671 197 l 688 75 q 726 309 707 218 l 871 991 m 414 1071 l 414 1085 q 543 1293 500 1198 l 628 1293 l 628 1282 q 548 1173 602 1234 q 446 1071 494 1111 l 414 1071 z "},"ẃ":{"ha":762,"x_min":14,"x_max":749,"o":"m 507 0 l 406 498 q 403 510 404 504 q 382 640 402 516 l 380 640 l 371 583 l 355 498 l 250 0 l 174 0 l 14 736 l 78 736 l 170 307 l 212 83 l 216 83 q 256 309 229 180 l 347 736 l 415 736 l 507 307 q 546 83 518 259 l 550 83 q 570 196 552 106 q 685 736 588 286 l 749 736 l 583 0 l 507 0 m 342 842 l 342 856 q 471 1064 428 968 l 556 1064 l 556 1053 q 476 943 530 1005 q 374 842 422 882 l 342 842 z "},"Ẅ":{"ha":946,"x_min":7,"x_max":939,"o":"m 871 991 l 939 991 l 728 0 l 647 0 l 496 742 q 472 904 492 760 l 463 840 l 447 743 l 298 0 l 220 0 l 7 991 l 77 991 l 216 309 q 258 75 249 142 q 297 306 273 184 l 436 991 l 511 991 l 650 309 q 681 125 671 197 l 688 75 q 726 309 707 218 l 871 991 m 326 1171 q 339 1213 326 1200 q 370 1226 353 1226 q 398 1213 385 1226 q 411 1171 411 1200 q 398 1128 411 1141 q 370 1114 385 1114 q 339 1128 353 1114 q 326 1171 326 1141 m 533 1171 q 546 1213 533 1200 q 575 1226 559 1226 q 605 1213 592 1226 q 618 1171 618 1200 q 605 1128 618 1141 q 575 1114 592 1114 q 546 1128 559 1114 q 533 1171 533 1141 z "},"ẅ":{"ha":762,"x_min":14,"x_max":749,"o":"m 507 0 l 406 498 q 403 510 404 504 q 382 640 402 516 l 380 640 l 371 583 l 355 498 l 250 0 l 174 0 l 14 736 l 78 736 l 170 307 l 212 83 l 216 83 q 256 309 229 180 l 347 736 l 415 736 l 507 307 q 546 83 518 259 l 550 83 q 570 196 552 106 q 685 736 588 286 l 749 736 l 583 0 l 507 0 m 235 942 q 249 984 235 971 q 279 997 262 997 q 307 984 294 997 q 320 942 320 971 q 307 899 320 912 q 279 885 294 885 q 249 899 262 885 q 235 942 235 912 m 442 942 q 455 984 442 971 q 484 997 469 997 q 514 984 501 997 q 527 942 527 971 q 514 899 527 912 q 484 885 501 885 q 455 899 469 885 q 442 942 442 912 z "},"Ỳ":{"ha":465,"x_min":0,"x_max":465,"o":"m 233 479 l 395 991 l 465 991 l 265 387 l 265 0 l 199 0 l 199 387 l 0 991 l 71 991 l 233 479 m 278 1071 q 177 1171 234 1107 q 96 1282 121 1236 l 96 1293 l 181 1293 q 237 1190 199 1251 q 311 1085 275 1130 l 311 1071 l 278 1071 z "},"ỳ":{"ha":443,"x_min":-1,"x_max":436,"o":"m 191 1 l 7 736 l 72 736 l 183 277 q 221 90 203 194 l 227 90 q 262 278 239 180 l 371 736 l 436 736 l 221 -139 q 159 -285 197 -236 q 57 -334 121 -334 q -1 -322 31 -334 l -1 -264 q 52 -273 26 -273 q 116 -238 92 -273 q 158 -126 140 -203 l 191 1 m 243 842 q 143 942 199 878 q 62 1053 86 1006 l 62 1064 l 146 1064 q 202 961 165 1021 q 276 856 240 901 l 276 842 l 243 842 z "},"–":{"ha":694,"x_min":56,"x_max":639,"o":"m 56 347 l 56 403 l 639 403 l 639 347 l 56 347 z "},"—":{"ha":1389,"x_min":56,"x_max":1333,"o":"m 56 347 l 56 403 l 1333 403 l 1333 347 l 56 347 z "},"―":{"ha":1389,"x_min":56,"x_max":1333,"o":"m 56 347 l 56 403 l 1333 403 l 1333 347 l 56 347 z "},"‗":{"ha":571,"x_min":-3,"x_max":574,"o":"m 574 -180 l -3 -180 l -3 -125 l 574 -125 l 574 -180 m 574 -332 l -3 -332 l -3 -277 l 574 -277 l 574 -332 z "},"‘":{"ha":214,"x_min":29,"x_max":184,"o":"m 29 689 q 142 991 74 842 l 184 991 q 117 673 134 819 l 39 673 l 29 689 z "},"’":{"ha":214,"x_min":29,"x_max":184,"o":"m 184 977 q 72 673 141 829 l 29 673 q 97 991 80 846 l 175 991 l 184 977 z "},"‚":{"ha":286,"x_min":53,"x_max":208,"o":"m 208 123 q 96 -179 163 -29 l 53 -179 q 121 139 104 -6 l 199 139 l 208 123 z "},"‛":{"ha":214,"x_min":29,"x_max":184,"o":"m 39 991 l 117 991 q 184 673 134 846 l 142 673 q 29 977 73 829 l 39 991 z "},"“":{"ha":406,"x_min":29,"x_max":376,"o":"m 221 689 q 334 991 266 842 l 376 991 q 309 673 326 819 l 231 673 l 221 689 m 29 689 q 142 991 74 842 l 184 991 q 117 673 134 819 l 39 673 l 29 689 z "},"”":{"ha":406,"x_min":29,"x_max":376,"o":"m 184 977 q 72 673 141 829 l 29 673 q 97 991 80 846 l 175 991 l 184 977 m 376 977 q 264 673 333 829 l 221 673 q 289 991 272 846 l 367 991 l 376 977 z "},"„":{"ha":447,"x_min":22,"x_max":370,"o":"m 178 123 q 65 -179 133 -29 l 22 -179 q 90 139 73 -6 l 168 139 l 178 123 m 370 123 q 257 -179 328 -20 l 214 -179 q 256 -9 237 -98 q 282 139 275 79 l 359 139 l 370 123 z "},"†":{"ha":599,"x_min":83,"x_max":515,"o":"m 515 715 l 315 722 l 332 0 l 253 0 l 269 722 l 83 715 l 83 778 l 269 765 l 253 1055 l 332 1055 l 315 765 l 515 778 l 515 715 z "},"‡":{"ha":599,"x_min":83,"x_max":515,"o":"m 315 302 l 515 310 l 515 248 l 315 258 l 332 0 l 253 0 l 269 258 l 83 248 l 83 310 l 269 302 l 261 533 l 269 753 l 83 746 l 83 808 l 269 796 l 253 1055 l 332 1055 l 315 796 l 515 808 l 515 746 l 315 753 l 322 533 l 315 302 z "},"•":{"ha":522,"x_min":114,"x_max":408,"o":"m 114 507 q 152 630 114 589 q 261 671 191 671 q 370 630 332 671 q 408 507 408 589 q 370 385 408 427 q 261 343 332 343 q 153 385 191 343 q 114 507 114 427 z "},"…":{"ha":859,"x_min":90,"x_max":768,"o":"m 90 61 q 143 134 90 134 q 180 117 165 134 q 196 61 196 101 q 180 6 196 22 q 143 -11 165 -11 q 90 61 90 -11 m 376 61 q 429 134 376 134 q 467 117 451 134 q 482 61 482 101 q 467 6 482 22 q 429 -11 451 -11 q 376 61 376 -11 m 663 61 q 715 134 663 134 q 753 117 737 134 q 768 61 768 101 q 753 6 768 22 q 715 -11 737 -11 q 663 61 663 -11 z "},"‰":{"ha":1165,"x_min":64,"x_max":1084,"o":"m 125 697 q 142 504 125 568 q 201 440 159 440 q 260 504 242 440 q 278 697 278 567 q 199 953 278 953 q 142 889 159 953 q 125 697 125 826 m 339 696 q 302 465 339 547 q 200 383 266 383 q 98 465 133 383 q 64 696 64 546 q 98 926 64 846 q 200 1006 132 1006 q 303 927 268 1006 q 339 696 339 848 m 600 991 l 279 0 l 216 0 l 541 991 l 600 991 m 542 300 q 559 107 542 171 q 618 43 576 43 q 676 106 659 43 q 694 300 694 170 q 615 555 694 555 q 558 492 575 555 q 542 300 542 429 m 755 298 q 719 67 755 147 q 616 -14 682 -14 q 515 68 550 -14 q 481 298 481 151 q 516 531 481 454 q 616 608 551 608 q 720 529 684 608 q 755 298 755 450 m 871 300 q 888 107 871 171 q 947 43 905 43 q 1006 106 988 43 q 1023 300 1023 170 q 945 555 1023 555 q 888 492 905 555 q 871 300 871 429 m 1084 298 q 1048 68 1084 150 q 946 -14 1011 -14 q 844 68 879 -14 q 810 298 810 149 q 844 528 810 448 q 946 608 878 608 q 1049 530 1013 608 q 1084 298 1084 451 z "},"′":{"ha":264,"x_min":90,"x_max":174,"o":"m 174 991 l 154 633 l 113 633 l 90 991 l 174 991 z "},"″":{"ha":465,"x_min":90,"x_max":375,"o":"m 174 991 l 154 633 l 113 633 l 90 991 l 174 991 m 375 991 l 355 633 l 314 633 l 292 991 l 375 991 z "},"‹":{"ha":347,"x_min":56,"x_max":292,"o":"m 56 367 l 250 615 l 292 591 l 143 358 l 292 125 l 250 100 l 56 349 l 56 367 z "},"›":{"ha":347,"x_min":56,"x_max":292,"o":"m 292 349 l 97 100 l 56 125 l 204 358 l 56 591 l 97 615 l 292 367 l 292 349 z "},"‼":{"ha":570,"x_min":100,"x_max":469,"o":"m 171 249 l 134 249 l 110 991 l 195 991 l 171 249 m 100 61 q 153 134 100 134 q 190 117 174 134 q 205 61 205 101 q 190 6 205 22 q 153 -11 174 -11 q 100 61 100 -11 m 435 249 l 397 249 l 374 991 l 458 991 l 435 249 m 363 61 q 416 134 363 134 q 454 117 438 134 q 469 61 469 101 q 454 6 469 22 q 416 -11 438 -11 q 363 61 363 -11 z "},"⁄":{"ha":180,"x_min":-201,"x_max":382,"o":"m 382 991 l -139 0 l -201 0 l 319 991 l 382 991 z "},"ⁿ":{"ha":452,"x_min":81,"x_max":374,"o":"m 315 554 l 315 818 q 298 921 315 888 q 239 953 281 953 q 161 915 182 953 q 139 790 139 877 l 139 554 l 81 554 l 81 996 l 123 996 l 129 930 l 135 930 q 179 986 154 970 q 245 1003 204 1003 q 342 959 311 1003 q 374 823 374 914 l 374 554 l 315 554 z "},"₣":{"ha":555,"x_min":60,"x_max":503,"o":"m 60 257 l 155 257 l 155 991 l 503 991 l 503 928 l 222 928 l 222 507 l 486 507 l 486 443 l 222 443 l 222 257 l 380 257 l 380 201 l 222 201 l 222 0 l 155 0 l 155 201 l 60 201 l 60 257 z "},"₤":{"ha":555,"x_min":54,"x_max":503,"o":"m 343 1006 q 503 946 434 1006 l 465 895 q 342 945 410 945 q 254 900 281 945 q 228 760 228 856 l 228 571 l 397 571 l 397 513 l 228 513 l 228 382 l 397 382 l 397 323 l 228 323 l 228 268 q 146 64 228 123 l 500 64 l 500 0 l 62 0 l 62 56 q 135 131 109 75 q 161 267 161 186 l 161 323 l 54 323 l 54 382 l 161 382 l 161 513 l 54 513 l 54 571 l 161 571 l 161 760 q 205 945 161 884 q 343 1006 249 1006 z "},"₧":{"ha":777,"x_min":109,"x_max":758,"o":"m 475 707 q 410 481 475 553 q 218 410 345 410 l 175 410 l 175 0 l 109 0 l 109 991 l 216 991 q 412 924 349 991 q 475 707 475 856 m 175 471 l 214 471 q 362 526 318 471 q 407 707 407 581 q 361 879 407 827 q 221 930 316 930 l 175 930 l 175 471 m 705 46 q 758 54 735 46 l 758 0 q 682 -14 728 -14 q 568 157 568 -14 l 568 517 l 501 517 l 501 554 l 567 574 l 587 736 l 632 736 l 632 574 l 749 574 l 749 517 l 632 517 l 632 175 q 648 73 632 100 q 705 46 665 46 z "},"€":{"ha":555,"x_min":24,"x_max":524,"o":"m 375 940 q 189 610 214 940 l 410 610 l 410 554 l 186 554 l 184 503 l 184 453 l 186 418 l 387 418 l 387 363 l 189 363 q 248 129 199 204 q 386 53 297 53 q 451 60 422 53 q 513 85 480 67 l 513 17 q 386 -14 454 -14 q 200 80 267 -14 q 119 363 134 173 l 24 363 l 24 418 l 117 418 l 115 486 l 115 513 l 117 554 l 24 554 l 24 610 l 119 610 q 199 900 131 793 q 372 1007 268 1007 q 524 957 456 1007 l 489 899 q 375 940 430 940 z "},"℅":{"ha":761,"x_min":56,"x_max":705,"o":"m 558 991 l 233 0 l 176 0 l 501 991 l 558 991 m 705 227 q 666 54 705 113 q 558 -5 626 -5 q 453 54 492 -5 q 414 227 414 114 q 453 396 414 334 q 561 458 492 458 q 666 399 627 458 q 705 227 705 340 m 475 227 q 498 97 475 143 q 561 50 521 50 q 622 97 600 50 q 644 227 644 144 q 622 356 644 309 q 561 403 600 403 q 497 356 520 403 q 475 227 475 310 m 211 534 q 96 594 137 534 q 56 765 56 654 q 98 935 56 871 q 215 999 141 999 q 311 975 258 999 l 290 921 q 214 943 253 943 q 143 896 170 943 q 117 766 117 848 q 224 590 117 590 q 301 614 262 590 l 301 559 q 211 534 260 534 z "},"ℓ":{"ha":555,"x_min":64,"x_max":486,"o":"m 315 46 q 397 85 371 46 q 425 204 424 124 l 486 204 q 440 43 484 99 q 315 -12 396 -12 q 195 43 233 -12 q 157 211 157 99 l 157 404 q 64 370 135 393 l 64 428 q 157 463 112 441 l 157 806 q 191 955 157 905 q 290 1006 226 1006 q 394 954 357 1006 q 431 807 431 901 q 378 585 431 682 q 221 428 325 488 l 221 224 q 243 91 221 136 q 315 46 266 46 m 367 806 q 347 912 367 877 q 292 947 326 947 q 238 916 255 947 q 221 806 221 884 l 221 486 q 367 806 367 587 z "},"№":{"ha":1021,"x_min":109,"x_max":962,"o":"m 962 415 q 919 246 962 306 q 800 186 876 186 q 642 415 642 186 q 684 584 642 526 q 802 643 726 643 q 920 587 878 643 q 962 415 962 532 m 705 415 q 729 284 705 323 q 800 244 752 244 q 874 284 850 244 q 899 416 899 325 q 875 543 899 502 q 800 585 851 585 q 728 545 751 585 q 705 415 705 505 m 922 0 l 675 0 l 675 58 l 922 58 l 922 0 m 561 0 l 476 0 l 171 872 l 165 872 q 174 694 174 780 l 174 0 l 109 0 l 109 991 l 195 991 l 497 129 l 503 129 q 496 315 496 219 l 496 991 l 561 991 l 561 0 z "},"™":{"ha":985,"x_min":9,"x_max":886,"o":"m 215 503 l 157 503 l 157 939 l 9 939 l 9 991 l 364 991 l 364 939 l 215 939 l 215 503 m 623 503 l 472 916 l 467 916 l 471 779 l 471 503 l 415 503 l 415 991 l 500 991 l 650 581 l 802 991 l 886 991 l 886 503 l 828 503 l 828 772 l 832 913 l 827 913 l 672 503 l 623 503 z "},"Ω":{"ha":733,"x_min":45,"x_max":689,"o":"m 367 942 q 205 840 261 942 q 150 550 150 737 q 186 257 150 374 q 311 35 222 139 l 311 0 l 45 0 l 45 64 l 218 64 q 118 266 156 138 q 81 550 81 395 q 153 889 81 772 q 367 1006 226 1006 q 578 884 503 1006 q 653 550 653 763 q 515 64 653 238 l 689 64 l 689 0 l 422 0 l 422 35 q 550 263 517 158 q 583 550 583 368 q 526 840 583 739 q 367 942 469 942 z "},"℮":{"ha":860,"x_min":69,"x_max":789,"o":"m 429 -24 q 241 26 323 -24 q 114 164 159 76 q 69 359 69 253 q 116 562 69 475 q 245 696 163 648 q 429 743 328 743 q 615 695 532 743 q 743 559 697 647 q 789 359 789 471 l 228 359 l 228 118 q 317 58 261 82 q 429 35 374 35 q 580 70 518 35 q 697 193 642 106 l 746 165 q 606 18 680 60 q 429 -24 532 -24 m 632 418 l 632 606 q 543 664 598 642 q 428 686 488 686 q 228 607 311 686 l 228 418 l 632 418 z "},"⅛":{"ha":970,"x_min":35,"x_max":914,"o":"m 749 606 q 859 564 818 606 q 901 453 901 522 q 795 315 901 362 q 914 155 914 260 q 869 32 914 78 q 746 -14 823 -14 q 623 30 668 -14 q 578 151 578 73 q 605 236 578 197 q 692 309 631 275 q 617 377 637 344 q 596 450 596 410 q 639 563 596 520 q 749 606 682 606 m 640 151 q 669 73 640 104 q 747 42 699 42 q 825 72 797 42 q 853 151 853 102 q 827 225 853 195 q 741 286 801 256 q 640 151 640 236 m 747 551 q 682 522 709 551 q 656 452 656 493 q 675 392 656 418 q 750 338 694 366 q 840 453 840 380 q 814 523 840 494 q 747 551 788 551 m 746 991 l 225 0 l 163 0 l 684 991 l 746 991 m 249 397 l 191 397 l 191 814 q 195 929 191 872 q 157 896 172 908 q 68 831 142 884 l 35 875 l 196 991 l 249 991 l 249 397 z "},"⅜":{"ha":970,"x_min":32,"x_max":914,"o":"m 749 606 q 859 564 818 606 q 901 453 901 522 q 795 315 901 362 q 914 155 914 260 q 869 32 914 78 q 746 -14 823 -14 q 623 30 668 -14 q 578 151 578 73 q 605 236 578 197 q 692 309 631 275 q 617 377 637 344 q 596 450 596 410 q 639 563 596 520 q 749 606 682 606 m 640 151 q 669 73 640 104 q 747 42 699 42 q 825 72 797 42 q 853 151 853 102 q 827 225 853 195 q 741 286 801 256 q 640 151 640 236 m 747 551 q 682 522 709 551 q 656 452 656 493 q 675 392 656 418 q 750 338 694 366 q 840 453 840 380 q 814 523 840 494 q 747 551 788 551 m 338 851 q 313 766 338 802 q 244 714 288 730 l 244 708 q 357 555 357 677 q 306 433 357 481 q 170 386 254 386 q 36 415 102 386 l 36 479 q 171 444 100 444 q 264 475 235 444 q 293 555 293 505 q 258 649 293 616 q 154 681 223 681 l 113 681 l 113 736 l 157 736 q 245 768 214 736 q 277 854 277 801 q 250 924 277 899 q 175 949 223 949 q 68 900 118 949 l 32 946 q 180 1007 99 1007 q 297 965 256 1007 q 338 851 338 924 m 766 991 l 245 0 l 183 0 l 704 991 l 766 991 z "},"⅝":{"ha":970,"x_min":62,"x_max":914,"o":"m 749 606 q 859 564 818 606 q 901 453 901 522 q 795 315 901 362 q 914 155 914 260 q 869 32 914 78 q 746 -14 823 -14 q 623 30 668 -14 q 578 151 578 73 q 605 236 578 197 q 692 309 631 275 q 617 377 637 344 q 596 450 596 410 q 639 563 596 520 q 749 606 682 606 m 640 151 q 669 73 640 104 q 747 42 699 42 q 825 72 797 42 q 853 151 853 102 q 827 225 853 195 q 741 286 801 256 q 640 151 640 236 m 747 551 q 682 522 709 551 q 656 452 656 493 q 675 392 656 418 q 750 338 694 366 q 840 453 840 380 q 814 523 840 494 q 747 551 788 551 m 72 734 l 96 991 l 323 991 l 323 933 l 142 933 l 126 757 q 183 764 156 764 q 311 716 264 764 q 357 585 357 668 q 310 438 357 491 q 179 386 263 386 q 62 411 119 386 l 62 473 q 179 443 115 443 q 294 586 294 443 q 265 678 294 645 q 184 711 236 711 q 104 699 146 711 l 72 734 m 764 991 l 243 0 l 180 0 l 701 991 l 764 991 z "},"⅞":{"ha":970,"x_min":75,"x_max":914,"o":"m 749 606 q 859 564 818 606 q 901 453 901 522 q 795 315 901 362 q 914 155 914 260 q 869 32 914 78 q 746 -14 823 -14 q 623 30 668 -14 q 578 151 578 73 q 605 236 578 197 q 692 309 631 275 q 617 377 637 344 q 596 450 596 410 q 639 563 596 520 q 749 606 682 606 m 640 151 q 669 73 640 104 q 747 42 699 42 q 825 72 797 42 q 853 151 853 102 q 827 225 853 195 q 741 286 801 256 q 640 151 640 236 m 747 551 q 682 522 709 551 q 656 452 656 493 q 675 392 656 418 q 750 338 694 366 q 840 453 840 380 q 814 523 840 494 q 747 551 788 551 m 734 991 l 214 0 l 151 0 l 672 991 l 734 991 m 130 397 l 321 933 l 75 933 l 75 991 l 385 991 l 385 945 l 191 397 l 130 397 z "},"∂":{"ha":793,"x_min":81,"x_max":704,"o":"m 314 -14 q 141 56 202 -14 q 81 249 81 125 q 127 473 81 368 q 250 631 174 578 q 425 685 327 685 q 546 646 494 685 q 631 532 598 607 q 636 629 636 583 q 588 870 636 795 q 431 946 539 946 q 343 933 389 946 q 267 905 297 921 l 267 972 q 440 1007 353 1007 q 639 913 574 1007 q 704 635 704 820 q 652 304 704 458 q 512 68 600 150 q 314 -14 425 -14 m 315 47 q 443 95 382 47 q 549 236 503 142 q 615 452 595 330 q 418 624 560 624 q 281 575 342 624 q 185 435 221 527 q 149 249 149 344 q 193 100 149 153 q 315 47 237 47 z "},"∆":{"ha":546,"x_min":16,"x_max":530,"o":"m 16 65 l 236 991 l 306 991 l 530 57 l 530 0 l 16 0 l 16 65 m 269 892 q 253 805 260 845 q 89 64 245 766 l 457 64 l 325 635 q 269 892 283 820 z "},"∏":{"ha":951,"x_min":151,"x_max":800,"o":"m 733 -334 l 733 926 l 218 926 l 218 -334 l 151 -334 l 151 991 l 800 991 l 800 -334 l 733 -334 z "},"∑":{"ha":793,"x_min":54,"x_max":741,"o":"m 54 -334 l 54 -290 l 511 370 l 64 945 l 64 991 l 693 991 l 693 926 l 164 926 l 596 371 l 151 -268 l 741 -268 l 741 -334 l 54 -334 z "},"−":{"ha":555,"x_min":40,"x_max":517,"o":"m 40 518 l 517 518 l 517 463 l 40 463 l 40 518 z "},"√":{"ha":762,"x_min":25,"x_max":803,"o":"m 408 -9 l 340 -9 l 167 534 l 25 534 l 25 593 l 216 593 l 378 86 l 739 1124 l 803 1124 l 408 -9 z "},"∞":{"ha":986,"x_min":82,"x_max":904,"o":"m 904 485 q 850 340 904 401 q 717 279 797 279 q 494 446 576 279 q 397 326 454 369 q 275 283 339 283 q 136 339 189 283 q 82 490 82 395 q 137 638 82 580 q 275 696 193 696 q 395 657 344 696 q 490 532 446 618 q 589 647 530 606 q 717 688 648 688 q 850 631 795 688 q 904 485 904 574 m 281 342 q 381 376 336 342 q 467 485 427 411 q 282 635 388 635 q 177 595 216 635 q 138 488 138 555 q 176 382 138 422 q 281 342 215 342 m 703 629 q 605 597 649 629 q 518 493 561 566 q 704 340 600 340 q 809 380 770 340 q 848 486 848 419 q 810 589 848 548 q 703 629 771 629 z "},"∫":{"ha":517,"x_min":64,"x_max":469,"o":"m 298 -69 q 265 -272 298 -211 q 150 -334 231 -334 q 64 -317 102 -334 l 86 -257 q 151 -271 118 -271 q 202 -251 185 -271 q 227 -187 219 -231 q 235 -68 235 -142 l 235 791 q 250 945 235 888 q 295 1029 264 1003 q 383 1055 326 1055 q 469 1039 432 1055 l 447 979 q 382 993 416 993 q 316 947 334 993 q 298 790 298 901 l 298 -69 z "},"≈":{"ha":555,"x_min":40,"x_max":515,"o":"m 164 644 q 103 622 136 644 q 40 562 69 600 l 40 629 q 165 701 91 701 q 216 695 192 701 q 290 661 241 688 q 347 634 323 642 q 393 625 370 625 q 458 647 427 625 q 515 704 490 669 l 515 637 q 393 567 466 567 q 337 574 360 567 q 267 607 313 581 q 206 637 227 629 q 164 644 186 644 m 164 352 q 103 330 136 352 q 40 270 69 308 l 40 337 q 165 409 91 409 q 216 402 192 409 q 290 369 241 396 q 347 341 323 350 q 393 333 370 333 q 458 355 427 333 q 515 412 490 377 l 515 345 q 393 275 466 275 q 337 282 360 275 q 267 315 313 289 q 206 345 227 337 q 164 352 186 352 z "},"≠":{"ha":555,"x_min":40,"x_max":515,"o":"m 225 315 l 135 121 l 90 144 l 170 315 l 40 315 l 40 371 l 196 371 l 306 607 l 40 607 l 40 663 l 332 663 l 422 856 l 469 832 l 389 663 l 515 663 l 515 607 l 363 607 l 252 371 l 515 371 l 515 315 l 225 315 z "},"≤":{"ha":555,"x_min":40,"x_max":517,"o":"m 517 195 l 40 468 l 40 514 l 517 785 l 517 717 l 110 490 l 517 264 l 517 195 m 40 0 l 40 56 l 517 56 l 517 0 l 40 0 z "},"≥":{"ha":555,"x_min":39,"x_max":515,"o":"m 39 264 l 446 490 l 39 717 l 39 785 l 515 514 l 515 468 l 39 195 l 39 264 m 39 0 l 39 56 l 515 56 l 515 0 l 39 0 z "},"◊":{"ha":810,"x_min":82,"x_max":728,"o":"m 82 498 l 387 1002 l 419 1002 l 728 501 l 419 0 l 387 0 l 82 498 m 660 500 l 406 920 l 151 500 l 406 79 l 660 500 z "},"ﬁ":{"ha":568,"x_min":14,"x_max":481,"o":"m 286 679 l 171 679 l 171 0 l 107 0 l 107 679 l 14 679 l 14 715 l 107 743 l 107 799 q 140 1001 107 939 q 256 1063 174 1063 q 342 1046 303 1063 l 319 986 q 254 1003 283 1003 q 204 983 221 1003 q 179 920 187 964 q 171 798 171 876 l 171 736 l 286 736 l 286 679 m 470 0 l 406 0 l 406 736 l 470 736 l 470 0 m 396 940 q 409 987 396 970 q 441 1004 421 1004 q 470 987 459 1004 q 481 940 481 970 q 470 893 481 911 q 441 876 459 876 q 409 893 421 876 q 396 940 396 911 z "},"ﬂ":{"ha":568,"x_min":14,"x_max":470,"o":"m 286 679 l 171 679 l 171 0 l 107 0 l 107 679 l 14 679 l 14 715 l 107 743 l 107 799 q 140 1001 107 939 q 256 1063 174 1063 q 342 1046 303 1063 l 319 986 q 254 1003 283 1003 q 204 983 221 1003 q 179 920 187 964 q 171 798 171 876 l 171 736 l 286 736 l 286 679 m 470 0 l 406 0 l 406 1055 l 470 1055 l 470 0 z "},"ȷ":{"ha":261,"x_min":-3,"x_max":163,"o":"m 43 -334 q -3 -322 14 -334 l -3 -261 q 40 -272 19 -272 q 85 -241 72 -272 q 98 -146 98 -210 l 98 736 l 163 736 l 163 -136 q 134 -286 163 -237 q 43 -334 104 -334 z "},"⁰":{"ha":416,"x_min":41,"x_max":375,"o":"m 106 697 q 207 441 106 441 q 284 506 257 441 q 311 699 311 570 q 283 889 311 827 q 205 950 256 950 q 130 888 155 950 q 106 697 106 826 m 375 699 q 332 465 375 543 q 207 386 288 386 q 84 468 127 386 q 41 699 41 549 q 207 1006 41 1006 q 331 926 288 1006 q 375 699 375 847 z "},"⁴":{"ha":416,"x_min":36,"x_max":389,"o":"m 389 539 l 321 539 l 321 397 l 262 397 l 262 539 l 36 539 l 36 583 l 267 996 l 321 996 l 321 595 l 389 595 l 389 539 m 262 595 l 262 786 q 265 901 262 869 q 237 842 262 893 q 104 595 212 791 l 262 595 z "},"⁵":{"ha":416,"x_min":62,"x_max":357,"o":"m 72 734 l 96 991 l 323 991 l 323 933 l 142 933 l 126 757 q 183 764 156 764 q 311 716 264 764 q 357 585 357 668 q 310 438 357 491 q 179 386 263 386 q 62 411 119 386 l 62 473 q 179 443 115 443 q 294 586 294 443 q 265 678 294 645 q 184 711 236 711 q 104 699 146 711 l 72 734 z "},"⁶":{"ha":416,"x_min":39,"x_max":364,"o":"m 39 639 q 92 920 39 834 q 252 1006 144 1006 q 325 994 299 1006 l 325 936 q 241 950 300 950 q 140 887 177 950 q 97 699 102 823 l 103 699 q 152 754 121 732 q 218 777 183 777 q 325 725 286 777 q 364 586 364 674 q 320 441 364 496 q 204 386 276 386 q 83 453 128 386 q 39 639 39 521 m 208 441 q 278 480 252 441 q 304 582 304 519 q 279 684 304 646 q 210 721 254 721 q 132 684 163 721 q 100 602 100 648 q 130 487 100 532 q 208 441 160 441 z "},"⁷":{"ha":416,"x_min":41,"x_max":351,"o":"m 97 397 l 288 933 l 41 933 l 41 991 l 351 991 l 351 945 l 158 397 l 97 397 z "},"⁸":{"ha":416,"x_min":40,"x_max":376,"o":"m 211 1006 q 321 964 280 1006 q 363 852 363 922 q 257 714 363 762 q 376 554 376 659 q 331 432 376 477 q 208 386 286 386 q 85 429 130 386 q 40 550 40 473 q 67 635 40 596 q 154 708 94 674 q 79 777 100 743 q 58 850 58 810 q 101 963 58 920 q 211 1006 144 1006 m 102 550 q 132 472 102 503 q 210 441 161 441 q 287 471 259 441 q 315 550 315 501 q 289 625 315 594 q 203 685 263 656 q 102 550 102 635 m 210 950 q 144 921 171 950 q 118 851 118 892 q 137 792 118 818 q 212 737 157 766 q 302 852 302 779 q 276 922 302 894 q 210 950 250 950 z "},"⁹":{"ha":416,"x_min":39,"x_max":364,"o":"m 364 751 q 312 471 364 557 q 151 386 259 386 q 78 397 104 386 l 78 456 q 161 441 102 441 q 262 503 225 441 q 306 692 300 565 l 300 692 q 251 637 283 659 q 184 615 220 615 q 78 666 117 615 q 39 804 39 716 q 82 949 39 892 q 199 1006 125 1006 q 320 937 275 1006 q 364 751 364 868 m 195 950 q 125 912 152 950 q 98 808 98 873 q 122 709 98 747 q 193 671 146 671 q 270 705 238 671 q 302 789 302 740 q 273 903 302 857 q 195 950 243 950 z "}," ":{"ha":694,"x_min":0,"x_max":0,"o":""}," ":{"ha":1389,"x_min":0,"x_max":0,"o":""}," ":{"ha":694,"x_min":0,"x_max":0,"o":""}," ":{"ha":1389,"x_min":0,"x_max":0,"o":""}," ":{"ha":463,"x_min":0,"x_max":0,"o":""}," ":{"ha":347,"x_min":0,"x_max":0,"o":""}," ":{"ha":232,"x_min":0,"x_max":0,"o":""}," ":{"ha":555,"x_min":0,"x_max":0,"o":""}," ":{"ha":261,"x_min":0,"x_max":0,"o":""}," ":{"ha":278,"x_min":0,"x_max":0,"o":""}," ":{"ha":139,"x_min":0,"x_max":0,"o":""},"​":{"ha":0,"x_min":0,"x_max":0,"o":""},"﻿":{"ha":0,"x_min":0,"x_max":0,"o":""}}}
